<?xml version="1.0" encoding="UTF-8" standalone="no"?>
<svg
   xmlns:dc="http://purl.org/dc/elements/1.1/"
   xmlns:cc="http://creativecommons.org/ns#"
   xmlns:rdf="http://www.w3.org/1999/02/22-rdf-syntax-ns#"
   xmlns:svg="http://www.w3.org/2000/svg"
   xmlns="http://www.w3.org/2000/svg"
   xmlns:sodipodi="http://sodipodi.sourceforge.net/DTD/sodipodi-0.dtd"
   xmlns:inkscape="http://www.inkscape.org/namespaces/inkscape"
   version="1.1"
   id="svg2"
   viewBox="0 0 1600 1200"
   height="1200"
   width="1600"
   inkscape:version="0.91 r13725"
   sodipodi:docname="1-plain.svg">
  <sodipodi:namedview
     pagecolor="#ffffff"
     bordercolor="#666666"
     borderopacity="1"
     objecttolerance="10"
     gridtolerance="10"
     guidetolerance="10"
     inkscape:pageopacity="0"
     inkscape:pageshadow="2"
     inkscape:window-width="1280"
     inkscape:window-height="756"
     id="namedview12"
     showgrid="false"
     inkscape:zoom="0.39333333"
     inkscape:cx="837.71603"
     inkscape:cy="656.77285"
     inkscape:window-x="0"
     inkscape:window-y="44"
     inkscape:window-maximized="1"
     inkscape:current-layer="svg2" />
  <defs
     id="defs4" />
  <metadata
     id="metadata7">
    <rdf:RDF>
      <cc:Work
         rdf:about="">
        <dc:format>image/svg+xml</dc:format>
        <dc:type
           rdf:resource="http://purl.org/dc/dcmitype/StillImage" />
        <dc:title></dc:title>
      </cc:Work>
    </rdf:RDF>
  </metadata>
  <path
     inkscape:connector-curvature="0"
     style="color:#000000;display:inline;overflow:visible;visibility:visible;opacity:1;fill:#2b3233;fill-opacity:1;fill-rule:evenodd;stroke:none;stroke-width:9;stroke-linecap:butt;stroke-linejoin:round;stroke-miterlimit:4;stroke-dasharray:none;stroke-dashoffset:0;stroke-opacity:1;marker:none;enable-background:accumulate"
     d="M 1600,1e-5 0,1e-5 0,1200 l 1600,0 z"
     id="rect4535" />
  <path
     inkscape:connector-curvature="0"
     id="path4148"
     style="font-style:normal;font-variant:normal;font-weight:300;font-stretch:normal;font-size:120px;line-height:125%;font-family:Raleway;-inkscape-font-specification:'Raleway Light';letter-spacing:0px;word-spacing:0px;fill:#616161;fill-opacity:1;stroke:none;stroke-width:1px;stroke-linecap:butt;stroke-linejoin:miter;stroke-opacity:1"
     d="m 962.04799,558.00001 5.28,0 36.00001,85.2 -6.48001,0 -11.88,-28.08 -40.68,0 -11.88,28.08 -6.6,0 36.24,-85.2 z m 21.24,52.08 -18.6,-44.64 -18.96,44.64 37.56,0 z" />
  <path
     inkscape:connector-curvature="0"
     id="path4150"
     style="font-style:normal;font-variant:normal;font-weight:300;font-stretch:normal;font-size:120px;line-height:125%;font-family:Raleway;-inkscape-font-specification:'Raleway Light';letter-spacing:0px;word-spacing:0px;fill:#616161;fill-opacity:1;stroke:none;stroke-width:1px;stroke-linecap:butt;stroke-linejoin:miter;stroke-opacity:1"
     d="m 1008.4865,611.76001 q 0,-6.6 2.28,-12.48 2.28,-5.88 6.36,-10.2 4.08,-4.32 9.72,-6.84 5.64,-2.52 12.36,-2.52 8.52,0 15,3.84 6.48,3.84 9.72,10.68 l -5.88,1.92 q -2.76,-5.16 -7.92,-8.04 -5.04,-3 -11.16,-3 -5.16,0 -9.6,2.04 -4.44,2.04 -7.8,5.64 -3.24,3.6 -5.16,8.52 -1.92,4.8 -1.92,10.44 0,5.64 1.92,10.68 2.04,4.92 5.28,8.64 3.36,3.6 7.8,5.76 4.56,2.16 9.6,2.16 3.24,0 6.36,-0.96 3.24,-0.96 5.88,-2.52 2.76,-1.56 4.68,-3.6 2.04,-2.16 2.76,-4.44 l 5.88,1.68 q -1.2,3.24 -3.72,6.12 -2.4,2.76 -5.76,4.8 -3.36,2.04 -7.44,3.12 -4.08,1.2 -8.4,1.2 -6.6,0 -12.24,-2.52 -5.64,-2.64 -9.84,-7.08 -4.08,-4.56 -6.48,-10.44 -2.28,-5.88 -2.28,-12.6 z" />
  <path
     inkscape:connector-curvature="0"
     id="path4152"
     style="font-style:normal;font-variant:normal;font-weight:300;font-stretch:normal;font-size:120px;line-height:125%;font-family:Raleway;-inkscape-font-specification:'Raleway Light';letter-spacing:0px;word-spacing:0px;fill:#616161;fill-opacity:1;stroke:none;stroke-width:1px;stroke-linecap:butt;stroke-linejoin:miter;stroke-opacity:1"
     d="m 1104.1282,644.40001 q -6.6,0 -12.24,-2.52 -5.64,-2.64 -9.84,-7.08 -4.08,-4.56 -6.48,-10.44 -2.28,-5.88 -2.28,-12.6 0,-6.6 2.28,-12.36 2.4,-5.88 6.48,-10.2 4.08,-4.44 9.6,-6.96 5.64,-2.52 12.12,-2.52 6.6,0 12.24,2.64 5.64,2.52 9.72,6.96 4.08,4.32 6.36,10.2 2.28,5.76 2.28,12.24 0,0.6 0,1.56 0,0.84 -0.12,1.08 l -54.72,0 q 0.36,5.4 2.52,10.08 2.16,4.56 5.4,7.92 3.36,3.36 7.68,5.28 4.32,1.92 9.24,1.92 3.24,0 6.36,-0.84 3.12,-0.96 5.76,-2.52 2.76,-1.56 4.8,-3.72 2.16,-2.28 3.36,-4.92 l 5.28,1.44 q -1.32,3.36 -3.96,6.24 -2.52,2.76 -6,4.8 -3.36,2.04 -7.44,3.12 -4.08,1.2 -8.4,1.2 z m 24.48,-34.8 q -0.36,-5.52 -2.52,-10.08 -2.04,-4.56 -5.4,-7.8 -3.24,-3.36 -7.56,-5.16 -4.32,-1.92 -9.24,-1.92 -4.92,0 -9.24,1.92 -4.32,1.8 -7.68,5.16 -3.24,3.24 -5.28,7.92 -1.92,4.56 -2.28,9.96 l 49.2,0 z" />
  <path
     inkscape:connector-curvature="0"
     id="path4154"
     style="font-style:normal;font-variant:normal;font-weight:300;font-stretch:normal;font-size:120px;line-height:125%;font-family:Raleway;-inkscape-font-specification:'Raleway Light';letter-spacing:0px;word-spacing:0px;fill:#616161;fill-opacity:1;stroke:none;stroke-width:1px;stroke-linecap:butt;stroke-linejoin:miter;stroke-opacity:1"
     d="m 1177.0892,586.20001 q -8.4,0.24 -14.76,5.04 -6.24,4.68 -8.76,12.96 l 0,39 -6,0 0,-62.4 5.76,0 0,15.36 q 3.24,-6.6 8.52,-10.68 5.4,-4.2 11.52,-4.8 1.2,-0.12 2.16,-0.12 0.96,0 1.56,0 l 0,5.64 z" />
  <path
     inkscape:connector-curvature="0"
     id="path4156"
     style="font-style:normal;font-variant:normal;font-weight:300;font-stretch:normal;font-size:120px;line-height:125%;font-family:Raleway;-inkscape-font-specification:'Raleway Light';letter-spacing:0px;word-spacing:0px;fill:#616161;fill-opacity:1;stroke:none;stroke-width:1px;stroke-linecap:butt;stroke-linejoin:miter;stroke-opacity:1"
     d="m 1181.0497,611.76001 q 0,-6.6 2.28,-12.48 2.28,-5.88 6.36,-10.2 4.08,-4.32 9.72,-6.84 5.64,-2.52 12.36,-2.52 8.52,0 15,3.84 6.48,3.84 9.72,10.68 l -5.88,1.92 q -2.76,-5.16 -7.92,-8.04 -5.04,-3 -11.16,-3 -5.16,0 -9.6,2.04 -4.44,2.04 -7.8,5.64 -3.24,3.6 -5.16,8.52 -1.92,4.8 -1.92,10.44 0,5.64 1.92,10.68 2.04,4.92 5.28,8.64 3.36,3.6 7.8,5.76 4.56,2.16 9.6,2.16 3.24,0 6.36,-0.96 3.24,-0.96 5.88,-2.52 2.76,-1.56 4.68,-3.6 2.04,-2.16 2.76,-4.44 l 5.88,1.68 q -1.2,3.24 -3.72,6.12 -2.4,2.76 -5.76,4.8 -3.36,2.04 -7.44,3.12 -4.08,1.2 -8.4,1.2 -6.6,0 -12.24,-2.52 -5.64,-2.64 -9.84,-7.08 -4.08,-4.56 -6.48,-10.44 -2.28,-5.88 -2.28,-12.6 z" />
  <path
     inkscape:connector-curvature="0"
     id="path4158"
     style="font-style:normal;font-variant:normal;font-weight:300;font-stretch:normal;font-size:120px;line-height:125%;font-family:Raleway;-inkscape-font-specification:'Raleway Light';letter-spacing:0px;word-spacing:0px;fill:#616161;fill-opacity:1;stroke:none;stroke-width:1px;stroke-linecap:butt;stroke-linejoin:miter;stroke-opacity:1"
     d="m 1266.1313,644.40001 q -4.32,0 -8.04,-1.44 -3.72,-1.56 -6.6,-4.08 -2.76,-2.64 -4.32,-6.12 -1.56,-3.6 -1.56,-7.68 0,-4.08 1.92,-7.44 1.92,-3.36 5.28,-5.76 3.48,-2.52 8.28,-3.84 4.8,-1.44 10.56,-1.44 5.04,0 10.08,0.96 5.16,0.84 9.24,2.4 l 0,-6.12 q 0,-8.88 -5.04,-14.04 -5.04,-5.28 -13.68,-5.28 -4.56,0 -9.72,1.92 -5.04,1.92 -10.32,5.52 l -2.28,-4.08 q 12,-8.16 22.8,-8.16 11.28,0 17.76,6.6 6.48,6.48 6.48,18 l 0,30.48 q 0,3 2.64,3 l 0,5.4 q -0.6,0.12 -1.32,0.12 -0.6,0.12 -1.08,0.12 -2.4,0 -3.84,-1.56 -1.44,-1.68 -1.68,-3.96 l 0,-5.16 q -4.32,5.64 -11.04,8.64 -6.72,3 -14.52,3 z m 1.2,-4.8 q 6.96,0 12.72,-2.64 5.88,-2.64 9,-6.96 1.92,-2.52 1.92,-4.8 l 0,-11.04 q -4.32,-1.68 -9,-2.52 -4.68,-0.84 -9.72,-0.84 -4.68,0 -8.52,1.08 -3.84,0.96 -6.6,2.76 -2.76,1.8 -4.32,4.44 -1.44,2.52 -1.44,5.64 0,3.12 1.2,5.88 1.2,2.76 3.36,4.8 2.16,1.92 5.04,3.12 3,1.08 6.36,1.08 z" />
  <path
     inkscape:connector-curvature="0"
     id="path4160"
     style="font-style:normal;font-variant:normal;font-weight:300;font-stretch:normal;font-size:120px;line-height:125%;font-family:Raleway;-inkscape-font-specification:'Raleway Light';letter-spacing:0px;word-spacing:0px;fill:#616161;fill-opacity:1;stroke:none;stroke-width:1px;stroke-linecap:butt;stroke-linejoin:miter;stroke-opacity:1"
     d="m 1371.7284,644.40001 q -6.48,0 -12,-2.64 -5.52,-2.76 -9.6,-7.2 -3.96,-4.56 -6.24,-10.32 -2.16,-5.88 -2.16,-12.12 0,-6.48 2.16,-12.36 2.16,-5.88 6,-10.32 3.84,-4.44 9,-7.08 5.28,-2.64 11.52,-2.64 4.08,0 7.68,1.2 3.6,1.2 6.72,3.24 3.12,1.92 5.64,4.56 2.52,2.64 4.32,5.64 l 0,-38.76 6,0 0,79.2 q 0,3 2.52,3 l 0,5.4 q -0.72,0.12 -1.2,0.12 -0.48,0.12 -0.96,0.12 -2.4,0 -4.08,-1.8 -1.68,-1.92 -1.68,-3.96 l 0,-6.96 q -3.84,6.24 -10.32,9.96 -6.36,3.72 -13.32,3.72 z m 1.08,-5.4 q 3.24,0 6.96,-1.32 3.72,-1.32 6.84,-3.6 3.24,-2.4 5.52,-5.4 2.28,-3 2.64,-6.48 l 0,-20.52 q -1.32,-3.36 -3.84,-6.36 -2.4,-3.12 -5.52,-5.28 -3.12,-2.28 -6.72,-3.6 -3.6,-1.32 -6.96,-1.32 -5.4,0 -9.84,2.4 -4.44,2.28 -7.56,6.12 -3.12,3.72 -4.8,8.64 -1.68,4.8 -1.68,9.96 0,5.4 1.92,10.2 1.92,4.8 5.28,8.52 3.48,3.72 7.92,5.88 4.56,2.16 9.84,2.16 z" />
  <path
     inkscape:connector-curvature="0"
     id="path4162"
     style="font-style:normal;font-variant:normal;font-weight:300;font-stretch:normal;font-size:120px;line-height:125%;font-family:Raleway;-inkscape-font-specification:'Raleway Light';letter-spacing:0px;word-spacing:0px;fill:#616161;fill-opacity:1;stroke:none;stroke-width:1px;stroke-linecap:butt;stroke-linejoin:miter;stroke-opacity:1"
     d="m 1446.3672,644.40001 q -6.6,0 -12.24,-2.52 -5.64,-2.64 -9.84,-7.08 -4.08,-4.56 -6.48,-10.44 -2.28,-5.88 -2.28,-12.6 0,-6.6 2.28,-12.36 2.4,-5.88 6.48,-10.2 4.08,-4.44 9.6,-6.96 5.64,-2.52 12.12,-2.52 6.6,0 12.24,2.64 5.64,2.52 9.72,6.96 4.08,4.32 6.36,10.2 2.28,5.76 2.28,12.24 0,0.6 0,1.56 0,0.84 -0.12,1.08 l -54.72,0 q 0.36,5.4 2.52,10.08 2.16,4.56 5.4,7.92 3.36,3.36 7.68,5.28 4.32,1.92 9.24,1.92 3.24,0 6.36,-0.84 3.12,-0.96 5.76,-2.52 2.76,-1.56 4.8,-3.72 2.16,-2.28 3.36,-4.92 l 5.28,1.44 q -1.32,3.36 -3.96,6.24 -2.52,2.76 -6,4.8 -3.36,2.04 -7.44,3.12 -4.08,1.2 -8.4,1.2 z m 24.48,-34.8 q -0.36,-5.52 -2.52,-10.08 -2.04,-4.56 -5.4,-7.8 -3.24,-3.36 -7.56,-5.16 -4.32,-1.92 -9.24,-1.92 -4.92,0 -9.24,1.92 -4.32,1.8 -7.68,5.16 -3.24,3.24 -5.28,7.92 -1.92,4.56 -2.28,9.96 l 49.2,0 z" />
  <path
     inkscape:connector-curvature="0"
     id="path4164"
     style="font-style:normal;font-variant:normal;font-weight:300;font-stretch:normal;font-size:120px;line-height:125%;font-family:Raleway;-inkscape-font-specification:'Raleway Light';letter-spacing:0px;word-spacing:0px;fill:#616161;fill-opacity:1;stroke:none;stroke-width:1px;stroke-linecap:butt;stroke-linejoin:miter;stroke-opacity:1"
     d="m 1488.4882,643.20001 0,-10.2 5.28,0 0,10.2 -5.28,0 z" />
  <path
     inkscape:connector-curvature="0"
     id="path4166"
     style="font-style:normal;font-variant:normal;font-weight:300;font-stretch:normal;font-size:120px;line-height:125%;font-family:Raleway;-inkscape-font-specification:'Raleway Light';letter-spacing:0px;word-spacing:0px;fill:#616161;fill-opacity:1;stroke:none;stroke-width:1px;stroke-linecap:butt;stroke-linejoin:miter;stroke-opacity:1"
     d="m 1509.7284,643.20001 0,-10.2 5.28,0 0,10.2 -5.28,0 z" />
  <path
     inkscape:connector-curvature="0"
     id="path4168"
     style="font-style:normal;font-variant:normal;font-weight:300;font-stretch:normal;font-size:120px;line-height:125%;font-family:Raleway;-inkscape-font-specification:'Raleway Light';letter-spacing:0px;word-spacing:0px;fill:#616161;fill-opacity:1;stroke:none;stroke-width:1px;stroke-linecap:butt;stroke-linejoin:miter;stroke-opacity:1"
     d="m 1530.9686,643.20001 0,-10.2 5.28,0 0,10.2 -5.28,0 z" />
  <path
     inkscape:connector-curvature="0"
     style="color:#000000;display:inline;overflow:visible;visibility:visible;opacity:1;fill:#aa243b;fill-opacity:1;fill-rule:evenodd;stroke:none;stroke-width:9;stroke-linecap:butt;stroke-linejoin:round;stroke-miterlimit:4;stroke-dasharray:none;stroke-dashoffset:0;stroke-opacity:1;marker:none;enable-background:accumulate"
     d="m 0,0 0,1200 440,0 c -11.0457,0 -20,-8.9543 -20,-20 0,-11.0457 8.9543,-20 20,-20 l 15,0 c 11.04569,0 20,-8.9542 20,-20 0,-11.0457 -8.95431,-20 -20,-20 l -70,0 c -11.04569,0 -20,-8.9543 -20,-20 0,-11.0457 8.95431,-20 20,-20 l 5,0 c 11.04569,0 20,-8.9543 20,-20 0,-11.0457 -8.95431,-20 -20,-20 l -20,0 c -11.04569,0 -20,-8.9543 -20,-20 0,-11.0457 8.95431,-20 20,-20 l 45,0 c 11.04569,0 20,-8.95428 20,-20 0,-11.0457 -8.95431,-20 -20,-20 l -35,0 c -11.04569,0 -20,-8.95431 -20,-20 0,-11.0457 8.95431,-20 20,-20 11.0457,0 20,-8.95428 20,-20 0,-11.0457 -8.9543,-20 -20,-20 l -30,0 c -11.0457,0 -20,-8.95431 -20,-20 0,-11.0457 8.9543,-20 20,-20 l 10,0 c 11.04569,0 20,-8.95428 20,-20 0,-11.0457 -8.95431,-20 -20,-20 l -110,0 c -11.04569,0 -20,-8.95431 -20,-20 0,-11.04569 8.95431,-20 20,-20 l 10,0 c 11.04569,0 20,-8.95428 20,-20 0,-11.04569 -8.95431,-20 -20,-20 -11.04569,0 -20,-8.95431 -20,-20 0,-11.04569 8.95431,-20 20,-20 l 30,0 c 11.04569,0 20,-8.95429 20,-20 0,-11.0457 -8.95431,-20 -20,-20 l -45,0 c -11.0457,0 -20,-8.95431 -20,-20 0,-11.04569 8.9543,-20 20,-20 l 40,0 c 11.04569,0 20,-8.95428 20,-20 0,-11.0457 -8.95431,-20 -20,-20 l -100,0 c -11.04569,0 -20,-8.95431 -20,-20 0,-11.04569 8.95431,-20 20,-20 l 5,0 c 11.04569,0 20,-8.95428 20,-20 0,-11.0457 -8.95431,-20 -20,-20 l -20,0 c -11.04569,0 -20,-8.9543 -20,-20 0,-11.04569 8.95431,-20 20,-20 l 75,0 c 11.04569,0 20,-8.95428 20,-20 0,-11.0457 -8.95431,-20 -20,-20 l -35,0 c -11.04569,0 -20,-8.95431 -20,-20 0,-11.0457 8.95431,-20 20,-20 11.0457,0 20,-8.95428 20,-20 0,-11.0457 -8.9543,-20 -20,-20 l -30,0 c -11.0457,0 -20,-8.95431 -20,-20 0,-11.0457 8.9543,-20 20,-20 l 50,0 c 11.04569,0 20,-8.95428 20,-20 0,-11.0457 -8.95431,-20 -20,-20 l -30,0 c -11.04569,0 -20,-8.95431 -20,-20 0,-11.04569 8.95431,-20 20,-20 l 40,0 c 11.04569,0 20,-8.95428 20,-20 0,-11.04569 -8.95431,-20 -20,-20 -11.04569,0 -20,-8.95431 -20,-20 0,-11.04569 8.95431,-20 20,-20 l 30,0 c 11.04569,0 20,-8.95429 20,-20 0,-11.0457 -8.95431,-20 -20,-20 l -15,0 c -11.0457,0 -20,-8.95431 -20,-20 0,-11.04569 8.9543,-20 20,-20 l 5,0 c 11.04569,0 20,-8.9543 20,-20 C 280,8.9543 271.04569,0 260,0 Z"
     id="path4827" />
  <path
     style="color:#000000;display:inline;overflow:visible;visibility:visible;opacity:1;fill:#681e2d;fill-opacity:1;fill-rule:evenodd;stroke:none;stroke-width:4;stroke-linecap:butt;stroke-linejoin:miter;stroke-miterlimit:4;stroke-dasharray:none;stroke-dashoffset:0;stroke-opacity:1;marker:none;enable-background:accumulate"
     d="m 60.000014,899.99995 0,111.21955 58.536586,-29.26833 40.97561,20.48783 81.95122,-40.97563 0,58.53663 35.12195,17.5609 23.41464,-11.7073 0,-125.85365 z m 146.341466,87.80488 -5.85366,2.92683 0,55.60974 -35.12195,17.561 0,-55.6098 -5.85366,2.9269 0,55.6097 -35.12195,17.561 0,-58.5366 -40.975612,-20.4878 -23.414634,11.7073 0,122.9269 240.000006,0 0,-108.2927 -58.53659,29.2683 -35.12195,-17.561 z"
     id="rect4159"
     inkscape:connector-curvature="0" />
</svg>
