<?xml version="1.0" encoding="UTF-8" standalone="no"?>
<svg
   xmlns:dc="http://purl.org/dc/elements/1.1/"
   xmlns:cc="http://creativecommons.org/ns#"
   xmlns:rdf="http://www.w3.org/1999/02/22-rdf-syntax-ns#"
   xmlns:svg="http://www.w3.org/2000/svg"
   xmlns="http://www.w3.org/2000/svg"
   width="1600"
   height="1200"
   viewBox="0 0 1600 1200"
   id="svg2"
   version="1.1">
  <defs
     id="defs4" />
  <metadata
     id="metadata7">
    <rdf:RDF>
      <cc:Work
         rdf:about="">
        <dc:format>image/svg+xml</dc:format>
        <dc:type
           rdf:resource="http://purl.org/dc/dcmitype/StillImage" />
        <dc:title />
      </cc:Work>
    </rdf:RDF>
  </metadata>
  <path
     id="rect4535"
     d="M 1600,1e-5 0,1e-5 0,1200 l 1600,0 z"
     style="color:#000000;display:inline;overflow:visible;visibility:visible;opacity:1;fill:#2b3233;fill-opacity:1;fill-rule:evenodd;stroke:none;stroke-width:9;stroke-linecap:butt;stroke-linejoin:round;stroke-miterlimit:4;stroke-dasharray:none;stroke-dashoffset:0;stroke-opacity:1;marker:none;enable-background:accumulate" />
  <path
     id="path4827"
     d="m 0,0 0,1200 440,0 c -11.0457,0 -20,-8.9543 -20,-20 0,-11.0457 8.9543,-20 20,-20 l 15,0 c 11.04569,0 20,-8.9542 20,-20 0,-11.0457 -8.95431,-20 -20,-20 l -70,0 c -11.04569,0 -20,-8.9543 -20,-20 0,-11.0457 8.95431,-20 20,-20 l 5,0 c 11.04569,0 20,-8.9543 20,-20 0,-11.0457 -8.95431,-20 -20,-20 l -20,0 c -11.04569,0 -20,-8.9543 -20,-20 0,-11.0457 8.95431,-20 20,-20 l 45,0 c 11.04569,0 20,-8.95428 20,-20 0,-11.0457 -8.95431,-20 -20,-20 l -35,0 c -11.04569,0 -20,-8.95431 -20,-20 0,-11.0457 8.95431,-20 20,-20 11.0457,0 20,-8.95428 20,-20 0,-11.0457 -8.9543,-20 -20,-20 l -30,0 c -11.0457,0 -20,-8.95431 -20,-20 0,-11.0457 8.9543,-20 20,-20 l 10,0 c 11.04569,0 20,-8.95428 20,-20 0,-11.0457 -8.95431,-20 -20,-20 l -90,0 c -11.04569,0 -20,-8.95431 -20,-20 0,-11.04569 20,-20 20,-20 l 10,0 c 0,0 20,-8.95428 20,-20 0,-11.04569 -8.95431,-20 -20,-20 -11.04569,0 -20,-8.95431 -20,-20 0,-11.04569 8.95431,-20 20,-20 l 30,0 c 11.04569,0 20,-8.95429 20,-20 0,-11.0457 -8.95431,-20 -20,-20 l -45,0 c -11.0457,0 -20,-8.95431 -20,-20 0,-11.04569 8.9543,-20 20,-20 l 40,0 c 11.04569,0 20,-8.95428 20,-20 0,-11.0457 -8.95431,-20 -20,-20 l -100,0 c -11.04569,0 -20,-8.95431 -20,-20 0,-11.04569 8.95431,-20 20,-20 l 5,0 c 11.04569,0 20,-8.95428 20,-20 0,-11.0457 -8.95431,-20 -20,-20 l -20,0 c -11.04569,0 -20,-8.9543 -20,-20 0,-11.04569 8.95431,-20 20,-20 l 75,0 c 11.04569,0 20,-8.95428 20,-20 0,-11.0457 -8.95431,-20 -20,-20 l -35,0 c -11.04569,0 -20,-8.95431 -20,-20 0,-11.0457 8.95431,-20 20,-20 11.0457,0 20,-8.95428 20,-20 0,-11.0457 -8.9543,-20 -20,-20 l -30,0 c -11.0457,0 -20,-8.95431 -20,-20 0,-11.0457 8.9543,-20 20,-20 l 50,0 c 11.04569,0 20,-8.95428 20,-20 0,-11.0457 -8.95431,-20 -20,-20 l -30,0 c -11.04569,0 -20,-8.95431 -20,-20 0,-11.04569 8.95431,-20 20,-20 l 40,0 c 11.04569,0 20,-8.95428 20,-20 0,-11.04569 -8.95431,-20 -20,-20 -11.04569,0 -20,-8.95431 -20,-20 0,-11.04569 8.95431,-20 20,-20 l 30,0 c 11.04569,0 20,-8.95429 20,-20 0,-11.0457 -8.95431,-20 -20,-20 l -15,0 c -11.0457,0 -20,-8.95431 -20,-20 0,-11.04569 8.9543,-20 20,-20 l 5,0 c 11.04569,0 20,-8.9543 20,-20 C 300,8.9543 291.04569,0 280,0 Z"
     style="color:#000000;display:inline;overflow:visible;visibility:visible;opacity:1;fill:#aa243b;fill-opacity:1;fill-rule:evenodd;stroke:none;stroke-width:9;stroke-linecap:butt;stroke-linejoin:round;stroke-miterlimit:4;stroke-dasharray:none;stroke-dashoffset:0;stroke-opacity:1;marker:none;enable-background:accumulate" />
  <path
     id="rect4159"
     d="m 60.000014,899.99995 0,111.21955 58.536586,-29.26833 40.97561,20.48783 81.95122,-40.97563 0,58.53663 35.12195,17.5609 23.41464,-11.7073 0,-125.85365 z m 146.341466,87.80488 -5.85366,2.92683 0,55.60974 -35.12195,17.561 0,-55.6098 -5.85366,2.9269 0,55.6097 -35.12195,17.561 0,-58.5366 -40.975612,-20.4878 -23.414634,11.7073 0,122.9269 240.000006,0 0,-108.2927 -58.53659,29.2683 -35.12195,-17.561 z"
     style="color:#000000;display:inline;overflow:visible;visibility:visible;opacity:1;fill:#681e2d;fill-opacity:1;fill-rule:evenodd;stroke:none;stroke-width:4;stroke-linecap:butt;stroke-linejoin:miter;stroke-miterlimit:4;stroke-dasharray:none;stroke-dashoffset:0;stroke-opacity:1;marker:none;enable-background:accumulate" />
  <path
     d="m 61.799997,357.99053 63.900003,0 0,4.59 -30.600003,0 0,40.32 30.600003,0 0,4.59 -63.900003,0 0,-4.59 29.16,0 0,-40.32 -29.16,0 0,-4.59 z"
     style="font-style:normal;font-variant:normal;font-weight:300;font-stretch:normal;font-size:90px;line-height:125%;font-family:Raleway;-inkscape-font-specification:'Raleway Light';text-align:end;letter-spacing:0px;word-spacing:0px;text-anchor:end;fill:#681e2d;fill-opacity:1;stroke:none;stroke-width:1px;stroke-linecap:butt;stroke-linejoin:miter;stroke-opacity:1"
     id="path3370" />
  <path
     d="m 126.6,323.70184 q 0,4.95 -1.89,9.18 -1.98,4.14 -5.31,7.2 -3.33,3.06 -7.74,4.77 -4.41,1.71 -9.27,1.71 -4.950003,0 -9.360003,-1.71 -4.41,-1.8 -7.74,-4.86 -3.33,-3.06 -5.22,-7.2 -1.98,-4.23 -1.98,-9.09 0,-4.86 1.98,-9 1.89,-4.14 5.22,-7.2 3.33,-3.15 7.74,-4.86 4.41,-1.8 9.360003,-1.8 4.86,0 9.27,1.8 4.41,1.71 7.74,4.77 3.33,3.06 5.31,7.29 1.89,4.14 1.89,9 z m -24.03,18.36 q 4.14,0 7.83,-1.44 3.6,-1.44 6.3,-3.87 2.7,-2.52 4.32,-5.85 1.53,-3.33 1.53,-7.11 0,-3.78 -1.53,-7.11 -1.62,-3.33 -4.41,-5.85 -2.79,-2.52 -6.39,-3.96 -3.69,-1.44 -7.92,-1.44 -4.140003,0 -7.740003,1.44 -3.69,1.44 -6.39,3.96 -2.79,2.52 -4.41,5.85 -1.62,3.24 -1.62,7.02 0,3.78 1.62,7.11 1.62,3.33 4.41,5.85 2.79,2.43 6.57,3.96 3.69,1.44 7.830003,1.44 z"
     style="font-style:normal;font-variant:normal;font-weight:300;font-stretch:normal;font-size:90px;line-height:125%;font-family:Raleway;-inkscape-font-specification:'Raleway Light';text-align:end;letter-spacing:0px;word-spacing:0px;text-anchor:end;fill:#681e2d;fill-opacity:1;stroke:none;stroke-width:1px;stroke-linecap:butt;stroke-linejoin:miter;stroke-opacity:1"
     id="path3372" />
  <path
     d="m 126.6,268.1709 q 0,5.49 -2.88,10.26 -2.88,4.77 -7.38,7.47 l 9.36,0 0,4.14 -65.700003,0 0,-4.5 29.07,0 q -4.86,-3.33 -7.92,-7.83 -3.06,-4.59 -3.06,-10.53 0,-4.95 2.16,-8.91 2.07,-4.05 5.58,-6.75 3.42,-2.79 7.83,-4.23 4.32,-1.53 8.820003,-1.53 4.86,0 9.27,1.71 4.32,1.71 7.65,4.77 3.24,2.97 5.22,7.11 1.98,4.05 1.98,8.82 z m -4.05,0.9 q 0,-4.14 -1.71,-7.56 -1.71,-3.42 -4.5,-5.85 -2.88,-2.52 -6.48,-3.87 -3.6,-1.44 -7.38,-1.44 -3.960003,0 -7.560003,1.35 -3.69,1.26 -6.48,3.69 -2.88,2.34 -4.59,5.67 -1.71,3.24 -1.71,7.2 0,2.97 1.08,5.58 0.99,2.61 2.7,4.86 1.71,2.16 3.96,3.96 2.25,1.71 4.68,2.88 l 15.480003,0 q 2.61,-0.27 4.95,-1.98 2.25,-1.71 3.96,-4.05 1.62,-2.43 2.61,-5.22 0.99,-2.79 0.99,-5.22 z"
     style="font-style:normal;font-variant:normal;font-weight:300;font-stretch:normal;font-size:90px;line-height:125%;font-family:Raleway;-inkscape-font-specification:'Raleway Light';text-align:end;letter-spacing:0px;word-spacing:0px;text-anchor:end;fill:#681e2d;fill-opacity:1;stroke:none;stroke-width:1px;stroke-linecap:butt;stroke-linejoin:miter;stroke-opacity:1"
     id="path3374" />
  <path
     d="m 126.6,213.09095 q 0,5.49 -2.88,10.26 -2.88,4.77 -7.38,7.47 l 9.36,0 0,4.14 -65.700003,0 0,-4.5 29.07,0 q -4.86,-3.33 -7.92,-7.83 -3.06,-4.59 -3.06,-10.53 0,-4.95 2.16,-8.91 2.07,-4.05 5.58,-6.75 3.42,-2.79 7.83,-4.23 4.32,-1.53 8.820003,-1.53 4.86,0 9.27,1.71 4.32,1.71 7.65,4.77 3.24,2.97 5.22,7.11 1.98,4.05 1.98,8.82 z m -4.05,0.9 q 0,-4.14 -1.71,-7.56 -1.71,-3.42 -4.5,-5.85 -2.88,-2.52 -6.48,-3.87 -3.6,-1.44 -7.38,-1.44 -3.960003,0 -7.560003,1.35 -3.69,1.26 -6.48,3.69 -2.88,2.34 -4.59,5.67 -1.71,3.24 -1.71,7.2 0,2.97 1.08,5.58 0.99,2.61 2.7,4.86 1.71,2.16 3.96,3.96 2.25,1.71 4.68,2.88 l 15.480003,0 q 2.61,-0.27 4.95,-1.98 2.25,-1.71 3.96,-4.05 1.62,-2.43 2.61,-5.22 0.99,-2.79 0.99,-5.22 z"
     style="font-style:normal;font-variant:normal;font-weight:300;font-stretch:normal;font-size:90px;line-height:125%;font-family:Raleway;-inkscape-font-specification:'Raleway Light';text-align:end;letter-spacing:0px;word-spacing:0px;text-anchor:end;fill:#681e2d;fill-opacity:1;stroke:none;stroke-width:1px;stroke-linecap:butt;stroke-linejoin:miter;stroke-opacity:1"
     id="path3376" />
  <path
     d="m 125.7,179.88099 -46.800003,0 0,-4.5 46.800003,0 0,4.5 z m -57.420003,0 -8.28,0 0,-4.5 8.28,0 0,4.5 z"
     style="font-style:normal;font-variant:normal;font-weight:300;font-stretch:normal;font-size:90px;line-height:125%;font-family:Raleway;-inkscape-font-specification:'Raleway Light';text-align:end;letter-spacing:0px;word-spacing:0px;text-anchor:end;fill:#681e2d;fill-opacity:1;stroke:none;stroke-width:1px;stroke-linecap:butt;stroke-linejoin:miter;stroke-opacity:1"
     id="path3378" />
  <path
     d="m 126.6,141.36093 q 0,4.95 -1.89,9.18 -1.98,4.23 -5.31,7.38 -3.42,3.06 -7.83,4.86 -4.41,1.71 -9.45,1.71 -4.950003,0 -9.270003,-1.71 -4.41,-1.8 -7.65,-4.86 -3.33,-3.06 -5.22,-7.2 -1.89,-4.23 -1.89,-9.09 0,-4.95 1.98,-9.18 1.89,-4.23 5.22,-7.29 3.24,-3.06 7.65,-4.77 4.32,-1.71 9.180003,-1.71 0.45,0 1.17,0 0.63,0 0.81,0.09 l 0,41.04 q 4.05,-0.27 7.56,-1.89 3.42,-1.62 5.94,-4.05 2.52,-2.52 3.96,-5.76 1.44,-3.24 1.44,-6.93 0,-2.43 -0.63,-4.77 -0.72,-2.34 -1.89,-4.32 -1.17,-2.07 -2.79,-3.6 -1.71,-1.62 -3.69,-2.52 l 1.08,-3.96 q 2.52,0.99 4.68,2.97 2.07,1.89 3.6,4.5 1.53,2.52 2.34,5.58 0.9,3.06 0.9,6.3 z m -26.1,-18.36 q -4.140003,0.27 -7.560003,1.89 -3.42,1.53 -5.85,4.05 -2.52,2.43 -3.87,5.67 -1.44,3.24 -1.44,6.93 0,3.69 1.44,6.93 1.35,3.24 3.87,5.76 2.43,2.43 5.94,3.96 3.42,1.44 7.470003,1.71 l 0,-36.9 z"
     style="font-style:normal;font-variant:normal;font-weight:300;font-stretch:normal;font-size:90px;line-height:125%;font-family:Raleway;-inkscape-font-specification:'Raleway Light';text-align:end;letter-spacing:0px;word-spacing:0px;text-anchor:end;fill:#681e2d;fill-opacity:1;stroke:none;stroke-width:1px;stroke-linecap:butt;stroke-linejoin:miter;stroke-opacity:1"
     id="path3380" />
  <path
     d="m 126.6,93.930224 q 0,5.4 -1.8,10.349996 -1.8,4.95 -5.4,8.64 l -3.06,-2.25 q 3.42,-3.78 5.04,-7.83 1.62,-4.049996 1.62,-8.909996 0,-6.12 -2.52,-9.81 -2.61,-3.78 -7.2,-3.78 -2.16,0 -3.6,0.99 -1.53,0.9 -2.52,2.79 -1.08,1.89 -1.89,4.68 -0.81,2.79 -1.71,6.48 -0.9,3.96 -1.8,6.929996 -0.9,2.88 -2.160003,4.77 -1.26,1.89 -3.06,2.88 -1.8,0.9 -4.59,0.9 -3.51,0 -6.12,-1.35 -2.61,-1.35 -4.32,-3.69 -1.71,-2.43 -2.52,-5.49 -0.9,-3.149996 -0.9,-6.659996 0,-5.49 1.89,-9.72 1.8,-4.23 4.68,-6.57 l 2.43,2.52 q -2.7,2.34 -4.05,6.12 -1.35,3.69 -1.35,7.92 0,2.61 0.54,4.95 0.54,2.249996 1.71,3.959996 1.17,1.71 3.06,2.7 1.8,0.99 4.32,0.99 2.07,0 3.33,-0.63 1.26,-0.72 2.16,-2.16 0.9,-1.53 1.62,-3.869996 0.63,-2.34 1.44,-5.58 1.080003,-4.41 2.070003,-7.83 0.99,-3.42 2.43,-5.67 1.44,-2.34 3.42,-3.51 1.98,-1.26 5.04,-1.26 6.3,0 10.08,4.95 3.69,4.86 3.69,13.05 z"
     style="font-style:normal;font-variant:normal;font-weight:300;font-stretch:normal;font-size:90px;line-height:125%;font-family:Raleway;-inkscape-font-specification:'Raleway Light';text-align:end;letter-spacing:0px;word-spacing:0px;text-anchor:end;fill:#681e2d;fill-opacity:1;stroke:none;stroke-width:1px;stroke-linecap:butt;stroke-linejoin:miter;stroke-opacity:1"
     id="path3382" />
  <path
     d="m 125.7,66.481345 -7.65,0 0,-3.96 7.65,0 0,3.96 z"
     style="font-style:normal;font-variant:normal;font-weight:300;font-stretch:normal;font-size:90px;line-height:125%;font-family:Raleway;-inkscape-font-specification:'Raleway Light';text-align:end;letter-spacing:0px;word-spacing:0px;text-anchor:end;fill:#681e2d;fill-opacity:1;stroke:none;stroke-width:1px;stroke-linecap:butt;stroke-linejoin:miter;stroke-opacity:1"
     id="path3384" />
  <path
     id="path5505"
     d="M 1560.0001,600.00002 A 179.99999,179.99999 0 0 1 1380,780.00001 179.99999,179.99999 0 0 1 1200,600.00002 179.99999,179.99999 0 0 1 1380,420.00001 179.99999,179.99999 0 0 1 1560.0001,600.00002 Z"
     style="color:#000000;display:inline;overflow:visible;visibility:visible;opacity:1;fill:#e1e1e1;fill-opacity:1;fill-rule:evenodd;stroke:none;stroke-width:2.00500011;stroke-linecap:butt;stroke-linejoin:round;stroke-miterlimit:4;stroke-dasharray:none;stroke-dashoffset:0;stroke-opacity:1;marker:none;enable-background:accumulate" />
  <path
     id="rect5679"
     d="m 1380,419.99999 220,0 0,360.00002 -220,0 z"
     style="color:#000000;display:inline;overflow:visible;visibility:visible;opacity:1;fill:#e1e1e1;fill-opacity:1;fill-rule:evenodd;stroke:none;stroke-width:2.00500011;stroke-linecap:butt;stroke-linejoin:round;stroke-miterlimit:4;stroke-dasharray:none;stroke-dashoffset:0;stroke-opacity:1;marker:none;enable-background:accumulate" />
  <path
     d="m 533.92,449.25001 -21.24,31.95 -3.465,0 21.24,-31.95 3.465,0 z"
     style="font-style:normal;font-variant:normal;font-weight:normal;font-stretch:normal;font-size:45px;line-height:150%;font-family:Raleway;-inkscape-font-specification:Raleway;letter-spacing:0px;word-spacing:0px;fill:#e1e1e1;fill-opacity:1;stroke:none;stroke-width:1px;stroke-linecap:butt;stroke-linejoin:miter;stroke-opacity:1"
     id="path3387" />
  <path
     d="m 549.98519,449.25001 -21.24,31.95 -3.465,0 21.24,-31.95 3.465,0 z"
     style="font-style:normal;font-variant:normal;font-weight:normal;font-stretch:normal;font-size:45px;line-height:150%;font-family:Raleway;-inkscape-font-specification:Raleway;letter-spacing:0px;word-spacing:0px;fill:#e1e1e1;fill-opacity:1;stroke:none;stroke-width:1px;stroke-linecap:butt;stroke-linejoin:miter;stroke-opacity:1"
     id="path3389" />
  <path
     d="m 590.75558,472.96501 q 0,1.8 -0.72,3.33 -0.72,1.485 -1.935,2.61 -1.215,1.08 -2.835,1.71 -1.62,0.585 -3.465,0.585 l -15.075,0 0,-31.95 15.39,0 q 1.665,0 3.015,0.72 1.35,0.72 2.295,1.89 0.945,1.125 1.44,2.61 0.54,1.44 0.54,2.925 0,2.43 -1.215,4.455 -1.215,1.98 -3.375,2.97 2.745,0.81 4.32,3.015 1.62,2.205 1.62,5.13 z m -3.15,-0.54 q 0,-1.17 -0.405,-2.25 -0.405,-1.125 -1.17,-1.935 -0.72,-0.855 -1.755,-1.35 -0.99,-0.54 -2.16,-0.54 l -12.24,0 0,12.105 11.925,0 q 1.215,0 2.25,-0.495 1.08,-0.495 1.845,-1.305 0.81,-0.855 1.26,-1.935 0.45,-1.125 0.45,-2.295 z m -17.73,-20.43 0,11.79 10.98,0 q 1.17,0 2.16,-0.495 1.035,-0.495 1.755,-1.305 0.72,-0.81 1.125,-1.845 0.405,-1.08 0.405,-2.25 0,-1.215 -0.405,-2.295 -0.36,-1.08 -1.08,-1.845 -0.675,-0.81 -1.62,-1.26 -0.945,-0.495 -2.07,-0.495 l -11.25,0 z"
     style="font-style:normal;font-variant:normal;font-weight:normal;font-stretch:normal;font-size:45px;line-height:150%;font-family:Raleway;-inkscape-font-specification:Raleway;letter-spacing:0px;word-spacing:0px;fill:#e1e1e1;fill-opacity:1;stroke:none;stroke-width:1px;stroke-linecap:butt;stroke-linejoin:miter;stroke-opacity:1"
     id="path3391" />
  <path
     d="m 601.95991,481.65001 q -1.665,0 -3.105,-0.54 -1.395,-0.585 -2.475,-1.575 -1.035,-0.99 -1.62,-2.295 -0.585,-1.35 -0.585,-2.88 0,-1.53 0.72,-2.835 0.72,-1.305 2.025,-2.25 1.305,-0.945 3.105,-1.44 1.8,-0.54 3.96,-0.54 1.8,0 3.645,0.315 1.845,0.315 3.285,0.9 l 0,-2.115 q 0,-3.105 -1.755,-4.905 -1.755,-1.845 -4.86,-1.845 -1.8,0 -3.69,0.72 -1.89,0.72 -3.825,2.07 l -1.08,-2.025 q 4.545,-3.06 8.82,-3.06 4.41,0 6.93,2.475 2.52,2.475 2.52,6.84 l 0,10.575 q 0,1.26 1.125,1.26 l 0,2.7 q -0.765,0.135 -1.17,0.135 -1.17,0 -1.845,-0.585 -0.63,-0.585 -0.675,-1.62 l -0.09,-1.845 q -1.62,2.115 -4.095,3.24 -2.43,1.125 -5.265,1.125 z m 0.72,-2.34 q 2.385,0 4.365,-0.9 2.025,-0.9 3.06,-2.385 0.405,-0.405 0.585,-0.855 0.225,-0.495 0.225,-0.9 l 0,-3.825 q -1.53,-0.585 -3.195,-0.9 -1.62,-0.315 -3.33,-0.315 -3.24,0 -5.265,1.35 -2.025,1.35 -2.025,3.555 0,1.08 0.405,2.025 0.45,0.945 1.17,1.665 0.765,0.675 1.8,1.08 1.035,0.405 2.205,0.405 z"
     style="font-style:normal;font-variant:normal;font-weight:normal;font-stretch:normal;font-size:45px;line-height:150%;font-family:Raleway;-inkscape-font-specification:Raleway;letter-spacing:0px;word-spacing:0px;fill:#e1e1e1;fill-opacity:1;stroke:none;stroke-width:1px;stroke-linecap:butt;stroke-linejoin:miter;stroke-opacity:1"
     id="path3393" />
  <path
     d="m 631.66053,480.07501 q -0.27,0.135 -0.81,0.36 -0.495,0.225 -1.17,0.45 -0.675,0.225 -1.53,0.405 -0.855,0.18 -1.8,0.18 -0.99,0 -1.89,-0.27 -0.9,-0.27 -1.575,-0.81 -0.675,-0.585 -1.08,-1.44 -0.405,-0.855 -0.405,-1.98 l 0,-16.785 -3.24,0 0,-2.43 3.24,0 0,-7.92 3.06,0 0,7.92 5.4,0 0,2.43 -5.4,0 0,15.93 q 0.09,1.305 0.9,1.935 0.855,0.585 1.935,0.585 1.305,0 2.295,-0.405 0.99,-0.45 1.26,-0.63 l 0.81,2.475 z"
     style="font-style:normal;font-variant:normal;font-weight:normal;font-stretch:normal;font-size:45px;line-height:150%;font-family:Raleway;-inkscape-font-specification:Raleway;letter-spacing:0px;word-spacing:0px;fill:#e1e1e1;fill-opacity:1;stroke:none;stroke-width:1px;stroke-linecap:butt;stroke-linejoin:miter;stroke-opacity:1"
     id="path3395" />
  <path
     d="m 645.02521,481.65001 q -2.565,0 -4.725,-0.945 -2.115,-0.99 -3.69,-2.655 -1.575,-1.71 -2.475,-3.915 -0.855,-2.205 -0.855,-4.725 0,-2.475 0.855,-4.635 0.9,-2.205 2.43,-3.825 1.575,-1.665 3.735,-2.61 2.16,-0.99 4.68,-0.99 2.565,0 4.68,0.99 2.16,0.945 3.69,2.61 1.53,1.665 2.385,3.825 0.855,2.16 0.855,4.59 0,0.36 0,0.72 0,0.36 -0.045,0.495 l -20.07,0 q 0.135,1.89 0.855,3.51 0.765,1.575 1.935,2.745 1.17,1.17 2.655,1.845 1.53,0.63 3.24,0.63 1.125,0 2.25,-0.315 1.125,-0.315 2.07,-0.855 0.945,-0.54 1.71,-1.305 0.765,-0.81 1.17,-1.755 l 2.655,0.72 q -0.54,1.305 -1.53,2.385 -0.99,1.035 -2.295,1.845 -1.305,0.765 -2.88,1.17 -1.575,0.45 -3.285,0.45 z m 8.64,-13.41 q -0.135,-1.89 -0.9,-3.42 -0.72,-1.575 -1.89,-2.7 -1.125,-1.125 -2.655,-1.755 -1.485,-0.63 -3.195,-0.63 -1.71,0 -3.24,0.63 -1.53,0.63 -2.7,1.755 -1.125,1.125 -1.845,2.7 -0.675,1.575 -0.81,3.42 l 17.235,0 z"
     style="font-style:normal;font-variant:normal;font-weight:normal;font-stretch:normal;font-size:45px;line-height:150%;font-family:Raleway;-inkscape-font-specification:Raleway;letter-spacing:0px;word-spacing:0px;fill:#e1e1e1;fill-opacity:1;stroke:none;stroke-width:1px;stroke-linecap:butt;stroke-linejoin:miter;stroke-opacity:1"
     id="path3397" />
  <path
     d="m 673.01546,460.45501 q -3.105,0.09 -5.4,1.71 -2.295,1.62 -3.24,4.455 l 0,14.58 -3.06,0 0,-23.445 2.88,0 0,5.625 q 1.305,-2.7 3.51,-4.23 2.205,-1.53 4.725,-1.53 0.36,0 0.585,0.045 l 0,2.79 z"
     style="font-style:normal;font-variant:normal;font-weight:normal;font-stretch:normal;font-size:45px;line-height:150%;font-family:Raleway;-inkscape-font-specification:Raleway;letter-spacing:0px;word-spacing:0px;fill:#e1e1e1;fill-opacity:1;stroke:none;stroke-width:1px;stroke-linecap:butt;stroke-linejoin:miter;stroke-opacity:1"
     id="path3399" />
  <path
     d="m 678.91105,453.30001 -2.025,-0.765 2.655,-4.185 3.24,0 -3.87,4.95 z m -1.8,27.9 0,-23.445 3.06,0 0,23.445 -3.06,0 z"
     style="font-style:normal;font-variant:normal;font-weight:normal;font-stretch:normal;font-size:45px;line-height:150%;font-family:Raleway;-inkscape-font-specification:Raleway;letter-spacing:0px;word-spacing:0px;fill:#e1e1e1;fill-opacity:1;stroke:none;stroke-width:1px;stroke-linecap:butt;stroke-linejoin:miter;stroke-opacity:1"
     id="path3401" />
  <path
     d="m 692.81547,481.65001 q -1.665,0 -3.105,-0.54 -1.395,-0.585 -2.475,-1.575 -1.035,-0.99 -1.62,-2.295 -0.585,-1.35 -0.585,-2.88 0,-1.53 0.72,-2.835 0.72,-1.305 2.025,-2.25 1.305,-0.945 3.105,-1.44 1.8,-0.54 3.96,-0.54 1.8,0 3.645,0.315 1.845,0.315 3.285,0.9 l 0,-2.115 q 0,-3.105 -1.755,-4.905 -1.755,-1.845 -4.86,-1.845 -1.8,0 -3.69,0.72 -1.89,0.72 -3.825,2.07 l -1.08,-2.025 q 4.545,-3.06 8.82,-3.06 4.41,0 6.93,2.475 2.52,2.475 2.52,6.84 l 0,10.575 q 0,1.26 1.125,1.26 l 0,2.7 q -0.765,0.135 -1.17,0.135 -1.17,0 -1.845,-0.585 -0.63,-0.585 -0.675,-1.62 l -0.09,-1.845 q -1.62,2.115 -4.095,3.24 -2.43,1.125 -5.265,1.125 z m 0.72,-2.34 q 2.385,0 4.365,-0.9 2.025,-0.9 3.06,-2.385 0.405,-0.405 0.585,-0.855 0.225,-0.495 0.225,-0.9 l 0,-3.825 q -1.53,-0.585 -3.195,-0.9 -1.62,-0.315 -3.33,-0.315 -3.24,0 -5.265,1.35 -2.025,1.35 -2.025,3.555 0,1.08 0.405,2.025 0.45,0.945 1.17,1.665 0.765,0.675 1.8,1.08 1.035,0.405 2.205,0.405 z"
     style="font-style:normal;font-variant:normal;font-weight:normal;font-stretch:normal;font-size:45px;line-height:150%;font-family:Raleway;-inkscape-font-specification:Raleway;letter-spacing:0px;word-spacing:0px;fill:#e1e1e1;fill-opacity:1;stroke:none;stroke-width:1px;stroke-linecap:butt;stroke-linejoin:miter;stroke-opacity:1"
     id="path3403" />
  <path
     d="m 533.92,516.75001 -21.24,31.95 -3.465,0 21.24,-31.95 3.465,0 z"
     style="font-style:normal;font-variant:normal;font-weight:normal;font-stretch:normal;font-size:45px;line-height:150%;font-family:Raleway;-inkscape-font-specification:Raleway;letter-spacing:0px;word-spacing:0px;fill:#e1e1e1;fill-opacity:1;stroke:none;stroke-width:1px;stroke-linecap:butt;stroke-linejoin:miter;stroke-opacity:1"
     id="path3405" />
  <path
     d="m 549.98519,516.75001 -21.24,31.95 -3.465,0 21.24,-31.95 3.465,0 z"
     style="font-style:normal;font-variant:normal;font-weight:normal;font-stretch:normal;font-size:45px;line-height:150%;font-family:Raleway;-inkscape-font-specification:Raleway;letter-spacing:0px;word-spacing:0px;fill:#e1e1e1;fill-opacity:1;stroke:none;stroke-width:1px;stroke-linecap:butt;stroke-linejoin:miter;stroke-opacity:1"
     id="path3407" />
  <path
     d="m 564.61058,532.50001 q 0,-2.88 0.99,-5.715 1.035,-2.88 2.97,-5.13 1.935,-2.25 4.77,-3.645 2.835,-1.44 6.435,-1.44 4.275,0 7.29,1.935 3.06,1.935 4.5,5.04 l -2.475,1.53 q -0.765,-1.575 -1.89,-2.655 -1.08,-1.08 -2.34,-1.755 -1.26,-0.675 -2.61,-0.945 -1.35,-0.315 -2.655,-0.315 -2.88,0 -5.085,1.17 -2.205,1.17 -3.735,3.06 -1.485,1.89 -2.25,4.275 -0.765,2.34 -0.765,4.77 0,2.655 0.9,5.085 0.945,2.43 2.52,4.32 1.62,1.845 3.78,2.97 2.205,1.08 4.77,1.08 1.35,0 2.745,-0.315 1.44,-0.36 2.745,-1.08 1.35,-0.765 2.475,-1.845 1.125,-1.125 1.89,-2.7 l 2.61,1.35 q -0.765,1.8 -2.16,3.195 -1.395,1.35 -3.105,2.295 -1.71,0.945 -3.645,1.44 -1.89,0.495 -3.735,0.495 -3.285,0 -6.03,-1.44 -2.745,-1.44 -4.725,-3.735 -1.98,-2.34 -3.105,-5.265 -1.08,-2.97 -1.08,-6.03 z"
     style="font-style:normal;font-variant:normal;font-weight:normal;font-stretch:normal;font-size:45px;line-height:150%;font-family:Raleway;-inkscape-font-specification:Raleway;letter-spacing:0px;word-spacing:0px;fill:#e1e1e1;fill-opacity:1;stroke:none;stroke-width:1px;stroke-linecap:butt;stroke-linejoin:miter;stroke-opacity:1"
     id="path3409" />
  <path
     d="m 596.96579,548.70001 0,-23.445 3.06,0 0,23.445 -3.06,0 z m 0,-28.35 0,-4.5 3.06,0 0,4.5 -3.06,0 z"
     style="font-style:normal;font-variant:normal;font-weight:normal;font-stretch:normal;font-size:45px;line-height:150%;font-family:Raleway;-inkscape-font-specification:Raleway;letter-spacing:0px;word-spacing:0px;fill:#e1e1e1;fill-opacity:1;stroke:none;stroke-width:1px;stroke-linecap:butt;stroke-linejoin:miter;stroke-opacity:1"
     id="path3411" />
  <path
     d="m 605.15521,536.91001 q 0,-2.475 0.855,-4.68 0.855,-2.205 2.385,-3.825 1.575,-1.665 3.735,-2.61 2.16,-0.945 4.77,-0.945 3.33,0 5.805,1.53 2.475,1.485 3.735,4.05 l -2.97,0.945 q -0.99,-1.8 -2.79,-2.79 -1.755,-1.035 -3.915,-1.035 -1.8,0 -3.375,0.72 -1.53,0.72 -2.7,1.98 -1.125,1.215 -1.8,2.925 -0.63,1.71 -0.63,3.735 0,1.98 0.675,3.735 0.675,1.755 1.845,3.06 1.17,1.26 2.7,2.025 1.575,0.72 3.33,0.72 1.125,0 2.205,-0.315 1.125,-0.315 2.07,-0.855 0.945,-0.585 1.62,-1.305 0.675,-0.72 0.945,-1.53 l 3.015,0.9 q -0.495,1.26 -1.44,2.34 -0.945,1.035 -2.25,1.845 -1.26,0.765 -2.835,1.17 -1.53,0.45 -3.195,0.45 -2.565,0 -4.725,-0.945 -2.16,-0.99 -3.735,-2.655 -1.575,-1.71 -2.475,-3.915 -0.855,-2.205 -0.855,-4.725 z"
     style="font-style:normal;font-variant:normal;font-weight:normal;font-stretch:normal;font-size:45px;line-height:150%;font-family:Raleway;-inkscape-font-specification:Raleway;letter-spacing:0px;word-spacing:0px;fill:#e1e1e1;fill-opacity:1;stroke:none;stroke-width:1px;stroke-linecap:butt;stroke-linejoin:miter;stroke-opacity:1"
     id="path3413" />
  <path
     d="m 631.61571,515.85001 3.06,0 0,27.54 q 0,1.305 0.72,2.07 0.72,0.72 2.025,0.72 0.495,0 1.17,-0.135 0.675,-0.135 1.26,-0.36 l 0.54,2.475 q -0.855,0.36 -2.115,0.585 -1.215,0.225 -2.115,0.225 -2.115,0 -3.33,-1.17 -1.215,-1.215 -1.215,-3.375 l 0,-28.575 z"
     style="font-style:normal;font-variant:normal;font-weight:normal;font-stretch:normal;font-size:45px;line-height:150%;font-family:Raleway;-inkscape-font-specification:Raleway;letter-spacing:0px;word-spacing:0px;fill:#e1e1e1;fill-opacity:1;stroke:none;stroke-width:1px;stroke-linecap:butt;stroke-linejoin:miter;stroke-opacity:1"
     id="path3415" />
  <path
     d="m 643.72086,548.70001 0,-23.445 3.06,0 0,23.445 -3.06,0 z m 0,-28.35 0,-4.5 3.06,0 0,4.5 -3.06,0 z"
     style="font-style:normal;font-variant:normal;font-weight:normal;font-stretch:normal;font-size:45px;line-height:150%;font-family:Raleway;-inkscape-font-specification:Raleway;letter-spacing:0px;word-spacing:0px;fill:#e1e1e1;fill-opacity:1;stroke:none;stroke-width:1px;stroke-linecap:butt;stroke-linejoin:miter;stroke-opacity:1"
     id="path3417" />
  <path
     d="m 661.31527,549.15001 q -2.745,0 -5.355,-0.9 -2.61,-0.9 -4.5,-2.61 l 1.395,-2.07 q 1.98,1.62 4.005,2.43 2.07,0.81 4.41,0.81 2.835,0 4.5,-1.125 1.71,-1.17 1.71,-3.285 0,-0.99 -0.45,-1.62 -0.45,-0.675 -1.35,-1.17 -0.855,-0.495 -2.205,-0.855 -1.305,-0.405 -3.06,-0.81 -2.025,-0.495 -3.51,-0.99 -1.485,-0.495 -2.475,-1.125 -0.945,-0.63 -1.44,-1.53 -0.45,-0.945 -0.45,-2.34 0,-1.755 0.675,-3.105 0.72,-1.35 1.89,-2.205 1.215,-0.9 2.79,-1.35 1.62,-0.45 3.42,-0.45 2.7,0 4.905,0.9 2.205,0.855 3.555,2.295 l -1.485,1.8 q -1.305,-1.35 -3.195,-2.025 -1.845,-0.675 -3.87,-0.675 -1.215,0 -2.25,0.27 -1.035,0.225 -1.845,0.765 -0.765,0.54 -1.215,1.395 -0.45,0.81 -0.45,1.935 0,0.945 0.315,1.53 0.315,0.585 1.035,1.035 0.72,0.405 1.8,0.765 1.125,0.315 2.7,0.675 2.25,0.54 3.96,1.08 1.71,0.54 2.835,1.26 1.17,0.72 1.755,1.755 0.585,1.035 0.585,2.52 0,3.24 -2.475,5.13 -2.475,1.89 -6.66,1.89 z"
     style="font-style:normal;font-variant:normal;font-weight:normal;font-stretch:normal;font-size:45px;line-height:150%;font-family:Raleway;-inkscape-font-specification:Raleway;letter-spacing:0px;word-spacing:0px;fill:#e1e1e1;fill-opacity:1;stroke:none;stroke-width:1px;stroke-linecap:butt;stroke-linejoin:miter;stroke-opacity:1"
     id="path3419" />
  <path
     d="m 710.32025,548.70001 -3.06,0 0,-13.095 q 0,-4.095 -1.305,-6.03 -1.305,-1.935 -3.87,-1.935 -1.35,0 -2.565,0.495 -1.17,0.495 -2.205,1.395 -0.99,0.9 -1.755,2.16 -0.765,1.215 -1.17,2.7 l 0,14.31 -3.06,0 0,-13.095 q 0,-4.185 -1.26,-6.075 -1.26,-1.89 -3.87,-1.89 -2.655,0 -4.725,1.845 -2.07,1.845 -2.97,4.86 l 0,14.355 -3.06,0 0,-23.445 2.79,0 0,5.31 q 1.44,-2.7 3.78,-4.185 2.34,-1.53 5.175,-1.53 2.97,0 4.725,1.665 1.8,1.665 2.205,4.365 3.285,-6.03 9.045,-6.03 1.98,0 3.33,0.72 1.395,0.72 2.205,2.07 0.855,1.305 1.215,3.195 0.405,1.845 0.405,4.14 l 0,13.725 z"
     style="font-style:normal;font-variant:normal;font-weight:normal;font-stretch:normal;font-size:45px;line-height:150%;font-family:Raleway;-inkscape-font-specification:Raleway;letter-spacing:0px;word-spacing:0px;fill:#e1e1e1;fill-opacity:1;stroke:none;stroke-width:1px;stroke-linecap:butt;stroke-linejoin:miter;stroke-opacity:1"
     id="path3421" />
  <path
     d="m 726.79054,549.15001 q -2.565,0 -4.68,-0.945 -2.115,-0.99 -3.69,-2.655 -1.53,-1.665 -2.385,-3.87 -0.855,-2.205 -0.855,-4.635 0,-2.475 0.855,-4.68 0.9,-2.205 2.43,-3.87 1.575,-1.665 3.69,-2.655 2.115,-0.99 4.635,-0.99 2.52,0 4.635,0.99 2.16,0.99 3.69,2.655 1.575,1.665 2.43,3.87 0.9,2.205 0.9,4.68 0,2.43 -0.855,4.635 -0.855,2.205 -2.43,3.87 -1.53,1.665 -3.69,2.655 -2.115,0.945 -4.68,0.945 z m -8.505,-12.06 q 0,1.98 0.675,3.69 0.675,1.665 1.8,2.97 1.17,1.26 2.7,1.98 1.575,0.72 3.33,0.72 1.755,0 3.285,-0.72 1.575,-0.765 2.745,-2.025 1.17,-1.305 1.845,-3.015 0.675,-1.71 0.675,-3.69 0,-1.935 -0.675,-3.645 -0.675,-1.755 -1.845,-3.015 -1.17,-1.305 -2.745,-2.025 -1.53,-0.765 -3.285,-0.765 -1.755,0 -3.285,0.765 -1.53,0.72 -2.7,2.025 -1.17,1.305 -1.845,3.06 -0.675,1.71 -0.675,3.69 z"
     style="font-style:normal;font-variant:normal;font-weight:normal;font-stretch:normal;font-size:45px;line-height:150%;font-family:Raleway;-inkscape-font-specification:Raleway;letter-spacing:0px;word-spacing:0px;fill:#e1e1e1;fill-opacity:1;stroke:none;stroke-width:1px;stroke-linecap:butt;stroke-linejoin:miter;stroke-opacity:1"
     id="path3423" />
  <path
     d="m 533.92,584.25001 -21.24,31.95 -3.465,0 21.24,-31.95 3.465,0 z"
     style="font-style:normal;font-variant:normal;font-weight:normal;font-stretch:normal;font-size:45px;line-height:150%;font-family:Raleway;-inkscape-font-specification:Raleway;letter-spacing:0px;word-spacing:0px;fill:#e1e1e1;fill-opacity:1;stroke:none;stroke-width:1px;stroke-linecap:butt;stroke-linejoin:miter;stroke-opacity:1"
     id="path3425" />
  <path
     d="m 549.98519,584.25001 -21.24,31.95 -3.465,0 21.24,-31.95 3.465,0 z"
     style="font-style:normal;font-variant:normal;font-weight:normal;font-stretch:normal;font-size:45px;line-height:150%;font-family:Raleway;-inkscape-font-specification:Raleway;letter-spacing:0px;word-spacing:0px;fill:#e1e1e1;fill-opacity:1;stroke:none;stroke-width:1px;stroke-linecap:butt;stroke-linejoin:miter;stroke-opacity:1"
     id="path3427" />
  <path
     d="m 588.19058,613.41001 0,2.79 -21.465,0 0,-31.95 21.06,0 0,2.79 -17.91,0 0,11.52 15.615,0 0,2.655 -15.615,0 0,12.195 18.315,0 z"
     style="font-style:normal;font-variant:normal;font-weight:normal;font-stretch:normal;font-size:45px;line-height:150%;font-family:Raleway;-inkscape-font-specification:Raleway;letter-spacing:0px;word-spacing:0px;fill:#e1e1e1;fill-opacity:1;stroke:none;stroke-width:1px;stroke-linecap:butt;stroke-linejoin:miter;stroke-opacity:1"
     id="path3429" />
  <path
     d="m 601.01604,616.65001 q -2.745,0 -5.355,-0.9 -2.61,-0.9 -4.5,-2.61 l 1.395,-2.07 q 1.98,1.62 4.005,2.43 2.07,0.81 4.41,0.81 2.835,0 4.5,-1.125 1.71,-1.17 1.71,-3.285 0,-0.99 -0.45,-1.62 -0.45,-0.675 -1.35,-1.17 -0.855,-0.495 -2.205,-0.855 -1.305,-0.405 -3.06,-0.81 -2.025,-0.495 -3.51,-0.99 -1.485,-0.495 -2.475,-1.125 -0.945,-0.63 -1.44,-1.53 -0.45,-0.945 -0.45,-2.34 0,-1.755 0.675,-3.105 0.72,-1.35 1.89,-2.205 1.215,-0.9 2.79,-1.35 1.62,-0.45 3.42,-0.45 2.7,0 4.905,0.9 2.205,0.855 3.555,2.295 l -1.485,1.8 q -1.305,-1.35 -3.195,-2.025 -1.845,-0.675 -3.87,-0.675 -1.215,0 -2.25,0.27 -1.035,0.225 -1.845,0.765 -0.765,0.54 -1.215,1.395 -0.45,0.81 -0.45,1.935 0,0.945 0.315,1.53 0.315,0.585 1.035,1.035 0.72,0.405 1.8,0.765 1.125,0.315 2.7,0.675 2.25,0.54 3.96,1.08 1.71,0.54 2.835,1.26 1.17,0.72 1.755,1.755 0.585,1.035 0.585,2.52 0,3.24 -2.475,5.13 -2.475,1.89 -6.66,1.89 z"
     style="font-style:normal;font-variant:normal;font-weight:normal;font-stretch:normal;font-size:45px;line-height:150%;font-family:Raleway;-inkscape-font-specification:Raleway;letter-spacing:0px;word-spacing:0px;fill:#e1e1e1;fill-opacity:1;stroke:none;stroke-width:1px;stroke-linecap:butt;stroke-linejoin:miter;stroke-opacity:1"
     id="path3431" />
  <path
     d="m 613.52602,604.41001 q 0,-2.475 0.855,-4.68 0.855,-2.205 2.385,-3.825 1.575,-1.665 3.735,-2.61 2.16,-0.945 4.77,-0.945 3.33,0 5.805,1.53 2.475,1.485 3.735,4.05 l -2.97,0.945 q -0.99,-1.8 -2.79,-2.79 -1.755,-1.035 -3.915,-1.035 -1.8,0 -3.375,0.72 -1.53,0.72 -2.7,1.98 -1.125,1.215 -1.8,2.925 -0.63,1.71 -0.63,3.735 0,1.98 0.675,3.735 0.675,1.755 1.845,3.06 1.17,1.26 2.7,2.025 1.575,0.72 3.33,0.72 1.125,0 2.205,-0.315 1.125,-0.315 2.07,-0.855 0.945,-0.585 1.62,-1.305 0.675,-0.72 0.945,-1.53 l 3.015,0.9 q -0.495,1.26 -1.44,2.34 -0.945,1.035 -2.25,1.845 -1.26,0.765 -2.835,1.17 -1.53,0.45 -3.195,0.45 -2.565,0 -4.725,-0.945 -2.16,-0.99 -3.735,-2.655 -1.575,-1.71 -2.475,-3.915 -0.855,-2.205 -0.855,-4.725 z"
     style="font-style:normal;font-variant:normal;font-weight:normal;font-stretch:normal;font-size:45px;line-height:150%;font-family:Raleway;-inkscape-font-specification:Raleway;letter-spacing:0px;word-spacing:0px;fill:#e1e1e1;fill-opacity:1;stroke:none;stroke-width:1px;stroke-linecap:butt;stroke-linejoin:miter;stroke-opacity:1"
     id="path3433" />
  <path
     d="m 647.18653,616.65001 q -3.825,0 -5.715,-2.52 -1.845,-2.565 -1.845,-7.605 l 0,-13.77 3.06,0 0,13.23 q 0,7.965 5.445,7.965 1.35,0 2.655,-0.45 1.305,-0.45 2.385,-1.305 1.125,-0.855 1.98,-2.025 0.9,-1.17 1.44,-2.655 l 0,-14.76 3.06,0 0,19.485 q 0,1.26 1.08,1.26 l 0,2.7 q -0.54,0.09 -0.9,0.09 -0.315,0 -0.45,0 -1.08,-0.045 -1.755,-0.765 -0.675,-0.72 -0.675,-1.935 l 0,-2.7 q -1.53,2.745 -4.185,4.275 -2.61,1.485 -5.58,1.485 z"
     style="font-style:normal;font-variant:normal;font-weight:normal;font-stretch:normal;font-size:45px;line-height:150%;font-family:Raleway;-inkscape-font-specification:Raleway;letter-spacing:0px;word-spacing:0px;fill:#e1e1e1;fill-opacity:1;stroke:none;stroke-width:1px;stroke-linecap:butt;stroke-linejoin:miter;stroke-opacity:1"
     id="path3435" />
  <path
     d="m 664.96127,604.41001 q 0,-2.475 0.855,-4.68 0.855,-2.205 2.385,-3.825 1.575,-1.665 3.735,-2.61 2.16,-0.945 4.77,-0.945 3.33,0 5.805,1.53 2.475,1.485 3.735,4.05 l -2.97,0.945 q -0.99,-1.8 -2.79,-2.79 -1.755,-1.035 -3.915,-1.035 -1.8,0 -3.375,0.72 -1.53,0.72 -2.7,1.98 -1.125,1.215 -1.8,2.925 -0.63,1.71 -0.63,3.735 0,1.98 0.675,3.735 0.675,1.755 1.845,3.06 1.17,1.26 2.7,2.025 1.575,0.72 3.33,0.72 1.125,0 2.205,-0.315 1.125,-0.315 2.07,-0.855 0.945,-0.585 1.62,-1.305 0.675,-0.72 0.945,-1.53 l 3.015,0.9 q -0.495,1.26 -1.44,2.34 -0.945,1.035 -2.25,1.845 -1.26,0.765 -2.835,1.17 -1.53,0.45 -3.195,0.45 -2.565,0 -4.725,-0.945 -2.16,-0.99 -3.735,-2.655 -1.575,-1.71 -2.475,-3.915 -0.855,-2.205 -0.855,-4.725 z"
     style="font-style:normal;font-variant:normal;font-weight:normal;font-stretch:normal;font-size:45px;line-height:150%;font-family:Raleway;-inkscape-font-specification:Raleway;letter-spacing:0px;word-spacing:0px;fill:#e1e1e1;fill-opacity:1;stroke:none;stroke-width:1px;stroke-linecap:butt;stroke-linejoin:miter;stroke-opacity:1"
     id="path3437" />
  <path
     d="m 710.99677,616.20001 -3.06,0 0,-13.095 q 0,-4.005 -1.395,-5.985 -1.35,-1.98 -4.005,-1.98 -1.305,0 -2.61,0.54 -1.26,0.495 -2.385,1.395 -1.125,0.9 -1.98,2.115 -0.81,1.215 -1.215,2.655 l 0,14.355 -3.06,0 0,-32.85 3.06,0 0,14.715 q 1.395,-2.655 3.87,-4.185 2.475,-1.53 5.355,-1.53 2.025,0 3.42,0.765 1.395,0.72 2.295,2.07 0.9,1.305 1.305,3.195 0.405,1.845 0.405,4.095 l 0,13.725 z"
     style="font-style:normal;font-variant:normal;font-weight:normal;font-stretch:normal;font-size:45px;line-height:150%;font-family:Raleway;-inkscape-font-specification:Raleway;letter-spacing:0px;word-spacing:0px;fill:#e1e1e1;fill-opacity:1;stroke:none;stroke-width:1px;stroke-linecap:butt;stroke-linejoin:miter;stroke-opacity:1"
     id="path3439" />
  <path
     d="m 723.41713,616.65001 q -1.665,0 -3.105,-0.54 -1.395,-0.585 -2.475,-1.575 -1.035,-0.99 -1.62,-2.295 -0.585,-1.35 -0.585,-2.88 0,-1.53 0.72,-2.835 0.72,-1.305 2.025,-2.25 1.305,-0.945 3.105,-1.44 1.8,-0.54 3.96,-0.54 1.8,0 3.645,0.315 1.845,0.315 3.285,0.9 l 0,-2.115 q 0,-3.105 -1.755,-4.905 -1.755,-1.845 -4.86,-1.845 -1.8,0 -3.69,0.72 -1.89,0.72 -3.825,2.07 l -1.08,-2.025 q 4.545,-3.06 8.82,-3.06 4.41,0 6.93,2.475 2.52,2.475 2.52,6.84 l 0,10.575 q 0,1.26 1.125,1.26 l 0,2.7 q -0.765,0.135 -1.17,0.135 -1.17,0 -1.845,-0.585 -0.63,-0.585 -0.675,-1.62 l -0.09,-1.845 q -1.62,2.115 -4.095,3.24 -2.43,1.125 -5.265,1.125 z m 0.72,-2.34 q 2.385,0 4.365,-0.9 2.025,-0.9 3.06,-2.385 0.405,-0.405 0.585,-0.855 0.225,-0.495 0.225,-0.9 l 0,-3.825 q -1.53,-0.585 -3.195,-0.9 -1.62,-0.315 -3.33,-0.315 -3.24,0 -5.265,1.35 -2.025,1.35 -2.025,3.555 0,1.08 0.405,2.025 0.45,0.945 1.17,1.665 0.765,0.675 1.8,1.08 1.035,0.405 2.205,0.405 z"
     style="font-style:normal;font-variant:normal;font-weight:normal;font-stretch:normal;font-size:45px;line-height:150%;font-family:Raleway;-inkscape-font-specification:Raleway;letter-spacing:0px;word-spacing:0px;fill:#e1e1e1;fill-opacity:1;stroke:none;stroke-width:1px;stroke-linecap:butt;stroke-linejoin:miter;stroke-opacity:1"
     id="path3441" />
  <path
     d="m 753.74773,595.45501 q -3.105,0.09 -5.4,1.71 -2.295,1.62 -3.24,4.455 l 0,14.58 -3.06,0 0,-23.445 2.88,0 0,5.625 q 1.305,-2.7 3.51,-4.23 2.205,-1.53 4.725,-1.53 0.36,0 0.585,0.045 l 0,2.79 z"
     style="font-style:normal;font-variant:normal;font-weight:normal;font-stretch:normal;font-size:45px;line-height:150%;font-family:Raleway;-inkscape-font-specification:Raleway;letter-spacing:0px;word-spacing:0px;fill:#e1e1e1;fill-opacity:1;stroke:none;stroke-width:1px;stroke-linecap:butt;stroke-linejoin:miter;stroke-opacity:1"
     id="path3443" />
  <path
     d="m 803.11362,616.20001 -3.06,0 0,-13.095 q 0,-4.095 -1.305,-6.03 -1.305,-1.935 -3.87,-1.935 -1.35,0 -2.565,0.495 -1.17,0.495 -2.205,1.395 -0.99,0.9 -1.755,2.16 -0.765,1.215 -1.17,2.7 l 0,14.31 -3.06,0 0,-13.095 q 0,-4.185 -1.26,-6.075 -1.26,-1.89 -3.87,-1.89 -2.655,0 -4.725,1.845 -2.07,1.845 -2.97,4.86 l 0,14.355 -3.06,0 0,-23.445 2.79,0 0,5.31 q 1.44,-2.7 3.78,-4.185 2.34,-1.53 5.175,-1.53 2.97,0 4.725,1.665 1.8,1.665 2.205,4.365 3.285,-6.03 9.045,-6.03 1.98,0 3.33,0.72 1.395,0.72 2.205,2.07 0.855,1.305 1.215,3.195 0.405,1.845 0.405,4.14 l 0,13.725 z"
     style="font-style:normal;font-variant:normal;font-weight:normal;font-stretch:normal;font-size:45px;line-height:150%;font-family:Raleway;-inkscape-font-specification:Raleway;letter-spacing:0px;word-spacing:0px;fill:#e1e1e1;fill-opacity:1;stroke:none;stroke-width:1px;stroke-linecap:butt;stroke-linejoin:miter;stroke-opacity:1"
     id="path3445" />
  <path
     d="m 819.5839,588.30001 -2.025,-0.765 2.655,-4.185 3.24,0 -3.87,4.95 z m -2.655,28.35 q -3.825,0 -5.715,-2.52 -1.845,-2.565 -1.845,-7.605 l 0,-13.77 3.06,0 0,13.23 q 0,7.965 5.445,7.965 1.35,0 2.655,-0.45 1.305,-0.45 2.385,-1.305 1.125,-0.855 1.98,-2.025 0.9,-1.17 1.44,-2.655 l 0,-14.76 3.06,0 0,19.485 q 0,1.26 1.08,1.26 l 0,2.7 q -0.54,0.09 -0.9,0.09 -0.315,0 -0.45,0 -1.08,-0.045 -1.755,-0.765 -0.675,-0.72 -0.675,-1.935 l 0,-2.7 q -1.53,2.745 -4.185,4.275 -2.61,1.485 -5.58,1.485 z"
     style="font-style:normal;font-variant:normal;font-weight:normal;font-stretch:normal;font-size:45px;line-height:150%;font-family:Raleway;-inkscape-font-specification:Raleway;letter-spacing:0px;word-spacing:0px;fill:#e1e1e1;fill-opacity:1;stroke:none;stroke-width:1px;stroke-linecap:butt;stroke-linejoin:miter;stroke-opacity:1"
     id="path3447" />
  <path
     d="m 844.10864,616.65001 q -2.745,0 -5.355,-0.9 -2.61,-0.9 -4.5,-2.61 l 1.395,-2.07 q 1.98,1.62 4.005,2.43 2.07,0.81 4.41,0.81 2.835,0 4.5,-1.125 1.71,-1.17 1.71,-3.285 0,-0.99 -0.45,-1.62 -0.45,-0.675 -1.35,-1.17 -0.855,-0.495 -2.205,-0.855 -1.305,-0.405 -3.06,-0.81 -2.025,-0.495 -3.51,-0.99 -1.485,-0.495 -2.475,-1.125 -0.945,-0.63 -1.44,-1.53 -0.45,-0.945 -0.45,-2.34 0,-1.755 0.675,-3.105 0.72,-1.35 1.89,-2.205 1.215,-0.9 2.79,-1.35 1.62,-0.45 3.42,-0.45 2.7,0 4.905,0.9 2.205,0.855 3.555,2.295 l -1.485,1.8 q -1.305,-1.35 -3.195,-2.025 -1.845,-0.675 -3.87,-0.675 -1.215,0 -2.25,0.27 -1.035,0.225 -1.845,0.765 -0.765,0.54 -1.215,1.395 -0.45,0.81 -0.45,1.935 0,0.945 0.315,1.53 0.315,0.585 1.035,1.035 0.72,0.405 1.8,0.765 1.125,0.315 2.7,0.675 2.25,0.54 3.96,1.08 1.71,0.54 2.835,1.26 1.17,0.72 1.755,1.755 0.585,1.035 0.585,2.52 0,3.24 -2.475,5.13 -2.475,1.89 -6.66,1.89 z"
     style="font-style:normal;font-variant:normal;font-weight:normal;font-stretch:normal;font-size:45px;line-height:150%;font-family:Raleway;-inkscape-font-specification:Raleway;letter-spacing:0px;word-spacing:0px;fill:#e1e1e1;fill-opacity:1;stroke:none;stroke-width:1px;stroke-linecap:butt;stroke-linejoin:miter;stroke-opacity:1"
     id="path3449" />
  <path
     d="m 858.23862,616.20001 0,-23.445 3.06,0 0,23.445 -3.06,0 z m 0,-28.35 0,-4.5 3.06,0 0,4.5 -3.06,0 z"
     style="font-style:normal;font-variant:normal;font-weight:normal;font-stretch:normal;font-size:45px;line-height:150%;font-family:Raleway;-inkscape-font-specification:Raleway;letter-spacing:0px;word-spacing:0px;fill:#e1e1e1;fill-opacity:1;stroke:none;stroke-width:1px;stroke-linecap:butt;stroke-linejoin:miter;stroke-opacity:1"
     id="path3451" />
  <path
     d="m 866.42803,604.41001 q 0,-2.475 0.855,-4.68 0.855,-2.205 2.385,-3.825 1.575,-1.665 3.735,-2.61 2.16,-0.945 4.77,-0.945 3.33,0 5.805,1.53 2.475,1.485 3.735,4.05 l -2.97,0.945 q -0.99,-1.8 -2.79,-2.79 -1.755,-1.035 -3.915,-1.035 -1.8,0 -3.375,0.72 -1.53,0.72 -2.7,1.98 -1.125,1.215 -1.8,2.925 -0.63,1.71 -0.63,3.735 0,1.98 0.675,3.735 0.675,1.755 1.845,3.06 1.17,1.26 2.7,2.025 1.575,0.72 3.33,0.72 1.125,0 2.205,-0.315 1.125,-0.315 2.07,-0.855 0.945,-0.585 1.62,-1.305 0.675,-0.72 0.945,-1.53 l 3.015,0.9 q -0.495,1.26 -1.44,2.34 -0.945,1.035 -2.25,1.845 -1.26,0.765 -2.835,1.17 -1.53,0.45 -3.195,0.45 -2.565,0 -4.725,-0.945 -2.16,-0.99 -3.735,-2.655 -1.575,-1.71 -2.475,-3.915 -0.855,-2.205 -0.855,-4.725 z"
     style="font-style:normal;font-variant:normal;font-weight:normal;font-stretch:normal;font-size:45px;line-height:150%;font-family:Raleway;-inkscape-font-specification:Raleway;letter-spacing:0px;word-spacing:0px;fill:#e1e1e1;fill-opacity:1;stroke:none;stroke-width:1px;stroke-linecap:butt;stroke-linejoin:miter;stroke-opacity:1"
     id="path3453" />
  <path
     d="m 898.64854,616.65001 q -1.665,0 -3.105,-0.54 -1.395,-0.585 -2.475,-1.575 -1.035,-0.99 -1.62,-2.295 -0.585,-1.35 -0.585,-2.88 0,-1.53 0.72,-2.835 0.72,-1.305 2.025,-2.25 1.305,-0.945 3.105,-1.44 1.8,-0.54 3.96,-0.54 1.8,0 3.645,0.315 1.845,0.315 3.285,0.9 l 0,-2.115 q 0,-3.105 -1.755,-4.905 -1.755,-1.845 -4.86,-1.845 -1.8,0 -3.69,0.72 -1.89,0.72 -3.825,2.07 l -1.08,-2.025 q 4.545,-3.06 8.82,-3.06 4.41,0 6.93,2.475 2.52,2.475 2.52,6.84 l 0,10.575 q 0,1.26 1.125,1.26 l 0,2.7 q -0.765,0.135 -1.17,0.135 -1.17,0 -1.845,-0.585 -0.63,-0.585 -0.675,-1.62 l -0.09,-1.845 q -1.62,2.115 -4.095,3.24 -2.43,1.125 -5.265,1.125 z m 0.72,-2.34 q 2.385,0 4.365,-0.9 2.025,-0.9 3.06,-2.385 0.405,-0.405 0.585,-0.855 0.225,-0.495 0.225,-0.9 l 0,-3.825 q -1.53,-0.585 -3.195,-0.9 -1.62,-0.315 -3.33,-0.315 -3.24,0 -5.265,1.35 -2.025,1.35 -2.025,3.555 0,1.08 0.405,2.025 0.45,0.945 1.17,1.665 0.765,0.675 1.8,1.08 1.035,0.405 2.205,0.405 z"
     style="font-style:normal;font-variant:normal;font-weight:normal;font-stretch:normal;font-size:45px;line-height:150%;font-family:Raleway;-inkscape-font-specification:Raleway;letter-spacing:0px;word-spacing:0px;fill:#e1e1e1;fill-opacity:1;stroke:none;stroke-width:1px;stroke-linecap:butt;stroke-linejoin:miter;stroke-opacity:1"
     id="path3455" />
  <path
     d="m 533.92,651.74995 -21.24,31.95 -3.465,0 21.24,-31.95 3.465,0 z"
     style="font-style:normal;font-variant:normal;font-weight:normal;font-stretch:normal;font-size:45px;line-height:150%;font-family:Raleway;-inkscape-font-specification:Raleway;letter-spacing:0px;word-spacing:0px;fill:#e1e1e1;fill-opacity:1;stroke:none;stroke-width:1px;stroke-linecap:butt;stroke-linejoin:miter;stroke-opacity:1"
     id="path3457" />
  <path
     d="m 549.98519,651.74995 -21.24,31.95 -3.465,0 21.24,-31.95 3.465,0 z"
     style="font-style:normal;font-variant:normal;font-weight:normal;font-stretch:normal;font-size:45px;line-height:150%;font-family:Raleway;-inkscape-font-specification:Raleway;letter-spacing:0px;word-spacing:0px;fill:#e1e1e1;fill-opacity:1;stroke:none;stroke-width:1px;stroke-linecap:butt;stroke-linejoin:miter;stroke-opacity:1"
     id="path3459" />
  <path
     d="m 564.61058,667.49995 q 0,-2.88 0.99,-5.715 1.035,-2.88 2.97,-5.13 1.935,-2.25 4.77,-3.645 2.835,-1.44 6.435,-1.44 4.275,0 7.29,1.935 3.06,1.935 4.5,5.04 l -2.475,1.53 q -0.765,-1.575 -1.89,-2.655 -1.08,-1.08 -2.34,-1.755 -1.26,-0.675 -2.61,-0.945 -1.35,-0.315 -2.655,-0.315 -2.88,0 -5.085,1.17 -2.205,1.17 -3.735,3.06 -1.485,1.89 -2.25,4.275 -0.765,2.34 -0.765,4.77 0,2.655 0.9,5.085 0.945,2.43 2.52,4.32 1.62,1.845 3.78,2.97 2.205,1.08 4.77,1.08 1.35,0 2.745,-0.315 1.44,-0.36 2.745,-1.08 1.35,-0.765 2.475,-1.845 1.125,-1.125 1.89,-2.7 l 2.61,1.35 q -0.765,1.8 -2.16,3.195 -1.395,1.35 -3.105,2.295 -1.71,0.945 -3.645,1.44 -1.89,0.495 -3.735,0.495 -3.285,0 -6.03,-1.44 -2.745,-1.44 -4.725,-3.735 -1.98,-2.34 -3.105,-5.265 -1.08,-2.97 -1.08,-6.03 z"
     style="font-style:normal;font-variant:normal;font-weight:normal;font-stretch:normal;font-size:45px;line-height:150%;font-family:Raleway;-inkscape-font-specification:Raleway;letter-spacing:0px;word-spacing:0px;fill:#e1e1e1;fill-opacity:1;stroke:none;stroke-width:1px;stroke-linecap:butt;stroke-linejoin:miter;stroke-opacity:1"
     id="path3461" />
  <path
     d="m 602.86079,684.14995 q -1.665,0 -3.105,-0.54 -1.395,-0.585 -2.475,-1.575 -1.035,-0.99 -1.62,-2.295 -0.585,-1.35 -0.585,-2.88 0,-1.53 0.72,-2.835 0.72,-1.305 2.025,-2.25 1.305,-0.945 3.105,-1.44 1.8,-0.54 3.96,-0.54 1.8,0 3.645,0.315 1.845,0.315 3.285,0.9 l 0,-2.115 q 0,-3.105 -1.755,-4.905 -1.755,-1.845 -4.86,-1.845 -1.8,0 -3.69,0.72 -1.89,0.72 -3.825,2.07 l -1.08,-2.025 q 4.545,-3.06 8.82,-3.06 4.41,0 6.93,2.475 2.52,2.475 2.52,6.84 l 0,10.575 q 0,1.26 1.125,1.26 l 0,2.7 q -0.765,0.135 -1.17,0.135 -1.17,0 -1.845,-0.585 -0.63,-0.585 -0.675,-1.62 l -0.09,-1.845 q -1.62,2.115 -4.095,3.24 -2.43,1.125 -5.265,1.125 z m 0.72,-2.34 q 2.385,0 4.365,-0.9 2.025,-0.9 3.06,-2.385 0.405,-0.405 0.585,-0.855 0.225,-0.495 0.225,-0.9 l 0,-3.825 q -1.53,-0.585 -3.195,-0.9 -1.62,-0.315 -3.33,-0.315 -3.24,0 -5.265,1.35 -2.025,1.35 -2.025,3.555 0,1.08 0.405,2.025 0.45,0.945 1.17,1.665 0.765,0.675 1.8,1.08 1.035,0.405 2.205,0.405 z"
     style="font-style:normal;font-variant:normal;font-weight:normal;font-stretch:normal;font-size:45px;line-height:150%;font-family:Raleway;-inkscape-font-specification:Raleway;letter-spacing:0px;word-spacing:0px;fill:#e1e1e1;fill-opacity:1;stroke:none;stroke-width:1px;stroke-linecap:butt;stroke-linejoin:miter;stroke-opacity:1"
     id="path3463" />
  <path
     d="m 656.36639,683.69995 -3.06,0 0,-13.095 q 0,-4.095 -1.305,-6.03 -1.305,-1.935 -3.87,-1.935 -1.35,0 -2.565,0.495 -1.17,0.495 -2.205,1.395 -0.99,0.9 -1.755,2.16 -0.765,1.215 -1.17,2.7 l 0,14.31 -3.06,0 0,-13.095 q 0,-4.185 -1.26,-6.075 -1.26,-1.89 -3.87,-1.89 -2.655,0 -4.725,1.845 -2.07,1.845 -2.97,4.86 l 0,14.355 -3.06,0 0,-23.445 2.79,0 0,5.31 q 1.44,-2.7 3.78,-4.185 2.34,-1.53 5.175,-1.53 2.97,0 4.725,1.665 1.8,1.665 2.205,4.365 3.285,-6.03 9.045,-6.03 1.98,0 3.33,0.72 1.395,0.72 2.205,2.07 0.855,1.305 1.215,3.195 0.405,1.845 0.405,4.14 l 0,13.725 z"
     style="font-style:normal;font-variant:normal;font-weight:normal;font-stretch:normal;font-size:45px;line-height:150%;font-family:Raleway;-inkscape-font-specification:Raleway;letter-spacing:0px;word-spacing:0px;fill:#e1e1e1;fill-opacity:1;stroke:none;stroke-width:1px;stroke-linecap:butt;stroke-linejoin:miter;stroke-opacity:1"
     id="path3465" />
  <path
     d="m 662.84668,683.69995 0,-23.445 3.06,0 0,23.445 -3.06,0 z m 0,-28.35 0,-4.5 3.06,0 0,4.5 -3.06,0 z"
     style="font-style:normal;font-variant:normal;font-weight:normal;font-stretch:normal;font-size:45px;line-height:150%;font-family:Raleway;-inkscape-font-specification:Raleway;letter-spacing:0px;word-spacing:0px;fill:#e1e1e1;fill-opacity:1;stroke:none;stroke-width:1px;stroke-linecap:butt;stroke-linejoin:miter;stroke-opacity:1"
     id="path3467" />
  <path
     d="m 692.3661,683.69995 -3.06,0 0,-13.095 q 0,-4.185 -1.26,-6.075 -1.215,-1.89 -3.78,-1.89 -1.35,0 -2.7,0.495 -1.35,0.495 -2.52,1.395 -1.125,0.9 -2.025,2.16 -0.9,1.215 -1.305,2.655 l 0,14.355 -3.06,0 0,-23.445 2.79,0 0,5.31 q 1.44,-2.565 4.095,-4.14 2.7,-1.575 5.85,-1.575 1.935,0 3.285,0.72 1.35,0.72 2.16,2.025 0.81,1.305 1.17,3.195 0.36,1.89 0.36,4.185 l 0,13.725 z"
     style="font-style:normal;font-variant:normal;font-weight:normal;font-stretch:normal;font-size:45px;line-height:150%;font-family:Raleway;-inkscape-font-specification:Raleway;letter-spacing:0px;word-spacing:0px;fill:#e1e1e1;fill-opacity:1;stroke:none;stroke-width:1px;stroke-linecap:butt;stroke-linejoin:miter;stroke-opacity:1"
     id="path3469" />
  <path
     d="m 704.78645,684.14995 q -1.665,0 -3.105,-0.54 -1.395,-0.585 -2.475,-1.575 -1.035,-0.99 -1.62,-2.295 -0.585,-1.35 -0.585,-2.88 0,-1.53 0.72,-2.835 0.72,-1.305 2.025,-2.25 1.305,-0.945 3.105,-1.44 1.8,-0.54 3.96,-0.54 1.8,0 3.645,0.315 1.845,0.315 3.285,0.9 l 0,-2.115 q 0,-3.105 -1.755,-4.905 -1.755,-1.845 -4.86,-1.845 -1.8,0 -3.69,0.72 -1.89,0.72 -3.825,2.07 l -1.08,-2.025 q 4.545,-3.06 8.82,-3.06 4.41,0 6.93,2.475 2.52,2.475 2.52,6.84 l 0,10.575 q 0,1.26 1.125,1.26 l 0,2.7 q -0.765,0.135 -1.17,0.135 -1.17,0 -1.845,-0.585 -0.63,-0.585 -0.675,-1.62 l -0.09,-1.845 q -1.62,2.115 -4.095,3.24 -2.43,1.125 -5.265,1.125 z m 0.72,-2.34 q 2.385,0 4.365,-0.9 2.025,-0.9 3.06,-2.385 0.405,-0.405 0.585,-0.855 0.225,-0.495 0.225,-0.9 l 0,-3.825 q -1.53,-0.585 -3.195,-0.9 -1.62,-0.315 -3.33,-0.315 -3.24,0 -5.265,1.35 -2.025,1.35 -2.025,3.555 0,1.08 0.405,2.025 0.45,0.945 1.17,1.665 0.765,0.675 1.8,1.08 1.035,0.405 2.205,0.405 z"
     style="font-style:normal;font-variant:normal;font-weight:normal;font-stretch:normal;font-size:45px;line-height:150%;font-family:Raleway;-inkscape-font-specification:Raleway;letter-spacing:0px;word-spacing:0px;fill:#e1e1e1;fill-opacity:1;stroke:none;stroke-width:1px;stroke-linecap:butt;stroke-linejoin:miter;stroke-opacity:1"
     id="path3471" />
  <path
     d="m 735.11705,662.95495 q -3.105,0.09 -5.4,1.71 -2.295,1.62 -3.24,4.455 l 0,14.58 -3.06,0 0,-23.445 2.88,0 0,5.625 q 1.305,-2.7 3.51,-4.23 2.205,-1.53 4.725,-1.53 0.36,0 0.585,0.045 l 0,2.79 z"
     style="font-style:normal;font-variant:normal;font-weight:normal;font-stretch:normal;font-size:45px;line-height:150%;font-family:Raleway;-inkscape-font-specification:Raleway;letter-spacing:0px;word-spacing:0px;fill:#e1e1e1;fill-opacity:1;stroke:none;stroke-width:1px;stroke-linecap:butt;stroke-linejoin:miter;stroke-opacity:1"
     id="path3473" />
  <path
     d="m 748.21294,668.12995 q 0,-2.295 0.495,-4.5 0.495,-2.25 1.35,-4.41 0.855,-2.205 1.98,-4.365 1.17,-2.205 2.475,-4.41 l 2.34,1.125 q -0.9,1.35 -1.935,3.33 -0.99,1.98 -1.845,4.23 -0.855,2.25 -1.44,4.635 -0.54,2.34 -0.54,4.5 0,3.51 1.53,7.695 1.53,4.14 4.185,8.19 l -2.295,1.215 q -2.835,-4.23 -4.59,-8.55 -1.71,-4.365 -1.71,-8.685 z"
     style="font-style:normal;font-variant:normal;font-weight:normal;font-stretch:normal;font-size:45px;line-height:150%;font-family:Raleway;-inkscape-font-specification:Raleway;letter-spacing:0px;word-spacing:0px;fill:#e1e1e1;fill-opacity:1;stroke:none;stroke-width:1px;stroke-linecap:butt;stroke-linejoin:miter;stroke-opacity:1"
     id="path3475" />
  <path
     d="m 769.4985,684.14995 q -2.745,0 -5.355,-0.9 -2.61,-0.9 -4.5,-2.61 l 1.395,-2.07 q 1.98,1.62 4.005,2.43 2.07,0.81 4.41,0.81 2.835,0 4.5,-1.125 1.71,-1.17 1.71,-3.285 0,-0.99 -0.45,-1.62 -0.45,-0.675 -1.35,-1.17 -0.855,-0.495 -2.205,-0.855 -1.305,-0.405 -3.06,-0.81 -2.025,-0.495 -3.51,-0.99 -1.485,-0.495 -2.475,-1.125 -0.945,-0.63 -1.44,-1.53 -0.45,-0.945 -0.45,-2.34 0,-1.755 0.675,-3.105 0.72,-1.35 1.89,-2.205 1.215,-0.9 2.79,-1.35 1.62,-0.45 3.42,-0.45 2.7,0 4.905,0.9 2.205,0.855 3.555,2.295 l -1.485,1.8 q -1.305,-1.35 -3.195,-2.025 -1.845,-0.675 -3.87,-0.675 -1.215,0 -2.25,0.27 -1.035,0.225 -1.845,0.765 -0.765,0.54 -1.215,1.395 -0.45,0.81 -0.45,1.935 0,0.945 0.315,1.53 0.315,0.585 1.035,1.035 0.72,0.405 1.8,0.765 1.125,0.315 2.7,0.675 2.25,0.54 3.96,1.08 1.71,0.54 2.835,1.26 1.17,0.72 1.755,1.755 0.585,1.035 0.585,2.52 0,3.24 -2.475,5.13 -2.475,1.89 -6.66,1.89 z"
     style="font-style:normal;font-variant:normal;font-weight:normal;font-stretch:normal;font-size:45px;line-height:150%;font-family:Raleway;-inkscape-font-specification:Raleway;letter-spacing:0px;word-spacing:0px;fill:#e1e1e1;fill-opacity:1;stroke:none;stroke-width:1px;stroke-linecap:butt;stroke-linejoin:miter;stroke-opacity:1"
     id="path3477" />
  <path
     d="m 793.75348,684.14995 q -2.565,0 -4.725,-0.945 -2.115,-0.99 -3.69,-2.655 -1.575,-1.71 -2.475,-3.915 -0.855,-2.205 -0.855,-4.725 0,-2.475 0.855,-4.635 0.9,-2.205 2.43,-3.825 1.575,-1.665 3.735,-2.61 2.16,-0.99 4.68,-0.99 2.565,0 4.68,0.99 2.16,0.945 3.69,2.61 1.53,1.665 2.385,3.825 0.855,2.16 0.855,4.59 0,0.36 0,0.72 0,0.36 -0.045,0.495 l -20.07,0 q 0.135,1.89 0.855,3.51 0.765,1.575 1.935,2.745 1.17,1.17 2.655,1.845 1.53,0.63 3.24,0.63 1.125,0 2.25,-0.315 1.125,-0.315 2.07,-0.855 0.945,-0.54 1.71,-1.305 0.765,-0.81 1.17,-1.755 l 2.655,0.72 q -0.54,1.305 -1.53,2.385 -0.99,1.035 -2.295,1.845 -1.305,0.765 -2.88,1.17 -1.575,0.45 -3.285,0.45 z m 8.64,-13.41 q -0.135,-1.89 -0.9,-3.42 -0.72,-1.575 -1.89,-2.7 -1.125,-1.125 -2.655,-1.755 -1.485,-0.63 -3.195,-0.63 -1.71,0 -3.24,0.63 -1.53,0.63 -2.7,1.755 -1.125,1.125 -1.845,2.7 -0.675,1.575 -0.81,3.42 l 17.235,0 z"
     style="font-style:normal;font-variant:normal;font-weight:normal;font-stretch:normal;font-size:45px;line-height:150%;font-family:Raleway;-inkscape-font-specification:Raleway;letter-spacing:0px;word-spacing:0px;fill:#e1e1e1;fill-opacity:1;stroke:none;stroke-width:1px;stroke-linecap:butt;stroke-linejoin:miter;stroke-opacity:1"
     id="path3479" />
  <path
     d="m 829.75373,683.69995 -3.06,0 0,-13.095 q 0,-4.185 -1.26,-6.075 -1.215,-1.89 -3.78,-1.89 -1.35,0 -2.7,0.495 -1.35,0.495 -2.52,1.395 -1.125,0.9 -2.025,2.16 -0.9,1.215 -1.305,2.655 l 0,14.355 -3.06,0 0,-23.445 2.79,0 0,5.31 q 1.44,-2.565 4.095,-4.14 2.7,-1.575 5.85,-1.575 1.935,0 3.285,0.72 1.35,0.72 2.16,2.025 0.81,1.305 1.17,3.195 0.36,1.89 0.36,4.185 l 0,13.725 z"
     style="font-style:normal;font-variant:normal;font-weight:normal;font-stretch:normal;font-size:45px;line-height:150%;font-family:Raleway;-inkscape-font-specification:Raleway;letter-spacing:0px;word-spacing:0px;fill:#e1e1e1;fill-opacity:1;stroke:none;stroke-width:1px;stroke-linecap:butt;stroke-linejoin:miter;stroke-opacity:1"
     id="path3481" />
  <path
     d="m 845.90908,684.14995 q -2.43,0 -4.5,-0.99 -2.07,-1.035 -3.555,-2.7 -1.485,-1.665 -2.34,-3.825 -0.81,-2.205 -0.81,-4.59 0,-2.475 0.81,-4.68 0.81,-2.25 2.205,-3.915 1.44,-1.665 3.375,-2.61 1.98,-0.99 4.32,-0.99 2.97,0 5.265,1.575 2.295,1.53 3.6,3.735 l 0,-14.31 3.06,0 0,28.89 q 0,1.26 1.08,1.26 l 0,2.7 q -0.675,0.135 -1.08,0.135 -1.08,0 -1.89,-0.675 -0.81,-0.72 -0.81,-1.71 l 0,-2.295 q -1.395,2.295 -3.78,3.645 -2.385,1.35 -4.95,1.35 z m 0.675,-2.7 q 1.125,0 2.385,-0.45 1.305,-0.45 2.43,-1.215 1.125,-0.81 1.89,-1.845 0.81,-1.08 0.99,-2.295 l 0,-7.245 q -0.45,-1.215 -1.305,-2.25 -0.855,-1.08 -1.98,-1.89 -1.08,-0.81 -2.34,-1.26 -1.26,-0.45 -2.475,-0.45 -1.89,0 -3.42,0.81 -1.53,0.81 -2.655,2.16 -1.08,1.305 -1.665,3.015 -0.585,1.71 -0.585,3.51 0,1.89 0.675,3.6 0.675,1.71 1.845,3.015 1.17,1.26 2.745,2.025 1.62,0.765 3.465,0.765 z"
     style="font-style:normal;font-variant:normal;font-weight:normal;font-stretch:normal;font-size:45px;line-height:150%;font-family:Raleway;-inkscape-font-specification:Raleway;letter-spacing:0px;word-spacing:0px;fill:#e1e1e1;fill-opacity:1;stroke:none;stroke-width:1px;stroke-linecap:butt;stroke-linejoin:miter;stroke-opacity:1"
     id="path3483" />
  <path
     d="m 874.3945,684.14995 q -2.565,0 -4.725,-0.945 -2.115,-0.99 -3.69,-2.655 -1.575,-1.71 -2.475,-3.915 -0.855,-2.205 -0.855,-4.725 0,-2.475 0.855,-4.635 0.9,-2.205 2.43,-3.825 1.575,-1.665 3.735,-2.61 2.16,-0.99 4.68,-0.99 2.565,0 4.68,0.99 2.16,0.945 3.69,2.61 1.53,1.665 2.385,3.825 0.855,2.16 0.855,4.59 0,0.36 0,0.72 0,0.36 -0.045,0.495 l -20.07,0 q 0.135,1.89 0.855,3.51 0.765,1.575 1.935,2.745 1.17,1.17 2.655,1.845 1.53,0.63 3.24,0.63 1.125,0 2.25,-0.315 1.125,-0.315 2.07,-0.855 0.945,-0.54 1.71,-1.305 0.765,-0.81 1.17,-1.755 l 2.655,0.72 q -0.54,1.305 -1.53,2.385 -0.99,1.035 -2.295,1.845 -1.305,0.765 -2.88,1.17 -1.575,0.45 -3.285,0.45 z m 8.64,-13.41 q -0.135,-1.89 -0.9,-3.42 -0.72,-1.575 -1.89,-2.7 -1.125,-1.125 -2.655,-1.755 -1.485,-0.63 -3.195,-0.63 -1.71,0 -3.24,0.63 -1.53,0.63 -2.7,1.755 -1.125,1.125 -1.845,2.7 -0.675,1.575 -0.81,3.42 l 17.235,0 z"
     style="font-style:normal;font-variant:normal;font-weight:normal;font-stretch:normal;font-size:45px;line-height:150%;font-family:Raleway;-inkscape-font-specification:Raleway;letter-spacing:0px;word-spacing:0px;fill:#e1e1e1;fill-opacity:1;stroke:none;stroke-width:1px;stroke-linecap:butt;stroke-linejoin:miter;stroke-opacity:1"
     id="path3485" />
  <path
     d="m 902.38475,662.95495 q -3.105,0.09 -5.4,1.71 -2.295,1.62 -3.24,4.455 l 0,14.58 -3.06,0 0,-23.445 2.88,0 0,5.625 q 1.305,-2.7 3.51,-4.23 2.205,-1.53 4.725,-1.53 0.36,0 0.585,0.045 l 0,2.79 z"
     style="font-style:normal;font-variant:normal;font-weight:normal;font-stretch:normal;font-size:45px;line-height:150%;font-family:Raleway;-inkscape-font-specification:Raleway;letter-spacing:0px;word-spacing:0px;fill:#e1e1e1;fill-opacity:1;stroke:none;stroke-width:1px;stroke-linecap:butt;stroke-linejoin:miter;stroke-opacity:1"
     id="path3487" />
  <path
     d="m 906.48035,683.69995 0,-23.445 3.06,0 0,23.445 -3.06,0 z m 0,-28.35 0,-4.5 3.06,0 0,4.5 -3.06,0 z"
     style="font-style:normal;font-variant:normal;font-weight:normal;font-stretch:normal;font-size:45px;line-height:150%;font-family:Raleway;-inkscape-font-specification:Raleway;letter-spacing:0px;word-spacing:0px;fill:#e1e1e1;fill-opacity:1;stroke:none;stroke-width:1px;stroke-linecap:butt;stroke-linejoin:miter;stroke-opacity:1"
     id="path3489" />
  <path
     d="m 924.07476,684.14995 q -2.745,0 -5.355,-0.9 -2.61,-0.9 -4.5,-2.61 l 1.395,-2.07 q 1.98,1.62 4.005,2.43 2.07,0.81 4.41,0.81 2.835,0 4.5,-1.125 1.71,-1.17 1.71,-3.285 0,-0.99 -0.45,-1.62 -0.45,-0.675 -1.35,-1.17 -0.855,-0.495 -2.205,-0.855 -1.305,-0.405 -3.06,-0.81 -2.025,-0.495 -3.51,-0.99 -1.485,-0.495 -2.475,-1.125 -0.945,-0.63 -1.44,-1.53 -0.45,-0.945 -0.45,-2.34 0,-1.755 0.675,-3.105 0.72,-1.35 1.89,-2.205 1.215,-0.9 2.79,-1.35 1.62,-0.45 3.42,-0.45 2.7,0 4.905,0.9 2.205,0.855 3.555,2.295 l -1.485,1.8 q -1.305,-1.35 -3.195,-2.025 -1.845,-0.675 -3.87,-0.675 -1.215,0 -2.25,0.27 -1.035,0.225 -1.845,0.765 -0.765,0.54 -1.215,1.395 -0.45,0.81 -0.45,1.935 0,0.945 0.315,1.53 0.315,0.585 1.035,1.035 0.72,0.405 1.8,0.765 1.125,0.315 2.7,0.675 2.25,0.54 3.96,1.08 1.71,0.54 2.835,1.26 1.17,0.72 1.755,1.755 0.585,1.035 0.585,2.52 0,3.24 -2.475,5.13 -2.475,1.89 -6.66,1.89 z"
     style="font-style:normal;font-variant:normal;font-weight:normal;font-stretch:normal;font-size:45px;line-height:150%;font-family:Raleway;-inkscape-font-specification:Raleway;letter-spacing:0px;word-spacing:0px;fill:#e1e1e1;fill-opacity:1;stroke:none;stroke-width:1px;stroke-linecap:butt;stroke-linejoin:miter;stroke-opacity:1"
     id="path3491" />
  <path
     d="m 973.07974,683.69995 -3.06,0 0,-13.095 q 0,-4.095 -1.305,-6.03 -1.305,-1.935 -3.87,-1.935 -1.35,0 -2.565,0.495 -1.17,0.495 -2.205,1.395 -0.99,0.9 -1.755,2.16 -0.765,1.215 -1.17,2.7 l 0,14.31 -3.06,0 0,-13.095 q 0,-4.185 -1.26,-6.075 -1.26,-1.89 -3.87,-1.89 -2.655,0 -4.725,1.845 -2.07,1.845 -2.97,4.86 l 0,14.355 -3.06,0 0,-23.445 2.79,0 0,5.31 q 1.44,-2.7 3.78,-4.185 2.34,-1.53 5.175,-1.53 2.97,0 4.725,1.665 1.8,1.665 2.205,4.365 3.285,-6.03 9.045,-6.03 1.98,0 3.33,0.72 1.395,0.72 2.205,2.07 0.855,1.305 1.215,3.195 0.405,1.845 0.405,4.14 l 0,13.725 z"
     style="font-style:normal;font-variant:normal;font-weight:normal;font-stretch:normal;font-size:45px;line-height:150%;font-family:Raleway;-inkscape-font-specification:Raleway;letter-spacing:0px;word-spacing:0px;fill:#e1e1e1;fill-opacity:1;stroke:none;stroke-width:1px;stroke-linecap:butt;stroke-linejoin:miter;stroke-opacity:1"
     id="path3493" />
  <path
     d="m 989.55003,684.14995 q -2.565,0 -4.68,-0.945 -2.115,-0.99 -3.69,-2.655 -1.53,-1.665 -2.385,-3.87 -0.855,-2.205 -0.855,-4.635 0,-2.475 0.855,-4.68 0.9,-2.205 2.43,-3.87 1.575,-1.665 3.69,-2.655 2.115,-0.99 4.635,-0.99 2.52,0 4.635,0.99 2.16,0.99 3.69,2.655 1.575,1.665 2.42997,3.87 0.9,2.205 0.9,4.68 0,2.43 -0.855,4.635 -0.85497,2.205 -2.42997,3.87 -1.53,1.665 -3.69,2.655 -2.115,0.945 -4.68,0.945 z m -8.505,-12.06 q 0,1.98 0.675,3.69 0.675,1.665 1.8,2.97 1.17,1.26 2.7,1.98 1.575,0.72 3.33,0.72 1.755,0 3.285,-0.72 1.575,-0.765 2.745,-2.025 1.17,-1.305 1.845,-3.015 0.675,-1.71 0.675,-3.69 0,-1.935 -0.675,-3.645 -0.675,-1.755 -1.845,-3.015 -1.17,-1.305 -2.745,-2.025 -1.53,-0.765 -3.285,-0.765 -1.755,0 -3.285,0.765 -1.53,0.72 -2.7,2.025 -1.17,1.305 -1.845,3.06 -0.675,1.71 -0.675,3.69 z"
     style="font-style:normal;font-variant:normal;font-weight:normal;font-stretch:normal;font-size:45px;line-height:150%;font-family:Raleway;-inkscape-font-specification:Raleway;letter-spacing:0px;word-spacing:0px;fill:#e1e1e1;fill-opacity:1;stroke:none;stroke-width:1px;stroke-linecap:butt;stroke-linejoin:miter;stroke-opacity:1"
     id="path3495" />
  <path
     d="m 1012.1851,668.12995 q 0,4.32 -1.71,8.685 -1.71,4.32 -4.59,8.55 l -2.25,-1.215 q 1.305,-2.025 2.34,-4.095 1.08,-2.07 1.8,-4.095 0.765,-2.07 1.17,-4.005 0.405,-1.935 0.405,-3.69 0,-2.16 -0.585,-4.5 -0.54,-2.385 -1.395,-4.635 -0.855,-2.25 -1.89,-4.23 -0.99,-1.98 -1.935,-3.33 l 2.385,-1.125 q 1.305,2.205 2.43,4.41 1.17,2.16 1.98,4.365 0.855,2.16 1.35,4.41 0.495,2.205 0.495,4.5 z"
     style="font-style:normal;font-variant:normal;font-weight:normal;font-stretch:normal;font-size:45px;line-height:150%;font-family:Raleway;-inkscape-font-specification:Raleway;letter-spacing:0px;word-spacing:0px;fill:#e1e1e1;fill-opacity:1;stroke:none;stroke-width:1px;stroke-linecap:butt;stroke-linejoin:miter;stroke-opacity:1"
     id="path3497" />
  <path
     d="m 533.92,719.24995 -21.24,31.95 -3.465,0 21.24,-31.95 3.465,0 z"
     style="font-style:normal;font-variant:normal;font-weight:normal;font-stretch:normal;font-size:45px;line-height:150%;font-family:Raleway;-inkscape-font-specification:Raleway;letter-spacing:0px;word-spacing:0px;fill:#e1e1e1;fill-opacity:1;stroke:none;stroke-width:1px;stroke-linecap:butt;stroke-linejoin:miter;stroke-opacity:1"
     id="path3499" />
  <path
     d="m 549.98519,719.24995 -21.24,31.95 -3.465,0 21.24,-31.95 3.465,0 z"
     style="font-style:normal;font-variant:normal;font-weight:normal;font-stretch:normal;font-size:45px;line-height:150%;font-family:Raleway;-inkscape-font-specification:Raleway;letter-spacing:0px;word-spacing:0px;fill:#e1e1e1;fill-opacity:1;stroke:none;stroke-width:1px;stroke-linecap:butt;stroke-linejoin:miter;stroke-opacity:1"
     id="path3501" />
  <path
     d="m 564.47564,727.70995 0,-8.73 2.655,0 0,8.73 -2.655,0 z m 4.275,0 0,-8.73 2.655,0 0,8.73 -2.655,0 z"
     style="font-style:normal;font-variant:normal;font-weight:normal;font-stretch:normal;font-size:45px;line-height:150%;font-family:Raleway;-inkscape-font-specification:Raleway;letter-spacing:0px;word-spacing:0px;fill:#e1e1e1;fill-opacity:1;stroke:none;stroke-width:1px;stroke-linecap:butt;stroke-linejoin:miter;stroke-opacity:1"
     id="path3503" />
  <path
     d="m 576.40028,734.99995 q 0,-2.88 0.99,-5.715 1.035,-2.88 2.97,-5.13 1.935,-2.25 4.77,-3.645 2.835,-1.44 6.435,-1.44 4.275,0 7.29,1.935 3.06,1.935 4.5,5.04 l -2.475,1.53 q -0.765,-1.575 -1.89,-2.655 -1.08,-1.08 -2.34,-1.755 -1.26,-0.675 -2.61,-0.945 -1.35,-0.315 -2.655,-0.315 -2.88,0 -5.085,1.17 -2.205,1.17 -3.735,3.06 -1.485,1.89 -2.25,4.275 -0.765,2.34 -0.765,4.77 0,2.655 0.9,5.085 0.945,2.43 2.52,4.32 1.62,1.845 3.78,2.97 2.205,1.08 4.77,1.08 1.35,0 2.745,-0.315 1.44,-0.36 2.745,-1.08 1.35,-0.765 2.475,-1.845 1.125,-1.125 1.89,-2.7 l 2.61,1.35 q -0.765,1.8 -2.16,3.195 -1.395,1.35 -3.105,2.295 -1.71,0.945 -3.645,1.44 -1.89,0.495 -3.735,0.495 -3.285,0 -6.03,-1.44 -2.745,-1.44 -4.725,-3.735 -1.98,-2.34 -3.105,-5.265 -1.08,-2.97 -1.08,-6.03 z"
     style="font-style:normal;font-variant:normal;font-weight:normal;font-stretch:normal;font-size:45px;line-height:150%;font-family:Raleway;-inkscape-font-specification:Raleway;letter-spacing:0px;word-spacing:0px;fill:#e1e1e1;fill-opacity:1;stroke:none;stroke-width:1px;stroke-linecap:butt;stroke-linejoin:miter;stroke-opacity:1"
     id="path3505" />
  <path
     d="m 614.65049,751.64995 q -1.665,0 -3.105,-0.54 -1.395,-0.585 -2.475,-1.575 -1.035,-0.99 -1.62,-2.295 -0.585,-1.35 -0.585,-2.88 0,-1.53 0.72,-2.835 0.72,-1.305 2.025,-2.25 1.305,-0.945 3.105,-1.44 1.8,-0.54 3.96,-0.54 1.8,0 3.645,0.315 1.845,0.315 3.285,0.9 l 0,-2.115 q 0,-3.105 -1.755,-4.905 -1.755,-1.845 -4.86,-1.845 -1.8,0 -3.69,0.72 -1.89,0.72 -3.825,2.07 l -1.08,-2.025 q 4.545,-3.06 8.82,-3.06 4.41,0 6.93,2.475 2.52,2.475 2.52,6.84 l 0,10.575 q 0,1.26 1.125,1.26 l 0,2.7 q -0.765,0.135 -1.17,0.135 -1.17,0 -1.845,-0.585 -0.63,-0.585 -0.675,-1.62 l -0.09,-1.845 q -1.62,2.115 -4.095,3.24 -2.43,1.125 -5.265,1.125 z m 0.72,-2.34 q 2.385,0 4.365,-0.9 2.025,-0.9 3.06,-2.385 0.405,-0.405 0.585,-0.855 0.225,-0.495 0.225,-0.9 l 0,-3.825 q -1.53,-0.585 -3.195,-0.9 -1.62,-0.315 -3.33,-0.315 -3.24,0 -5.265,1.35 -2.025,1.35 -2.025,3.555 0,1.08 0.405,2.025 0.45,0.945 1.17,1.665 0.765,0.675 1.8,1.08 1.035,0.405 2.205,0.405 z"
     style="font-style:normal;font-variant:normal;font-weight:normal;font-stretch:normal;font-size:45px;line-height:150%;font-family:Raleway;-inkscape-font-specification:Raleway;letter-spacing:0px;word-spacing:0px;fill:#e1e1e1;fill-opacity:1;stroke:none;stroke-width:1px;stroke-linecap:butt;stroke-linejoin:miter;stroke-opacity:1"
     id="path3507" />
  <path
     d="m 631.6611,739.40995 q 0,-2.475 0.855,-4.68 0.855,-2.205 2.385,-3.825 1.575,-1.665 3.735,-2.61 2.16,-0.945 4.77,-0.945 3.33,0 5.805,1.53 2.475,1.485 3.735,4.05 l -2.97,0.945 q -0.99,-1.8 -2.79,-2.79 -1.755,-1.035 -3.915,-1.035 -1.8,0 -3.375,0.72 -1.53,0.72 -2.7,1.98 -1.125,1.215 -1.8,2.925 -0.63,1.71 -0.63,3.735 0,1.98 0.675,3.735 0.675,1.755 1.845,3.06 1.17,1.26 2.7,2.025 1.575,0.72 3.33,0.72 1.125,0 2.205,-0.315 1.125,-0.315 2.07,-0.855 0.945,-0.585 1.62,-1.305 0.675,-0.72 0.945,-1.53 l 3.015,0.9 q -0.495,1.26 -1.44,2.34 -0.945,1.035 -2.25,1.845 -1.26,0.765 -2.835,1.17 -1.53,0.45 -3.195,0.45 -2.565,0 -4.725,-0.945 -2.16,-0.99 -3.735,-2.655 -1.575,-1.71 -2.475,-3.915 -0.855,-2.205 -0.855,-4.725 z"
     style="font-style:normal;font-variant:normal;font-weight:normal;font-stretch:normal;font-size:45px;line-height:150%;font-family:Raleway;-inkscape-font-specification:Raleway;letter-spacing:0px;word-spacing:0px;fill:#e1e1e1;fill-opacity:1;stroke:none;stroke-width:1px;stroke-linecap:butt;stroke-linejoin:miter;stroke-opacity:1"
     id="path3509" />
  <path
     d="m 677.6966,751.19995 -3.06,0 0,-13.095 q 0,-4.005 -1.395,-5.985 -1.35,-1.98 -4.005,-1.98 -1.305,0 -2.61,0.54 -1.26,0.495 -2.385,1.395 -1.125,0.9 -1.98,2.115 -0.81,1.215 -1.215,2.655 l 0,14.355 -3.06,0 0,-32.85 3.06,0 0,14.715 q 1.395,-2.655 3.87,-4.185 2.475,-1.53 5.355,-1.53 2.025,0 3.42,0.765 1.395,0.72 2.295,2.07 0.9,1.305 1.305,3.195 0.405,1.845 0.405,4.095 l 0,13.725 z"
     style="font-style:normal;font-variant:normal;font-weight:normal;font-stretch:normal;font-size:45px;line-height:150%;font-family:Raleway;-inkscape-font-specification:Raleway;letter-spacing:0px;word-spacing:0px;fill:#e1e1e1;fill-opacity:1;stroke:none;stroke-width:1px;stroke-linecap:butt;stroke-linejoin:miter;stroke-opacity:1"
     id="path3511" />
  <path
     d="m 690.11695,751.64995 q -1.665,0 -3.105,-0.54 -1.395,-0.585 -2.475,-1.575 -1.035,-0.99 -1.62,-2.295 -0.585,-1.35 -0.585,-2.88 0,-1.53 0.72,-2.835 0.72,-1.305 2.025,-2.25 1.305,-0.945 3.105,-1.44 1.8,-0.54 3.96,-0.54 1.8,0 3.645,0.315 1.845,0.315 3.285,0.9 l 0,-2.115 q 0,-3.105 -1.755,-4.905 -1.755,-1.845 -4.86,-1.845 -1.8,0 -3.69,0.72 -1.89,0.72 -3.825,2.07 l -1.08,-2.025 q 4.545,-3.06 8.82,-3.06 4.41,0 6.93,2.475 2.52,2.475 2.52,6.84 l 0,10.575 q 0,1.26 1.125,1.26 l 0,2.7 q -0.765,0.135 -1.17,0.135 -1.17,0 -1.845,-0.585 -0.63,-0.585 -0.675,-1.62 l -0.09,-1.845 q -1.62,2.115 -4.095,3.24 -2.43,1.125 -5.265,1.125 z m 0.72,-2.34 q 2.385,0 4.365,-0.9 2.025,-0.9 3.06,-2.385 0.405,-0.405 0.585,-0.855 0.225,-0.495 0.225,-0.9 l 0,-3.825 q -1.53,-0.585 -3.195,-0.9 -1.62,-0.315 -3.33,-0.315 -3.24,0 -5.265,1.35 -2.025,1.35 -2.025,3.555 0,1.08 0.405,2.025 0.45,0.945 1.17,1.665 0.765,0.675 1.8,1.08 1.035,0.405 2.205,0.405 z"
     style="font-style:normal;font-variant:normal;font-weight:normal;font-stretch:normal;font-size:45px;line-height:150%;font-family:Raleway;-inkscape-font-specification:Raleway;letter-spacing:0px;word-spacing:0px;fill:#e1e1e1;fill-opacity:1;stroke:none;stroke-width:1px;stroke-linecap:butt;stroke-linejoin:miter;stroke-opacity:1"
     id="path3513" />
  <path
     d="m 720.44756,730.45495 q -3.105,0.09 -5.4,1.71 -2.295,1.62 -3.24,4.455 l 0,14.58 -3.06,0 0,-23.445 2.88,0 0,5.625 q 1.305,-2.7 3.51,-4.23 2.205,-1.53 4.725,-1.53 0.36,0 0.585,0.045 l 0,2.79 z"
     style="font-style:normal;font-variant:normal;font-weight:normal;font-stretch:normal;font-size:45px;line-height:150%;font-family:Raleway;-inkscape-font-specification:Raleway;letter-spacing:0px;word-spacing:0px;fill:#e1e1e1;fill-opacity:1;stroke:none;stroke-width:1px;stroke-linecap:butt;stroke-linejoin:miter;stroke-opacity:1"
     id="path3515" />
  <path
     d="m 736.24315,730.45495 q -3.105,0.09 -5.4,1.71 -2.295,1.62 -3.24,4.455 l 0,14.58 -3.06,0 0,-23.445 2.88,0 0,5.625 q 1.305,-2.7 3.51,-4.23 2.205,-1.53 4.725,-1.53 0.36,0 0.585,0.045 l 0,2.79 z"
     style="font-style:normal;font-variant:normal;font-weight:normal;font-stretch:normal;font-size:45px;line-height:150%;font-family:Raleway;-inkscape-font-specification:Raleway;letter-spacing:0px;word-spacing:0px;fill:#e1e1e1;fill-opacity:1;stroke:none;stroke-width:1px;stroke-linecap:butt;stroke-linejoin:miter;stroke-opacity:1"
     id="path3517" />
  <path
     d="m 749.29379,751.64995 q -2.565,0 -4.725,-0.945 -2.115,-0.99 -3.69,-2.655 -1.575,-1.71 -2.475,-3.915 -0.855,-2.205 -0.855,-4.725 0,-2.475 0.855,-4.635 0.9,-2.205 2.43,-3.825 1.575,-1.665 3.735,-2.61 2.16,-0.99 4.68,-0.99 2.565,0 4.68,0.99 2.16,0.945 3.69,2.61 1.53,1.665 2.385,3.825 0.855,2.16 0.855,4.59 0,0.36 0,0.72 0,0.36 -0.045,0.495 l -20.07,0 q 0.135,1.89 0.855,3.51 0.765,1.575 1.935,2.745 1.17,1.17 2.655,1.845 1.53,0.63 3.24,0.63 1.125,0 2.25,-0.315 1.125,-0.315 2.07,-0.855 0.945,-0.54 1.71,-1.305 0.765,-0.81 1.17,-1.755 l 2.655,0.72 q -0.54,1.305 -1.53,2.385 -0.99,1.035 -2.295,1.845 -1.305,0.765 -2.88,1.17 -1.575,0.45 -3.285,0.45 z m 8.64,-13.41 q -0.135,-1.89 -0.9,-3.42 -0.72,-1.575 -1.89,-2.7 -1.125,-1.125 -2.655,-1.755 -1.485,-0.63 -3.195,-0.63 -1.71,0 -3.24,0.63 -1.53,0.63 -2.7,1.755 -1.125,1.125 -1.845,2.7 -0.675,1.575 -0.81,3.42 l 17.235,0 z"
     style="font-style:normal;font-variant:normal;font-weight:normal;font-stretch:normal;font-size:45px;line-height:150%;font-family:Raleway;-inkscape-font-specification:Raleway;letter-spacing:0px;word-spacing:0px;fill:#e1e1e1;fill-opacity:1;stroke:none;stroke-width:1px;stroke-linecap:butt;stroke-linejoin:miter;stroke-opacity:1"
     id="path3519" />
  <path
     d="m 771.47905,751.64995 q -1.665,0 -3.105,-0.54 -1.395,-0.585 -2.475,-1.575 -1.035,-0.99 -1.62,-2.295 -0.585,-1.35 -0.585,-2.88 0,-1.53 0.72,-2.835 0.72,-1.305 2.025,-2.25 1.305,-0.945 3.105,-1.44 1.8,-0.54 3.96,-0.54 1.8,0 3.645,0.315 1.845,0.315 3.285,0.9 l 0,-2.115 q 0,-3.105 -1.755,-4.905 -1.755,-1.845 -4.86,-1.845 -1.8,0 -3.69,0.72 -1.89,0.72 -3.825,2.07 l -1.08,-2.025 q 4.545,-3.06 8.82,-3.06 4.41,0 6.93,2.475 2.52,2.475 2.52,6.84 l 0,10.575 q 0,1.26 1.125,1.26 l 0,2.7 q -0.765,0.135 -1.17,0.135 -1.17,0 -1.845,-0.585 -0.63,-0.585 -0.675,-1.62 l -0.09,-1.845 q -1.62,2.115 -4.095,3.24 -2.43,1.125 -5.265,1.125 z m 0.72,-2.34 q 2.385,0 4.365,-0.9 2.025,-0.9 3.06,-2.385 0.405,-0.405 0.585,-0.855 0.225,-0.495 0.225,-0.9 l 0,-3.825 q -1.53,-0.585 -3.195,-0.9 -1.62,-0.315 -3.33,-0.315 -3.24,0 -5.265,1.35 -2.025,1.35 -2.025,3.555 0,1.08 0.405,2.025 0.45,0.945 1.17,1.665 0.765,0.675 1.8,1.08 1.035,0.405 2.205,0.405 z"
     style="font-style:normal;font-variant:normal;font-weight:normal;font-stretch:normal;font-size:45px;line-height:150%;font-family:Raleway;-inkscape-font-specification:Raleway;letter-spacing:0px;word-spacing:0px;fill:#e1e1e1;fill-opacity:1;stroke:none;stroke-width:1px;stroke-linecap:butt;stroke-linejoin:miter;stroke-opacity:1"
     id="path3521" />
  <path
     d="m 801.80965,730.45495 q -3.105,0.09 -5.4,1.71 -2.295,1.62 -3.24,4.455 l 0,14.58 -3.06,0 0,-23.445 2.88,0 0,5.625 q 1.305,-2.7 3.51,-4.23 2.205,-1.53 4.725,-1.53 0.36,0 0.585,0.045 l 0,2.79 z"
     style="font-style:normal;font-variant:normal;font-weight:normal;font-stretch:normal;font-size:45px;line-height:150%;font-family:Raleway;-inkscape-font-specification:Raleway;letter-spacing:0px;word-spacing:0px;fill:#e1e1e1;fill-opacity:1;stroke:none;stroke-width:1px;stroke-linecap:butt;stroke-linejoin:miter;stroke-opacity:1"
     id="path3523" />
  <path
     d="m 805.63524,727.70995 0,-8.73 2.655,0 0,8.73 -2.655,0 z m 4.275,0 0,-8.73 2.655,0 0,8.73 -2.655,0 z"
     style="font-style:normal;font-variant:normal;font-weight:normal;font-stretch:normal;font-size:45px;line-height:150%;font-family:Raleway;-inkscape-font-specification:Raleway;letter-spacing:0px;word-spacing:0px;fill:#e1e1e1;fill-opacity:1;stroke:none;stroke-width:1px;stroke-linecap:butt;stroke-linejoin:miter;stroke-opacity:1"
     id="path3525" />
  <path
     d="m 1380.0001,500.00001 c 55.1799,0 100,44.82198 100,100 0,55.17799 -44.8201,100 -100,100 -55.18,0 -100.0001,-44.82201 -100,-100 0,-55.17802 44.82,-100 100,-100 z"
     style="opacity:1;fill:none;fill-opacity:1;stroke:#616161;stroke-width:6;stroke-miterlimit:4;stroke-dasharray:none;stroke-opacity:1"
     id="path4229" />
  <path
     id="path4222"
     d="m 1486.0001,594 c 3.3107,0 6,2.6893 6,6.00001 0,3.3107 -2.6893,6 -6,6"
     style="opacity:1;fill:#000000;fill-opacity:0;stroke:#616161;stroke-width:2;stroke-miterlimit:4;stroke-dasharray:none;stroke-opacity:1" />
  <path
     style="opacity:1;fill:#000000;fill-opacity:0;stroke:#616161;stroke-width:2;stroke-miterlimit:4;stroke-dasharray:none;stroke-opacity:1"
     d="m 1274.0001,606.00001 c -3.3108,0 -6.0001,-2.6893 -6,-6 0,-3.31071 2.6892,-6.00001 6,-6.00001"
     id="path4224" />
  <path
     style="opacity:1;fill:none;stroke:#616161;stroke-width:6;stroke-miterlimit:4;stroke-dasharray:none;stroke-opacity:1"
     d="m 1398.0001,683 -36,0"
     id="path4212" />
  <path
     id="path3814"
     style="opacity:1;fill:none;fill-opacity:1;stroke:#616161;stroke-width:2;stroke-miterlimit:4;stroke-dasharray:none;stroke-opacity:1"
     d="m 1380.0001,560.00001 c 22.0719,0 40,17.92878 40,40 0,22.07119 -17.9281,40 -40,40 -22.072,0 -40.0001,-17.92881 -40,-40 0,-22.07122 17.928,-40 40,-40 z" />
  <path
     id="path4616"
     style="opacity:1;fill:none;fill-opacity:1;stroke:#616161;stroke-width:2;stroke-miterlimit:4;stroke-dasharray:none;stroke-opacity:1"
     d="m 1380.0001,494.00001 c 58.4907,0 106,47.5113 106,106 0,58.48867 -47.5093,106 -106,106 -58.4908,0 -106.0001,-47.51133 -106,-106 0,-58.4887 47.5092,-106 106,-106 z" />
  <path
     style="opacity:1;fill:#000000;fill-opacity:0;stroke:#616161;stroke-width:2;stroke-miterlimit:4;stroke-dasharray:none;stroke-opacity:1"
     d="m 1374.0001,494 c 0,-3.3107 2.6893,-6 6,-6 3.3107,0 6,2.6893 6,6"
     id="path4618" />
  <path
     id="path4620"
     d="m 1386.0001,706 c 0,3.3108 -2.6893,6.0001 -6,6 -3.3107,0 -6,-2.6892 -6,-6"
     style="opacity:1;fill:#000000;fill-opacity:0;stroke:#616161;stroke-width:2;stroke-miterlimit:4;stroke-dasharray:none;stroke-opacity:1" />
  <path
     id="path4622"
     d="m 1300.8041,529.28932 c -2.341,-2.34102 -2.341,-6.14426 0,-8.48528 2.3411,-2.34102 6.1443,-2.34102 8.4853,0"
     style="opacity:1;fill:#000000;fill-opacity:0;stroke:#616161;stroke-width:2;stroke-miterlimit:4;stroke-dasharray:none;stroke-opacity:1" />
  <path
     style="opacity:1;fill:#000000;fill-opacity:0;stroke:#616161;stroke-width:2;stroke-miterlimit:4;stroke-dasharray:none;stroke-opacity:1"
     d="m 1459.1961,670.71068 c 2.341,2.34109 2.341,6.14433 0,8.48528 -2.3411,2.34102 -6.1442,2.34109 -8.4853,0"
     id="path4624" />
  <path
     style="opacity:1;fill:#000000;fill-opacity:0;stroke:#616161;stroke-width:2;stroke-miterlimit:4;stroke-dasharray:none;stroke-opacity:1"
     d="m 1309.2894,679.19601 c -2.341,2.341 -6.1442,2.341 -8.4853,0 -2.341,-2.3411 -2.341,-6.1443 0,-8.4853"
     id="path4626" />
  <path
     id="path4628"
     d="m 1450.7108,520.80401 c 2.3411,-2.341 6.1443,-2.341 8.4853,0 2.341,2.3411 2.341,6.1442 0,8.4853"
     style="opacity:1;fill:#000000;fill-opacity:0;stroke:#616161;stroke-width:2;stroke-miterlimit:4;stroke-dasharray:none;stroke-opacity:1" />
</svg>
