<?xml version="1.0" encoding="UTF-8" standalone="no"?>
<svg
   xmlns:dc="http://purl.org/dc/elements/1.1/"
   xmlns:cc="http://creativecommons.org/ns#"
   xmlns:rdf="http://www.w3.org/1999/02/22-rdf-syntax-ns#"
   xmlns:svg="http://www.w3.org/2000/svg"
   xmlns="http://www.w3.org/2000/svg"
   xmlns:sodipodi="http://sodipodi.sourceforge.net/DTD/sodipodi-0.dtd"
   xmlns:inkscape="http://www.inkscape.org/namespaces/inkscape"
   version="1.1"
   id="svg2"
   viewBox="0 0 1600 1200"
   height="1200"
   width="1600"
   inkscape:version="0.91 r13725"
   sodipodi:docname="8-plain.svg">
  <sodipodi:namedview
     pagecolor="#ffffff"
     bordercolor="#666666"
     borderopacity="1"
     objecttolerance="10"
     gridtolerance="10"
     guidetolerance="10"
     inkscape:pageopacity="0"
     inkscape:pageshadow="2"
     inkscape:window-width="1280"
     inkscape:window-height="756"
     id="namedview37"
     showgrid="false"
     inkscape:zoom="0.19666667"
     inkscape:cx="800"
     inkscape:cy="600"
     inkscape:window-x="0"
     inkscape:window-y="44"
     inkscape:window-maximized="1"
     inkscape:current-layer="svg2" />
  <defs
     id="defs4">
    <clipPath
       id="clipPath5728"
       clipPathUnits="userSpaceOnUse">
      <path
         id="path5730"
         d="m 633,242.36215 a 179.99999,179.99999 0 0 0 -180,180 179.99999,179.99999 0 0 0 180,180.00001 l 220,0 0,-360.00001 -220,0 z"
         style="color:#000000;display:inline;overflow:visible;visibility:visible;opacity:1;fill:#e1e1e1;fill-opacity:1;fill-rule:evenodd;stroke:none;stroke-width:2.00500011;stroke-linecap:butt;stroke-linejoin:round;stroke-miterlimit:4;stroke-dasharray:none;stroke-dashoffset:0;stroke-opacity:1;marker:none;enable-background:accumulate" />
    </clipPath>
  </defs>
  <metadata
     id="metadata7">
    <rdf:RDF>
      <cc:Work
         rdf:about="">
        <dc:format>image/svg+xml</dc:format>
        <dc:type
           rdf:resource="http://purl.org/dc/dcmitype/StillImage" />
        <dc:title />
      </cc:Work>
    </rdf:RDF>
  </metadata>
  <path
     inkscape:connector-curvature="0"
     style="color:#000000;display:inline;overflow:visible;visibility:visible;opacity:1;fill:#2b3233;fill-opacity:1;fill-rule:evenodd;stroke:none;stroke-width:9;stroke-linecap:butt;stroke-linejoin:round;stroke-miterlimit:4;stroke-dasharray:none;stroke-dashoffset:0;stroke-opacity:1;marker:none;enable-background:accumulate"
     d="M 1600,1e-5 0,1e-5 0,1200 l 1600,0 z"
     id="rect4535" />
  <path
     inkscape:connector-curvature="0"
     style="color:#000000;display:inline;overflow:visible;visibility:visible;opacity:1;fill:#aa243b;fill-opacity:1;fill-rule:evenodd;stroke:none;stroke-width:9;stroke-linecap:butt;stroke-linejoin:round;stroke-miterlimit:4;stroke-dasharray:none;stroke-dashoffset:0;stroke-opacity:1;marker:none;enable-background:accumulate"
     d="m 0,0 0,1200 440,0 c -11.0457,0 -20,-8.9543 -20,-20 0,-11.0457 8.9543,-20 20,-20 l 15,0 c 11.04569,0 20,-8.9542 20,-20 0,-11.0457 -8.95431,-20 -20,-20 l -70,0 c -11.04569,0 -20,-8.9543 -20,-20 0,-11.0457 8.95431,-20 20,-20 l 5,0 c 11.04569,0 20,-8.9543 20,-20 0,-11.0457 -8.95431,-20 -20,-20 l -20,0 c -11.04569,0 -20,-8.9543 -20,-20 0,-11.0457 8.95431,-20 20,-20 l 45,0 c 11.04569,0 20,-8.95428 20,-20 0,-11.0457 -8.95431,-20 -20,-20 l -35,0 c -11.04569,0 -20,-8.95431 -20,-20 0,-11.0457 8.95431,-20 20,-20 11.0457,0 20,-8.95428 20,-20 0,-11.0457 -8.9543,-20 -20,-20 l -30,0 c -11.0457,0 -20,-8.95431 -20,-20 0,-11.0457 8.9543,-20 20,-20 l 10,0 c 11.04569,0 20,-8.95428 20,-20 0,-11.0457 -8.95431,-20 -20,-20 l -90,0 c -11.04569,0 -20,-8.95431 -20,-20 0,-11.04569 20,-20 20,-20 l 10,0 c 0,0 20,-8.95428 20,-20 0,-11.04569 -8.95431,-20 -20,-20 -11.04569,0 -20,-8.95431 -20,-20 0,-11.04569 8.95431,-20 20,-20 l 30,0 c 11.04569,0 20,-8.95429 20,-20 0,-11.0457 -8.95431,-20 -20,-20 l -45,0 c -11.0457,0 -20,-8.95431 -20,-20 0,-11.04569 8.9543,-20 20,-20 l 40,0 c 11.04569,0 20,-8.95428 20,-20 0,-11.0457 -8.95431,-20 -20,-20 l -100,0 c -11.04569,0 -20,-8.95431 -20,-20 0,-11.04569 8.95431,-20 20,-20 l 5,0 c 11.04569,0 20,-8.95428 20,-20 0,-11.0457 -8.95431,-20 -20,-20 l -20,0 c -11.04569,0 -20,-8.9543 -20,-20 0,-11.04569 8.95431,-20 20,-20 l 75,0 c 11.04569,0 20,-8.95428 20,-20 0,-11.0457 -8.95431,-20 -20,-20 l -35,0 c -11.04569,0 -20,-8.95431 -20,-20 0,-11.0457 8.95431,-20 20,-20 11.0457,0 20,-8.95428 20,-20 0,-11.0457 -8.9543,-20 -20,-20 l -30,0 c -11.0457,0 -20,-8.95431 -20,-20 0,-11.0457 8.9543,-20 20,-20 l 50,0 c 11.04569,0 20,-8.95428 20,-20 0,-11.0457 -8.95431,-20 -20,-20 l -30,0 c -11.04569,0 -20,-8.95431 -20,-20 0,-11.04569 8.95431,-20 20,-20 l 40,0 c 11.04569,0 20,-8.95428 20,-20 0,-11.04569 -8.95431,-20 -20,-20 -11.04569,0 -20,-8.95431 -20,-20 0,-11.04569 8.95431,-20 20,-20 l 30,0 c 11.04569,0 20,-8.95429 20,-20 0,-11.0457 -8.95431,-20 -20,-20 l -15,0 c -11.0457,0 -20,-8.95431 -20,-20 0,-11.04569 8.9543,-20 20,-20 l 5,0 c 11.04569,0 20,-8.9543 20,-20 C 300,8.9543 291.04569,0 280,0 Z"
     id="path4827" />
  <g
     transform="matrix(2.9268293,0,0,2.9268293,1048.811,-2086.4635)"
     id="layer1-2"
     style="fill:#681e2d;fill-opacity:1">
    <path
       inkscape:connector-curvature="0"
       id="rect4159"
       transform="translate(-337.84375,1020.375)"
       d="m 0,0 0,38 20,-10 14,7 28,-14 0,20 12,6 8,-4 0,-43 z m 50,30 -2,1 0,19 -12,6 0,-19 -2,1 0,19 L 22,63 22,43 8,36 0,40 0,82 82,82 82,45 62,55 50,49 Z"
       style="color:#000000;display:inline;overflow:visible;visibility:visible;opacity:1;fill:#681e2d;fill-opacity:1;fill-rule:evenodd;stroke:none;stroke-width:4;stroke-linecap:butt;stroke-linejoin:miter;stroke-miterlimit:4;stroke-dasharray:none;stroke-dashoffset:0;stroke-opacity:1;marker:none;enable-background:accumulate" />
  </g>
  <path
     inkscape:connector-curvature="0"
     id="path4195"
     style="font-style:normal;font-variant:normal;font-weight:300;font-stretch:normal;font-size:90px;line-height:125%;font-family:Raleway;-inkscape-font-specification:'Raleway Light';text-align:end;letter-spacing:0px;word-spacing:0px;text-anchor:end;fill:#681e2d;fill-opacity:1;stroke:none;stroke-width:1px;stroke-linecap:butt;stroke-linejoin:miter;stroke-opacity:1"
     d="m 125.7,486.3296 -63.900003,0 0,-41.58 4.14,0 0,36.99 25.38,0 0,-31.41 3.96,0 0,31.41 30.420003,0 0,4.59 z" />
  <path
     inkscape:connector-curvature="0"
     id="path4197"
     style="font-style:normal;font-variant:normal;font-weight:300;font-stretch:normal;font-size:90px;line-height:125%;font-family:Raleway;-inkscape-font-specification:'Raleway Light';text-align:end;letter-spacing:0px;word-spacing:0px;text-anchor:end;fill:#681e2d;fill-opacity:1;stroke:none;stroke-width:1px;stroke-linecap:butt;stroke-linejoin:miter;stroke-opacity:1"
     d="m 126.6,417.65999 q 0,4.95 -1.89,9.18 -1.98,4.14 -5.31,7.2 -3.33,3.06 -7.74,4.77 -4.41,1.71 -9.27,1.71 -4.950003,0 -9.360003,-1.71 -4.41,-1.8 -7.74,-4.86 -3.33,-3.06 -5.22,-7.2 -1.98,-4.23 -1.98,-9.09 0,-4.86 1.98,-9 1.89,-4.14 5.22,-7.2 3.33,-3.15 7.74,-4.86 4.41,-1.8 9.360003,-1.8 4.86,0 9.27,1.8 4.41,1.71 7.74,4.77 3.33,3.06 5.31,7.29 1.89,4.14 1.89,9 z m -24.03,18.36 q 4.14,0 7.83,-1.44 3.6,-1.44 6.3,-3.87 2.7,-2.52 4.32,-5.85 1.53,-3.33 1.53,-7.11 0,-3.78 -1.53,-7.11 -1.62,-3.33 -4.41,-5.85 -2.79,-2.52 -6.39,-3.96 -3.69,-1.44 -7.92,-1.44 -4.140003,0 -7.740003,1.44 -3.69,1.44 -6.39,3.96 -2.79,2.52 -4.41,5.85 -1.62,3.24 -1.62,7.02 0,3.78 1.62,7.11 1.62,3.33 4.41,5.85 2.79,2.43 6.57,3.96 3.69,1.44 7.830003,1.44 z" />
  <path
     inkscape:connector-curvature="0"
     id="path4199"
     style="font-style:normal;font-variant:normal;font-weight:300;font-stretch:normal;font-size:90px;line-height:125%;font-family:Raleway;-inkscape-font-specification:'Raleway Light';text-align:end;letter-spacing:0px;word-spacing:0px;text-anchor:end;fill:#681e2d;fill-opacity:1;stroke:none;stroke-width:1px;stroke-linecap:butt;stroke-linejoin:miter;stroke-opacity:1"
     d="m 82.949997,361.85904 q 0.18,6.3 3.78,11.07 3.51,4.68 9.72,6.57 l 29.250003,0 0,4.5 -46.800003,0 0,-4.32 11.52,0 q -4.95,-2.43 -8.01,-6.39 -3.15,-4.05 -3.6,-8.64 -0.09,-0.9 -0.09,-1.62 0,-0.72 0,-1.17 l 4.23,0 z" />
  <path
     inkscape:connector-curvature="0"
     id="path4201"
     style="font-style:normal;font-variant:normal;font-weight:300;font-stretch:normal;font-size:90px;line-height:125%;font-family:Raleway;-inkscape-font-specification:'Raleway Light';text-align:end;letter-spacing:0px;word-spacing:0px;text-anchor:end;fill:#681e2d;fill-opacity:1;stroke:none;stroke-width:1px;stroke-linecap:butt;stroke-linejoin:miter;stroke-opacity:1"
     d="m 123.45,332.42873 q 0.18,0.36 0.72,1.26 0.45,0.81 0.9,2.16 0.45,1.26 0.81,2.88 0.36,1.62 0.36,3.51 0,1.89 -0.54,3.6 -0.54,1.62 -1.62,2.88 -1.08,1.26 -2.61,1.98 -1.53,0.72 -3.6,0.72 l -35.280003,0 0,6.57 -3.69,0 0,-6.57 -16.02,0 0,-4.5 16.02,0 0,-10.89 3.69,0 0,10.89 34.200003,0 q 2.61,0 3.96,-1.8 1.26,-1.8 1.26,-4.05 0,-2.79 -0.9,-4.77 -0.99,-2.07 -1.26,-2.52 l 3.6,-1.35 z" />
  <path
     inkscape:connector-curvature="0"
     id="path4203"
     style="font-style:normal;font-variant:normal;font-weight:300;font-stretch:normal;font-size:90px;line-height:125%;font-family:Raleway;-inkscape-font-specification:'Raleway Light';text-align:end;letter-spacing:0px;word-spacing:0px;text-anchor:end;fill:#681e2d;fill-opacity:1;stroke:none;stroke-width:1px;stroke-linecap:butt;stroke-linejoin:miter;stroke-opacity:1"
     d="m 126.6,312.98807 q 0,3.24 -1.08,6.03 -1.17,2.79 -3.06,4.95 -1.98,2.07 -4.59,3.24 -2.7,1.17 -5.76,1.17 -3.06,0 -5.58,-1.44 -2.52,-1.44 -4.32,-3.96 -1.89,-2.61 -2.880003,-6.21 -1.08,-3.6 -1.08,-7.92 0,-3.78 0.72,-7.56 0.63,-3.87 1.800003,-6.93 l -4.590003,0 q -6.66,0 -10.53,3.78 -3.96,3.78 -3.96,10.26 0,3.42 1.44,7.29 1.44,3.78 4.14,7.74 l -3.06,1.71 q -6.12,-9 -6.12,-17.1 0,-8.46 4.95,-13.32 4.86,-4.86 13.5,-4.86 l 22.860003,0 q 2.25,0 2.25,-1.98 l 4.05,0 q 0.09,0.45 0.09,0.99 0.09,0.45 0.09,0.81 0,1.8 -1.17,2.88 -1.26,1.08 -2.97,1.26 l -3.87,0 q 4.23,3.24 6.48,8.28 2.25,5.04 2.25,10.89 z m -3.6,-0.9 q 0,-5.22 -1.98,-9.54 -1.98,-4.41 -5.22,-6.75 -1.89,-1.44 -3.6,-1.44 l -8.28,0 q -1.26,3.24 -1.89,6.75 -0.63,3.51 -0.63,7.29 0,3.51 0.81,6.39 0.72,2.88 2.07,4.95 1.35,2.07 3.33,3.24 1.89,1.08 4.23,1.08 2.34,0 4.41,-0.9 2.07,-0.9 3.6,-2.52 1.44,-1.62 2.34,-3.78 0.81,-2.25 0.81,-4.77 z" />
  <path
     inkscape:connector-curvature="0"
     id="path4205"
     style="font-style:normal;font-variant:normal;font-weight:300;font-stretch:normal;font-size:90px;line-height:125%;font-family:Raleway;-inkscape-font-specification:'Raleway Light';text-align:end;letter-spacing:0px;word-spacing:0px;text-anchor:end;fill:#681e2d;fill-opacity:1;stroke:none;stroke-width:1px;stroke-linecap:butt;stroke-linejoin:miter;stroke-opacity:1"
     d="m 59.999997,275.81921 0,-4.59 56.430003,0 q 2.61,0 4.14,-1.44 1.53,-1.53 1.53,-4.14 0,-0.99 -0.18,-2.34 -0.27,-1.44 -0.72,-2.61 l 3.6,-0.9 q 0.63,1.53 0.99,3.78 0.45,2.25 0.45,3.87 0,3.78 -2.25,6.12 -2.34,2.25 -6.21,2.25 l -57.780003,0 z" />
  <path
     inkscape:connector-curvature="0"
     id="path4207"
     style="font-style:normal;font-variant:normal;font-weight:300;font-stretch:normal;font-size:90px;line-height:125%;font-family:Raleway;-inkscape-font-specification:'Raleway Light';text-align:end;letter-spacing:0px;word-spacing:0px;text-anchor:end;fill:#681e2d;fill-opacity:1;stroke:none;stroke-width:1px;stroke-linecap:butt;stroke-linejoin:miter;stroke-opacity:1"
     d="m 126.6,232.97897 q 0,4.95 -1.89,9.18 -1.98,4.23 -5.31,7.38 -3.42,3.06 -7.83,4.86 -4.41,1.71 -9.45,1.71 -4.950003,0 -9.270003,-1.71 -4.41,-1.8 -7.65,-4.86 -3.33,-3.06 -5.22,-7.2 -1.89,-4.23 -1.89,-9.09 0,-4.95 1.98,-9.18 1.89,-4.23 5.22,-7.29 3.24,-3.06 7.65,-4.77 4.32,-1.71 9.180003,-1.71 0.45,0 1.17,0 0.63,0 0.81,0.09 l 0,41.04 q 4.05,-0.27 7.56,-1.89 3.42,-1.62 5.94,-4.05 2.52,-2.52 3.96,-5.76 1.44,-3.24 1.44,-6.93 0,-2.43 -0.63,-4.77 -0.72,-2.34 -1.89,-4.32 -1.17,-2.07 -2.79,-3.6 -1.71,-1.62 -3.69,-2.52 l 1.08,-3.96 q 2.52,0.99 4.68,2.97 2.07,1.89 3.6,4.5 1.53,2.52 2.34,5.58 0.9,3.06 0.9,6.3 z m -26.1,-18.36 q -4.140003,0.27 -7.560003,1.89 -3.42,1.53 -5.85,4.05 -2.52,2.43 -3.87,5.67 -1.44,3.24 -1.44,6.93 0,3.69 1.44,6.93 1.35,3.24 3.87,5.76 2.43,2.43 5.94,3.96 3.42,1.44 7.470003,1.71 l 0,-36.9 z" />
  <path
     inkscape:connector-curvature="0"
     id="path4209"
     style="font-style:normal;font-variant:normal;font-weight:300;font-stretch:normal;font-size:90px;line-height:125%;font-family:Raleway;-inkscape-font-specification:'Raleway Light';text-align:end;letter-spacing:0px;word-spacing:0px;text-anchor:end;fill:#681e2d;fill-opacity:1;stroke:none;stroke-width:1px;stroke-linecap:butt;stroke-linejoin:miter;stroke-opacity:1"
     d="m 122.46,205.34816 -40.050003,-33.12 0,32.58 -3.51,0 0,-37.62 3.24,0 40.050003,33.03 0,-32.85 3.51,0 0,37.98 -3.24,0 z" />
  <path
     inkscape:connector-curvature="0"
     id="path4211"
     style="font-style:normal;font-variant:normal;font-weight:300;font-stretch:normal;font-size:90px;line-height:125%;font-family:Raleway;-inkscape-font-specification:'Raleway Light';text-align:end;letter-spacing:0px;word-spacing:0px;text-anchor:end;fill:#681e2d;fill-opacity:1;stroke:none;stroke-width:1px;stroke-linecap:butt;stroke-linejoin:miter;stroke-opacity:1"
     d="m 126.6,145.58904 q 0,3.24 -1.08,6.03 -1.17,2.79 -3.06,4.95 -1.98,2.07 -4.59,3.24 -2.7,1.17 -5.76,1.17 -3.06,0 -5.58,-1.44 -2.52,-1.44 -4.32,-3.96 -1.89,-2.61 -2.880003,-6.21 -1.08,-3.6 -1.08,-7.92 0,-3.78 0.72,-7.56 0.63,-3.87 1.800003,-6.93 l -4.590003,0 q -6.66,0 -10.53,3.78 -3.96,3.78 -3.96,10.26 0,3.42 1.44,7.29 1.44,3.78 4.14,7.74 l -3.06,1.71 q -6.12,-9 -6.12,-17.1 0,-8.46 4.95,-13.32 4.86,-4.86 13.5,-4.86 l 22.860003,0 q 2.25,0 2.25,-1.98 l 4.05,0 q 0.09,0.45 0.09,0.99 0.09,0.45 0.09,0.81 0,1.8 -1.17,2.88 -1.26,1.08 -2.97,1.26 l -3.87,0 q 4.23,3.24 6.48,8.28 2.25,5.04 2.25,10.89 z m -3.6,-0.9 q 0,-5.22 -1.98,-9.54 -1.98,-4.41 -5.22,-6.75 -1.89,-1.44 -3.6,-1.44 l -8.28,0 q -1.26,3.24 -1.89,6.75 -0.63,3.51 -0.63,7.29 0,3.51 0.81,6.39 0.72,2.88 2.07,4.95 1.35,2.07 3.33,3.24 1.89,1.08 4.23,1.08 2.34,0 4.41,-0.9 2.07,-0.9 3.6,-2.52 1.44,-1.62 2.34,-3.78 0.81,-2.25 0.81,-4.77 z" />
  <path
     inkscape:connector-curvature="0"
     id="path4213"
     style="font-style:normal;font-variant:normal;font-weight:300;font-stretch:normal;font-size:90px;line-height:125%;font-family:Raleway;-inkscape-font-specification:'Raleway Light';text-align:end;letter-spacing:0px;word-spacing:0px;text-anchor:end;fill:#681e2d;fill-opacity:1;stroke:none;stroke-width:1px;stroke-linecap:butt;stroke-linejoin:miter;stroke-opacity:1"
     d="m 126.6,93.930182 q 0,5.4 -1.8,10.349998 -1.8,4.95 -5.4,8.64 l -3.06,-2.25 q 3.42,-3.78 5.04,-7.83 1.62,-4.049998 1.62,-8.909998 0,-6.12 -2.52,-9.81 -2.61,-3.78 -7.2,-3.78 -2.16,0 -3.6,0.99 -1.53,0.9 -2.52,2.79 -1.08,1.89 -1.89,4.68 -0.81,2.79 -1.71,6.48 -0.9,3.96 -1.8,6.929998 -0.9,2.88 -2.160003,4.77 -1.26,1.89 -3.06,2.88 -1.8,0.9 -4.59,0.9 -3.51,0 -6.12,-1.35 -2.61,-1.35 -4.32,-3.69 -1.71,-2.43 -2.52,-5.49 -0.9,-3.149998 -0.9,-6.659998 0,-5.49 1.89,-9.72 1.8,-4.23 4.68,-6.57 l 2.43,2.52 q -2.7,2.34 -4.05,6.12 -1.35,3.69 -1.35,7.92 0,2.61 0.54,4.95 0.54,2.249998 1.71,3.959998 1.17,1.71 3.06,2.7 1.8,0.99 4.32,0.99 2.07,0 3.33,-0.63 1.26,-0.72 2.16,-2.16 0.9,-1.53 1.62,-3.869998 0.63,-2.34 1.44,-5.58 1.080003,-4.41 2.070003,-7.83 0.99,-3.42 2.43,-5.67 1.44,-2.34 3.42,-3.51 1.98,-1.26 5.04,-1.26 6.3,0 10.08,4.95 3.69,4.86 3.69,13.05 z" />
  <path
     inkscape:connector-curvature="0"
     id="path4215"
     style="font-style:normal;font-variant:normal;font-weight:300;font-stretch:normal;font-size:90px;line-height:125%;font-family:Raleway;-inkscape-font-specification:'Raleway Light';text-align:end;letter-spacing:0px;word-spacing:0px;text-anchor:end;fill:#681e2d;fill-opacity:1;stroke:none;stroke-width:1px;stroke-linecap:butt;stroke-linejoin:miter;stroke-opacity:1"
     d="m 125.7,66.481303 -7.65,0 0,-3.96 7.65,0 0,3.96 z" />
  <path
     inkscape:connector-curvature="0"
     style="color:#000000;display:inline;overflow:visible;visibility:visible;opacity:1;fill:#e1e1e1;fill-opacity:1;fill-rule:evenodd;stroke:none;stroke-width:2.00500011;stroke-linecap:butt;stroke-linejoin:round;stroke-miterlimit:4;stroke-dasharray:none;stroke-dashoffset:0;stroke-opacity:1;marker:none;enable-background:accumulate"
     d="M 1560.0001,600.00002 A 179.99999,179.99999 0 0 1 1380,780.00001 179.99999,179.99999 0 0 1 1200,600.00002 179.99999,179.99999 0 0 1 1380,420.00001 179.99999,179.99999 0 0 1 1560.0001,600.00002 Z"
     id="path5505" />
  <path
     inkscape:connector-curvature="0"
     style="color:#000000;display:inline;overflow:visible;visibility:visible;opacity:1;fill:#e1e1e1;fill-opacity:1;fill-rule:evenodd;stroke:none;stroke-width:2.00500011;stroke-linecap:butt;stroke-linejoin:round;stroke-miterlimit:4;stroke-dasharray:none;stroke-dashoffset:0;stroke-opacity:1;marker:none;enable-background:accumulate"
     d="m 1380,419.99999 220,0 0,360.00002 -220,0 z"
     id="rect5679" />
  <path
     inkscape:connector-curvature="0"
     id="path4218"
     style="font-style:normal;font-variant:normal;font-weight:normal;font-stretch:normal;font-size:45px;line-height:150%;font-family:Raleway;-inkscape-font-specification:Raleway;letter-spacing:0px;word-spacing:0px;fill:#e1e1e1;fill-opacity:1;stroke:none;stroke-width:1px;stroke-linecap:butt;stroke-linejoin:miter;stroke-opacity:1"
     d="m 533.92,515.15248 -21.24,31.95 -3.465,0 21.24,-31.95 3.465,0 z" />
  <path
     inkscape:connector-curvature="0"
     id="path4220"
     style="font-style:normal;font-variant:normal;font-weight:normal;font-stretch:normal;font-size:45px;line-height:150%;font-family:Raleway;-inkscape-font-specification:Raleway;letter-spacing:0px;word-spacing:0px;fill:#e1e1e1;fill-opacity:1;stroke:none;stroke-width:1px;stroke-linecap:butt;stroke-linejoin:miter;stroke-opacity:1"
     d="m 549.98519,515.15248 -21.24,31.95 -3.465,0 21.24,-31.95 3.465,0 z" />
  <path
     inkscape:connector-curvature="0"
     id="path4222"
     style="font-style:normal;font-variant:normal;font-weight:normal;font-stretch:normal;font-size:45px;line-height:150%;font-family:Raleway;-inkscape-font-specification:Raleway;letter-spacing:0px;word-spacing:0px;fill:#e1e1e1;fill-opacity:1;stroke:none;stroke-width:1px;stroke-linecap:butt;stroke-linejoin:miter;stroke-opacity:1"
     d="m 566.72558,547.10248 0,-31.95 10.845,0 q 3.825,0 6.66,1.26 2.88,1.26 4.77,3.42 1.935,2.16 2.88,5.085 0.99,2.88 0.99,6.165 0,3.645 -1.08,6.615 -1.08,2.925 -3.105,5.04 -1.98,2.07 -4.815,3.24 -2.79,1.125 -6.3,1.125 l -10.845,0 z m 22.995,-16.02 q 0,-2.88 -0.81,-5.265 -0.81,-2.43 -2.385,-4.185 -1.53,-1.755 -3.78,-2.7 -2.25,-0.99 -5.175,-0.99 l -7.695,0 0,26.37 7.695,0 q 2.97,0 5.22,-0.99 2.295,-1.035 3.825,-2.79 1.53,-1.8 2.295,-4.185 0.81,-2.43 0.81,-5.265 z" />
  <path
     inkscape:connector-curvature="0"
     id="path4224"
     style="font-style:normal;font-variant:normal;font-weight:normal;font-stretch:normal;font-size:45px;line-height:150%;font-family:Raleway;-inkscape-font-specification:Raleway;letter-spacing:0px;word-spacing:0px;fill:#e1e1e1;fill-opacity:1;stroke:none;stroke-width:1px;stroke-linecap:butt;stroke-linejoin:miter;stroke-opacity:1"
     d="m 608.39542,547.55248 q -2.565,0 -4.725,-0.945 -2.115,-0.99 -3.69,-2.655 -1.575,-1.71 -2.475,-3.915 -0.855,-2.205 -0.855,-4.725 0,-2.475 0.855,-4.635 0.9,-2.205 2.43,-3.825 1.575,-1.665 3.735,-2.61 2.16,-0.99 4.68,-0.99 2.565,0 4.68,0.99 2.16,0.945 3.69,2.61 1.53,1.665 2.385,3.825 0.855,2.16 0.855,4.59 0,0.36 0,0.72 0,0.36 -0.045,0.495 l -20.07,0 q 0.135,1.89 0.855,3.51 0.765,1.575 1.935,2.745 1.17,1.17 2.655,1.845 1.53,0.63 3.24,0.63 1.125,0 2.25,-0.315 1.125,-0.315 2.07,-0.855 0.945,-0.54 1.71,-1.305 0.765,-0.81 1.17,-1.755 l 2.655,0.72 q -0.54,1.305 -1.53,2.385 -0.99,1.035 -2.295,1.845 -1.305,0.765 -2.88,1.17 -1.575,0.45 -3.285,0.45 z m 8.64,-13.41 q -0.135,-1.89 -0.9,-3.42 -0.72,-1.575 -1.89,-2.7 -1.125,-1.125 -2.655,-1.755 -1.485,-0.63 -3.195,-0.63 -1.71,0 -3.24,0.63 -1.53,0.63 -2.7,1.755 -1.125,1.125 -1.845,2.7 -0.675,1.575 -0.81,3.42 l 17.235,0 z" />
  <path
     inkscape:connector-curvature="0"
     id="path4226"
     style="font-style:normal;font-variant:normal;font-weight:normal;font-stretch:normal;font-size:45px;line-height:150%;font-family:Raleway;-inkscape-font-specification:Raleway;letter-spacing:0px;word-spacing:0px;fill:#e1e1e1;fill-opacity:1;stroke:none;stroke-width:1px;stroke-linecap:butt;stroke-linejoin:miter;stroke-opacity:1"
     d="m 634.31567,547.55248 q -2.43,0 -4.5,-0.99 -2.07,-1.035 -3.555,-2.7 -1.485,-1.665 -2.34,-3.825 -0.81,-2.205 -0.81,-4.59 0,-2.475 0.81,-4.68 0.81,-2.25 2.205,-3.915 1.44,-1.665 3.375,-2.61 1.98,-0.99 4.32,-0.99 2.97,0 5.265,1.575 2.295,1.53 3.6,3.735 l 0,-14.31 3.06,0 0,28.89 q 0,1.26 1.08,1.26 l 0,2.7 q -0.675,0.135 -1.08,0.135 -1.08,0 -1.89,-0.675 -0.81,-0.72 -0.81,-1.71 l 0,-2.295 q -1.395,2.295 -3.78,3.645 -2.385,1.35 -4.95,1.35 z m 0.675,-2.7 q 1.125,0 2.385,-0.45 1.305,-0.45 2.43,-1.215 1.125,-0.81 1.89,-1.845 0.81,-1.08 0.99,-2.295 l 0,-7.245 q -0.45,-1.215 -1.305,-2.25 -0.855,-1.08 -1.98,-1.89 -1.08,-0.81 -2.34,-1.26 -1.26,-0.45 -2.475,-0.45 -1.89,0 -3.42,0.81 -1.53,0.81 -2.655,2.16 -1.08,1.305 -1.665,3.015 -0.585,1.71 -0.585,3.51 0,1.89 0.675,3.6 0.675,1.71 1.845,3.015 1.17,1.26 2.745,2.025 1.62,0.765 3.465,0.765 z" />
  <path
     inkscape:connector-curvature="0"
     id="path4228"
     style="font-style:normal;font-variant:normal;font-weight:normal;font-stretch:normal;font-size:45px;line-height:150%;font-family:Raleway;-inkscape-font-specification:Raleway;letter-spacing:0px;word-spacing:0px;fill:#e1e1e1;fill-opacity:1;stroke:none;stroke-width:1px;stroke-linecap:butt;stroke-linejoin:miter;stroke-opacity:1"
     d="m 652.67609,547.10248 0,-23.445 3.06,0 0,23.445 -3.06,0 z m 0,-28.35 0,-4.5 3.06,0 0,4.5 -3.06,0 z" />
  <path
     inkscape:connector-curvature="0"
     id="path4230"
     style="font-style:normal;font-variant:normal;font-weight:normal;font-stretch:normal;font-size:45px;line-height:150%;font-family:Raleway;-inkscape-font-specification:Raleway;letter-spacing:0px;word-spacing:0px;fill:#e1e1e1;fill-opacity:1;stroke:none;stroke-width:1px;stroke-linecap:butt;stroke-linejoin:miter;stroke-opacity:1"
     d="m 660.8655,535.31248 q 0,-2.475 0.855,-4.68 0.855,-2.205 2.385,-3.825 1.575,-1.665 3.735,-2.61 2.16,-0.945 4.77,-0.945 3.33,0 5.805,1.53 2.475,1.485 3.735,4.05 l -2.97,0.945 q -0.99,-1.8 -2.79,-2.79 -1.755,-1.035 -3.915,-1.035 -1.8,0 -3.375,0.72 -1.53,0.72 -2.7,1.98 -1.125,1.215 -1.8,2.925 -0.63,1.71 -0.63,3.735 0,1.98 0.675,3.735 0.675,1.755 1.845,3.06 1.17,1.26 2.7,2.025 1.575,0.72 3.33,0.72 1.125,0 2.205,-0.315 1.125,-0.315 2.07,-0.855 0.945,-0.585 1.62,-1.305 0.675,-0.72 0.945,-1.53 l 3.015,0.9 q -0.495,1.26 -1.44,2.34 -0.945,1.035 -2.25,1.845 -1.26,0.765 -2.835,1.17 -1.53,0.45 -3.195,0.45 -2.565,0 -4.725,-0.945 -2.16,-0.99 -3.735,-2.655 -1.575,-1.71 -2.475,-3.915 -0.855,-2.205 -0.855,-4.725 z" />
  <path
     inkscape:connector-curvature="0"
     id="path4232"
     style="font-style:normal;font-variant:normal;font-weight:normal;font-stretch:normal;font-size:45px;line-height:150%;font-family:Raleway;-inkscape-font-specification:Raleway;letter-spacing:0px;word-spacing:0px;fill:#e1e1e1;fill-opacity:1;stroke:none;stroke-width:1px;stroke-linecap:butt;stroke-linejoin:miter;stroke-opacity:1"
     d="m 693.08601,547.55248 q -1.665,0 -3.105,-0.54 -1.395,-0.585 -2.475,-1.575 -1.035,-0.99 -1.62,-2.295 -0.585,-1.35 -0.585,-2.88 0,-1.53 0.72,-2.835 0.72,-1.305 2.025,-2.25 1.305,-0.945 3.105,-1.44 1.8,-0.54 3.96,-0.54 1.8,0 3.645,0.315 1.845,0.315 3.285,0.9 l 0,-2.115 q 0,-3.105 -1.755,-4.905 -1.755,-1.845 -4.86,-1.845 -1.8,0 -3.69,0.72 -1.89,0.72 -3.825,2.07 l -1.08,-2.025 q 4.545,-3.06 8.82,-3.06 4.41,0 6.93,2.475 2.52,2.475 2.52,6.84 l 0,10.575 q 0,1.26 1.125,1.26 l 0,2.7 q -0.765,0.135 -1.17,0.135 -1.17,0 -1.845,-0.585 -0.63,-0.585 -0.675,-1.62 l -0.09,-1.845 q -1.62,2.115 -4.095,3.24 -2.43,1.125 -5.265,1.125 z m 0.72,-2.34 q 2.385,0 4.365,-0.9 2.025,-0.9 3.06,-2.385 0.405,-0.405 0.585,-0.855 0.225,-0.495 0.225,-0.9 l 0,-3.825 q -1.53,-0.585 -3.195,-0.9 -1.62,-0.315 -3.33,-0.315 -3.24,0 -5.265,1.35 -2.025,1.35 -2.025,3.555 0,1.08 0.405,2.025 0.45,0.945 1.17,1.665 0.765,0.675 1.8,1.08 1.035,0.405 2.205,0.405 z" />
  <path
     inkscape:connector-curvature="0"
     id="path4234"
     style="font-style:normal;font-variant:normal;font-weight:normal;font-stretch:normal;font-size:45px;line-height:150%;font-family:Raleway;-inkscape-font-specification:Raleway;letter-spacing:0px;word-spacing:0px;fill:#e1e1e1;fill-opacity:1;stroke:none;stroke-width:1px;stroke-linecap:butt;stroke-linejoin:miter;stroke-opacity:1"
     d="m 710.09661,535.31248 q 0,-2.475 0.855,-4.68 0.855,-2.205 2.385,-3.825 1.575,-1.665 3.735,-2.61 2.16,-0.945 4.77,-0.945 3.33,0 5.805,1.53 2.475,1.485 3.735,4.05 l -2.97,0.945 q -0.99,-1.8 -2.79,-2.79 -1.755,-1.035 -3.915,-1.035 -1.8,0 -3.375,0.72 -1.53,0.72 -2.7,1.98 -1.125,1.215 -1.8,2.925 -0.63,1.71 -0.63,3.735 0,1.98 0.675,3.735 0.675,1.755 1.845,3.06 1.17,1.26 2.7,2.025 1.575,0.72 3.33,0.72 1.125,0 2.205,-0.315 1.125,-0.315 2.07,-0.855 0.945,-0.585 1.62,-1.305 0.675,-0.72 0.945,-1.53 l 3.015,0.9 q -0.495,1.26 -1.44,2.34 -0.945,1.035 -2.25,1.845 -1.26,0.765 -2.835,1.17 -1.53,0.45 -3.195,0.45 -2.565,0 -4.725,-0.945 -2.16,-0.99 -3.735,-2.655 -1.575,-1.71 -2.475,-3.915 -0.855,-2.205 -0.855,-4.725 z" />
  <path
     inkscape:connector-curvature="0"
     id="path4236"
     style="font-style:normal;font-variant:normal;font-weight:normal;font-stretch:normal;font-size:45px;line-height:150%;font-family:Raleway;-inkscape-font-specification:Raleway;letter-spacing:0px;word-spacing:0px;fill:#e1e1e1;fill-opacity:1;stroke:none;stroke-width:1px;stroke-linecap:butt;stroke-linejoin:miter;stroke-opacity:1"
     d="m 736.42212,547.10248 0,-23.445 3.06,0 0,23.445 -3.06,0 z m 0,-28.35 0,-4.5 3.06,0 0,4.5 -3.06,0 z" />
  <path
     inkscape:connector-curvature="0"
     id="path4238"
     style="font-style:normal;font-variant:normal;font-weight:normal;font-stretch:normal;font-size:45px;line-height:150%;font-family:Raleway;-inkscape-font-specification:Raleway;letter-spacing:0px;word-spacing:0px;fill:#e1e1e1;fill-opacity:1;stroke:none;stroke-width:1px;stroke-linecap:butt;stroke-linejoin:miter;stroke-opacity:1"
     d="m 756.49154,519.20248 -2.025,-0.765 2.655,-4.185 3.24,0 -3.87,4.95 z m -0.27,28.35 q -2.565,0 -4.68,-0.945 -2.115,-0.99 -3.69,-2.655 -1.53,-1.665 -2.385,-3.87 -0.855,-2.205 -0.855,-4.635 0,-2.475 0.855,-4.68 0.9,-2.205 2.43,-3.87 1.575,-1.665 3.69,-2.655 2.115,-0.99 4.635,-0.99 2.52,0 4.635,0.99 2.16,0.99 3.69,2.655 1.575,1.665 2.43,3.87 0.9,2.205 0.9,4.68 0,2.43 -0.855,4.635 -0.855,2.205 -2.43,3.87 -1.53,1.665 -3.69,2.655 -2.115,0.945 -4.68,0.945 z m -8.505,-12.06 q 0,1.98 0.675,3.69 0.675,1.665 1.8,2.97 1.17,1.26 2.7,1.98 1.575,0.72 3.33,0.72 1.755,0 3.285,-0.72 1.575,-0.765 2.745,-2.025 1.17,-1.305 1.845,-3.015 0.675,-1.71 0.675,-3.69 0,-1.935 -0.675,-3.645 -0.675,-1.755 -1.845,-3.015 -1.17,-1.305 -2.745,-2.025 -1.53,-0.765 -3.285,-0.765 -1.755,0 -3.285,0.765 -1.53,0.72 -2.7,2.025 -1.17,1.305 -1.845,3.06 -0.675,1.71 -0.675,3.69 z" />
  <path
     inkscape:connector-curvature="0"
     id="path4240"
     style="font-style:normal;font-variant:normal;font-weight:normal;font-stretch:normal;font-size:45px;line-height:150%;font-family:Raleway;-inkscape-font-specification:Raleway;letter-spacing:0px;word-spacing:0px;fill:#e1e1e1;fill-opacity:1;stroke:none;stroke-width:1px;stroke-linecap:butt;stroke-linejoin:miter;stroke-opacity:1"
     d="m 792.71659,547.10248 -3.06,0 0,-13.095 q 0,-4.185 -1.26,-6.075 -1.215,-1.89 -3.78,-1.89 -1.35,0 -2.7,0.495 -1.35,0.495 -2.52,1.395 -1.125,0.9 -2.025,2.16 -0.9,1.215 -1.305,2.655 l 0,14.355 -3.06,0 0,-23.445 2.79,0 0,5.31 q 1.44,-2.565 4.095,-4.14 2.7,-1.575 5.85,-1.575 1.935,0 3.285,0.72 1.35,0.72 2.16,2.025 0.81,1.305 1.17,3.195 0.36,1.89 0.36,4.185 l 0,13.725 z" />
  <path
     inkscape:connector-curvature="0"
     id="path4242"
     style="font-style:normal;font-variant:normal;font-weight:normal;font-stretch:normal;font-size:45px;line-height:150%;font-family:Raleway;-inkscape-font-specification:Raleway;letter-spacing:0px;word-spacing:0px;fill:#e1e1e1;fill-opacity:1;stroke:none;stroke-width:1px;stroke-linecap:butt;stroke-linejoin:miter;stroke-opacity:1"
     d="m 798.79194,547.10248 0,-4.41 2.655,0 0,4.41 -2.655,0 z" />
  <path
     inkscape:connector-curvature="0"
     id="path4244"
     style="font-style:normal;font-variant:normal;font-weight:normal;font-stretch:normal;font-size:45px;line-height:150%;font-family:Raleway;-inkscape-font-specification:Raleway;letter-spacing:0px;word-spacing:0px;fill:#e1e1e1;fill-opacity:1;stroke:none;stroke-width:1px;stroke-linecap:butt;stroke-linejoin:miter;stroke-opacity:1"
     d="m 533.92,582.65248 -21.24,31.95 -3.465,0 21.24,-31.95 3.465,0 z" />
  <path
     inkscape:connector-curvature="0"
     id="path4246"
     style="font-style:normal;font-variant:normal;font-weight:normal;font-stretch:normal;font-size:45px;line-height:150%;font-family:Raleway;-inkscape-font-specification:Raleway;letter-spacing:0px;word-spacing:0px;fill:#e1e1e1;fill-opacity:1;stroke:none;stroke-width:1px;stroke-linecap:butt;stroke-linejoin:miter;stroke-opacity:1"
     d="m 549.98519,582.65248 -21.24,31.95 -3.465,0 21.24,-31.95 3.465,0 z" />
  <path
     inkscape:connector-curvature="0"
     id="path4248"
     style="font-style:normal;font-variant:normal;font-weight:normal;font-stretch:normal;font-size:45px;line-height:150%;font-family:Raleway;-inkscape-font-specification:Raleway;letter-spacing:0px;word-spacing:0px;fill:#e1e1e1;fill-opacity:1;stroke:none;stroke-width:1px;stroke-linecap:butt;stroke-linejoin:miter;stroke-opacity:1"
     d="m 590.75558,606.36748 q 0,1.8 -0.72,3.33 -0.72,1.485 -1.935,2.61 -1.215,1.08 -2.835,1.71 -1.62,0.585 -3.465,0.585 l -15.075,0 0,-31.95 15.39,0 q 1.665,0 3.015,0.72 1.35,0.72 2.295,1.89 0.945,1.125 1.44,2.61 0.54,1.44 0.54,2.925 0,2.43 -1.215,4.455 -1.215,1.98 -3.375,2.97 2.745,0.81 4.32,3.015 1.62,2.205 1.62,5.13 z m -3.15,-0.54 q 0,-1.17 -0.405,-2.25 -0.405,-1.125 -1.17,-1.935 -0.72,-0.855 -1.755,-1.35 -0.99,-0.54 -2.16,-0.54 l -12.24,0 0,12.105 11.925,0 q 1.215,0 2.25,-0.495 1.08,-0.495 1.845,-1.305 0.81,-0.855 1.26,-1.935 0.45,-1.125 0.45,-2.295 z m -17.73,-20.43 0,11.79 10.98,0 q 1.17,0 2.16,-0.495 1.035,-0.495 1.755,-1.305 0.72,-0.81 1.125,-1.845 0.405,-1.08 0.405,-2.25 0,-1.215 -0.405,-2.295 -0.36,-1.08 -1.08,-1.845 -0.675,-0.81 -1.62,-1.26 -0.945,-0.495 -2.07,-0.495 l -11.25,0 z" />
  <path
     inkscape:connector-curvature="0"
     id="path4250"
     style="font-style:normal;font-variant:normal;font-weight:normal;font-stretch:normal;font-size:45px;line-height:150%;font-family:Raleway;-inkscape-font-specification:Raleway;letter-spacing:0px;word-spacing:0px;fill:#e1e1e1;fill-opacity:1;stroke:none;stroke-width:1px;stroke-linecap:butt;stroke-linejoin:miter;stroke-opacity:1"
     d="m 606.05491,586.70248 -2.025,-0.765 2.655,-4.185 3.24,0 -3.87,4.95 z m -2.655,28.35 q -3.825,0 -5.715,-2.52 -1.845,-2.565 -1.845,-7.605 l 0,-13.77 3.06,0 0,13.23 q 0,7.965 5.445,7.965 1.35,0 2.655,-0.45 1.305,-0.45 2.385,-1.305 1.125,-0.855 1.98,-2.025 0.9,-1.17 1.44,-2.655 l 0,-14.76 3.06,0 0,19.485 q 0,1.26 1.08,1.26 l 0,2.7 q -0.54,0.09 -0.9,0.09 -0.315,0 -0.45,0 -1.08,-0.045 -1.755,-0.765 -0.675,-0.72 -0.675,-1.935 l 0,-2.7 q -1.53,2.745 -4.185,4.275 -2.61,1.485 -5.58,1.485 z" />
  <path
     inkscape:connector-curvature="0"
     id="path4252"
     style="font-style:normal;font-variant:normal;font-weight:normal;font-stretch:normal;font-size:45px;line-height:150%;font-family:Raleway;-inkscape-font-specification:Raleway;letter-spacing:0px;word-spacing:0px;fill:#e1e1e1;fill-opacity:1;stroke:none;stroke-width:1px;stroke-linecap:butt;stroke-linejoin:miter;stroke-opacity:1"
     d="m 630.57965,615.05248 q -2.745,0 -5.355,-0.9 -2.61,-0.9 -4.5,-2.61 l 1.395,-2.07 q 1.98,1.62 4.005,2.43 2.07,0.81 4.41,0.81 2.835,0 4.5,-1.125 1.71,-1.17 1.71,-3.285 0,-0.99 -0.45,-1.62 -0.45,-0.675 -1.35,-1.17 -0.855,-0.495 -2.205,-0.855 -1.305,-0.405 -3.06,-0.81 -2.025,-0.495 -3.51,-0.99 -1.485,-0.495 -2.475,-1.125 -0.945,-0.63 -1.44,-1.53 -0.45,-0.945 -0.45,-2.34 0,-1.755 0.675,-3.105 0.72,-1.35 1.89,-2.205 1.215,-0.9 2.79,-1.35 1.62,-0.45 3.42,-0.45 2.7,0 4.905,0.9 2.205,0.855 3.555,2.295 l -1.485,1.8 q -1.305,-1.35 -3.195,-2.025 -1.845,-0.675 -3.87,-0.675 -1.215,0 -2.25,0.27 -1.035,0.225 -1.845,0.765 -0.765,0.54 -1.215,1.395 -0.45,0.81 -0.45,1.935 0,0.945 0.315,1.53 0.315,0.585 1.035,1.035 0.72,0.405 1.8,0.765 1.125,0.315 2.7,0.675 2.25,0.54 3.96,1.08 1.71,0.54 2.835,1.26 1.17,0.72 1.755,1.755 0.585,1.035 0.585,2.52 0,3.24 -2.475,5.13 -2.475,1.89 -6.66,1.89 z" />
  <path
     inkscape:connector-curvature="0"
     id="path4254"
     style="font-style:normal;font-variant:normal;font-weight:normal;font-stretch:normal;font-size:45px;line-height:150%;font-family:Raleway;-inkscape-font-specification:Raleway;letter-spacing:0px;word-spacing:0px;fill:#e1e1e1;fill-opacity:1;stroke:none;stroke-width:1px;stroke-linecap:butt;stroke-linejoin:miter;stroke-opacity:1"
     d="m 653.75463,615.05248 q -2.385,0 -4.365,-0.99 -1.935,-1.035 -3.33,-2.7 -1.395,-1.71 -2.16,-3.87 -0.765,-2.205 -0.765,-4.59 0,-2.43 0.855,-4.635 0.855,-2.205 2.34,-3.87 1.53,-1.665 3.555,-2.655 2.07,-0.99 4.41,-0.99 1.35,0 2.61,0.405 1.305,0.36 2.43,1.035 1.125,0.63 2.025,1.575 0.945,0.9 1.62,1.98 l 0,-4.59 2.745,0 0,28.935 q 0,1.26 1.125,1.305 l 0,2.655 q -0.45,0.09 -0.9,0.09 -0.405,0 -0.81,0 -1.035,-0.09 -1.755,-0.9 -0.72,-0.765 -0.72,-1.845 l 0,-11.655 q -1.71,2.61 -3.96,3.96 -2.25,1.35 -4.95,1.35 z m 0.945,-2.7 q 1.35,0 2.52,-0.45 1.215,-0.45 2.205,-1.17 1.035,-0.765 1.845,-1.755 0.81,-1.035 1.395,-2.16 l 0,-7.245 q -0.18,-1.215 -0.945,-2.295 -0.765,-1.125 -1.89,-1.98 -1.08,-0.855 -2.385,-1.35 -1.305,-0.495 -2.565,-0.495 -1.89,0 -3.51,0.81 -1.575,0.81 -2.745,2.16 -1.125,1.305 -1.755,3.015 -0.63,1.71 -0.63,3.51 0,1.89 0.63,3.6 0.63,1.71 1.755,3.015 1.125,1.26 2.655,2.025 1.575,0.765 3.42,0.765 z" />
  <path
     inkscape:connector-curvature="0"
     id="path4256"
     style="font-style:normal;font-variant:normal;font-weight:normal;font-stretch:normal;font-size:45px;line-height:150%;font-family:Raleway;-inkscape-font-specification:Raleway;letter-spacing:0px;word-spacing:0px;fill:#e1e1e1;fill-opacity:1;stroke:none;stroke-width:1px;stroke-linecap:butt;stroke-linejoin:miter;stroke-opacity:1"
     d="m 679.80982,615.05248 q -3.825,0 -5.715,-2.52 -1.845,-2.565 -1.845,-7.605 l 0,-13.77 3.06,0 0,13.23 q 0,7.965 5.445,7.965 1.35,0 2.655,-0.45 1.305,-0.45 2.385,-1.305 1.125,-0.855 1.98,-2.025 0.9,-1.17 1.44,-2.655 l 0,-14.76 3.06,0 0,19.485 q 0,1.26 1.08,1.26 l 0,2.7 q -0.54,0.09 -0.9,0.09 -0.315,0 -0.45,0 -1.08,-0.045 -1.755,-0.765 -0.675,-0.72 -0.675,-1.935 l 0,-2.7 q -1.53,2.745 -4.185,4.275 -2.61,1.485 -5.58,1.485 z" />
  <path
     inkscape:connector-curvature="0"
     id="path4258"
     style="font-style:normal;font-variant:normal;font-weight:normal;font-stretch:normal;font-size:45px;line-height:150%;font-family:Raleway;-inkscape-font-specification:Raleway;letter-spacing:0px;word-spacing:0px;fill:#e1e1e1;fill-opacity:1;stroke:none;stroke-width:1px;stroke-linecap:butt;stroke-linejoin:miter;stroke-opacity:1"
     d="m 709.32956,615.05248 q -2.565,0 -4.725,-0.945 -2.115,-0.99 -3.69,-2.655 -1.575,-1.71 -2.475,-3.915 -0.855,-2.205 -0.855,-4.725 0,-2.475 0.855,-4.635 0.9,-2.205 2.43,-3.825 1.575,-1.665 3.735,-2.61 2.16,-0.99 4.68,-0.99 2.565,0 4.68,0.99 2.16,0.945 3.69,2.61 1.53,1.665 2.385,3.825 0.855,2.16 0.855,4.59 0,0.36 0,0.72 0,0.36 -0.045,0.495 l -20.07,0 q 0.135,1.89 0.855,3.51 0.765,1.575 1.935,2.745 1.17,1.17 2.655,1.845 1.53,0.63 3.24,0.63 1.125,0 2.25,-0.315 1.125,-0.315 2.07,-0.855 0.945,-0.54 1.71,-1.305 0.765,-0.81 1.17,-1.755 l 2.655,0.72 q -0.54,1.305 -1.53,2.385 -0.99,1.035 -2.295,1.845 -1.305,0.765 -2.88,1.17 -1.575,0.45 -3.285,0.45 z m 8.64,-13.41 q -0.135,-1.89 -0.9,-3.42 -0.72,-1.575 -1.89,-2.7 -1.125,-1.125 -2.655,-1.755 -1.485,-0.63 -3.195,-0.63 -1.71,0 -3.24,0.63 -1.53,0.63 -2.7,1.755 -1.125,1.125 -1.845,2.7 -0.675,1.575 -0.81,3.42 l 17.235,0 z" />
  <path
     inkscape:connector-curvature="0"
     id="path4260"
     style="font-style:normal;font-variant:normal;font-weight:normal;font-stretch:normal;font-size:45px;line-height:150%;font-family:Raleway;-inkscape-font-specification:Raleway;letter-spacing:0px;word-spacing:0px;fill:#e1e1e1;fill-opacity:1;stroke:none;stroke-width:1px;stroke-linecap:butt;stroke-linejoin:miter;stroke-opacity:1"
     d="m 735.24981,615.05248 q -2.43,0 -4.5,-0.99 -2.07,-1.035 -3.555,-2.7 -1.485,-1.665 -2.34,-3.825 -0.81,-2.205 -0.81,-4.59 0,-2.475 0.81,-4.68 0.81,-2.25 2.205,-3.915 1.44,-1.665 3.375,-2.61 1.98,-0.99 4.32,-0.99 2.97,0 5.265,1.575 2.295,1.53 3.6,3.735 l 0,-14.31 3.06,0 0,28.89 q 0,1.26 1.08,1.26 l 0,2.7 q -0.675,0.135 -1.08,0.135 -1.08,0 -1.89,-0.675 -0.81,-0.72 -0.81,-1.71 l 0,-2.295 q -1.395,2.295 -3.78,3.645 -2.385,1.35 -4.95,1.35 z m 0.675,-2.7 q 1.125,0 2.385,-0.45 1.305,-0.45 2.43,-1.215 1.125,-0.81 1.89,-1.845 0.81,-1.08 0.99,-2.295 l 0,-7.245 q -0.45,-1.215 -1.305,-2.25 -0.855,-1.08 -1.98,-1.89 -1.08,-0.81 -2.34,-1.26 -1.26,-0.45 -2.475,-0.45 -1.89,0 -3.42,0.81 -1.53,0.81 -2.655,2.16 -1.08,1.305 -1.665,3.015 -0.585,1.71 -0.585,3.51 0,1.89 0.675,3.6 0.675,1.71 1.845,3.015 1.17,1.26 2.745,2.025 1.62,0.765 3.465,0.765 z" />
  <path
     inkscape:connector-curvature="0"
     id="path4262"
     style="font-style:normal;font-variant:normal;font-weight:normal;font-stretch:normal;font-size:45px;line-height:150%;font-family:Raleway;-inkscape-font-specification:Raleway;letter-spacing:0px;word-spacing:0px;fill:#e1e1e1;fill-opacity:1;stroke:none;stroke-width:1px;stroke-linecap:butt;stroke-linejoin:miter;stroke-opacity:1"
     d="m 759.50523,615.05248 q -1.665,0 -3.105,-0.54 -1.395,-0.585 -2.475,-1.575 -1.035,-0.99 -1.62,-2.295 -0.585,-1.35 -0.585,-2.88 0,-1.53 0.72,-2.835 0.72,-1.305 2.025,-2.25 1.305,-0.945 3.105,-1.44 1.8,-0.54 3.96,-0.54 1.8,0 3.645,0.315 1.845,0.315 3.285,0.9 l 0,-2.115 q 0,-3.105 -1.755,-4.905 -1.755,-1.845 -4.86,-1.845 -1.8,0 -3.69,0.72 -1.89,0.72 -3.825,2.07 l -1.08,-2.025 q 4.545,-3.06 8.82,-3.06 4.41,0 6.93,2.475 2.52,2.475 2.52,6.84 l 0,10.575 q 0,1.26 1.125,1.26 l 0,2.7 q -0.765,0.135 -1.17,0.135 -1.17,0 -1.845,-0.585 -0.63,-0.585 -0.675,-1.62 l -0.09,-1.845 q -1.62,2.115 -4.095,3.24 -2.43,1.125 -5.265,1.125 z m 0.72,-2.34 q 2.385,0 4.365,-0.9 2.025,-0.9 3.06,-2.385 0.405,-0.405 0.585,-0.855 0.225,-0.495 0.225,-0.9 l 0,-3.825 q -1.53,-0.585 -3.195,-0.9 -1.62,-0.315 -3.33,-0.315 -3.24,0 -5.265,1.35 -2.025,1.35 -2.025,3.555 0,1.08 0.405,2.025 0.45,0.945 1.17,1.665 0.765,0.675 1.8,1.08 1.035,0.405 2.205,0.405 z" />
  <path
     inkscape:connector-curvature="0"
     id="path4264"
     style="font-style:normal;font-variant:normal;font-weight:normal;font-stretch:normal;font-size:45px;line-height:150%;font-family:Raleway;-inkscape-font-specification:Raleway;letter-spacing:0px;word-spacing:0px;fill:#e1e1e1;fill-opacity:1;stroke:none;stroke-width:1px;stroke-linecap:butt;stroke-linejoin:miter;stroke-opacity:1"
     d="m 799.24105,615.05248 q -2.43,0 -4.5,-0.99 -2.07,-1.035 -3.555,-2.7 -1.485,-1.665 -2.34,-3.825 -0.81,-2.205 -0.81,-4.59 0,-2.475 0.81,-4.68 0.81,-2.25 2.205,-3.915 1.44,-1.665 3.375,-2.61 1.98,-0.99 4.32,-0.99 2.97,0 5.265,1.575 2.295,1.53 3.6,3.735 l 0,-14.31 3.06,0 0,28.89 q 0,1.26 1.08,1.26 l 0,2.7 q -0.675,0.135 -1.08,0.135 -1.08,0 -1.89,-0.675 -0.81,-0.72 -0.81,-1.71 l 0,-2.295 q -1.395,2.295 -3.78,3.645 -2.385,1.35 -4.95,1.35 z m 0.675,-2.7 q 1.125,0 2.385,-0.45 1.305,-0.45 2.43,-1.215 1.125,-0.81 1.89,-1.845 0.81,-1.08 0.99,-2.295 l 0,-7.245 q -0.45,-1.215 -1.305,-2.25 -0.855,-1.08 -1.98,-1.89 -1.08,-0.81 -2.34,-1.26 -1.26,-0.45 -2.475,-0.45 -1.89,0 -3.42,0.81 -1.53,0.81 -2.655,2.16 -1.08,1.305 -1.665,3.015 -0.585,1.71 -0.585,3.51 0,1.89 0.675,3.6 0.675,1.71 1.845,3.015 1.17,1.26 2.745,2.025 1.62,0.765 3.465,0.765 z" />
  <path
     inkscape:connector-curvature="0"
     id="path4266"
     style="font-style:normal;font-variant:normal;font-weight:normal;font-stretch:normal;font-size:45px;line-height:150%;font-family:Raleway;-inkscape-font-specification:Raleway;letter-spacing:0px;word-spacing:0px;fill:#e1e1e1;fill-opacity:1;stroke:none;stroke-width:1px;stroke-linecap:butt;stroke-linejoin:miter;stroke-opacity:1"
     d="m 827.72647,615.05248 q -2.565,0 -4.725,-0.945 -2.115,-0.99 -3.69,-2.655 -1.575,-1.71 -2.475,-3.915 -0.855,-2.205 -0.855,-4.725 0,-2.475 0.855,-4.635 0.9,-2.205 2.43,-3.825 1.575,-1.665 3.735,-2.61 2.16,-0.99 4.68,-0.99 2.565,0 4.68,0.99 2.16,0.945 3.69,2.61 1.53,1.665 2.385,3.825 0.855,2.16 0.855,4.59 0,0.36 0,0.72 0,0.36 -0.045,0.495 l -20.07,0 q 0.135,1.89 0.855,3.51 0.765,1.575 1.935,2.745 1.17,1.17 2.655,1.845 1.53,0.63 3.24,0.63 1.125,0 2.25,-0.315 1.125,-0.315 2.07,-0.855 0.945,-0.54 1.71,-1.305 0.765,-0.81 1.17,-1.755 l 2.655,0.72 q -0.54,1.305 -1.53,2.385 -0.99,1.035 -2.295,1.845 -1.305,0.765 -2.88,1.17 -1.575,0.45 -3.285,0.45 z m 8.64,-13.41 q -0.135,-1.89 -0.9,-3.42 -0.72,-1.575 -1.89,-2.7 -1.125,-1.125 -2.655,-1.755 -1.485,-0.63 -3.195,-0.63 -1.71,0 -3.24,0.63 -1.53,0.63 -2.7,1.755 -1.125,1.125 -1.845,2.7 -0.675,1.575 -0.81,3.42 l 17.235,0 z" />
  <path
     inkscape:connector-curvature="0"
     id="path4268"
     style="font-style:normal;font-variant:normal;font-weight:normal;font-stretch:normal;font-size:45px;line-height:150%;font-family:Raleway;-inkscape-font-specification:Raleway;letter-spacing:0px;word-spacing:0px;fill:#e1e1e1;fill-opacity:1;stroke:none;stroke-width:1px;stroke-linecap:butt;stroke-linejoin:miter;stroke-opacity:1"
     d="m 861.38694,615.05248 q -1.665,0 -3.105,-0.54 -1.395,-0.585 -2.475,-1.575 -1.035,-0.99 -1.62,-2.295 -0.585,-1.35 -0.585,-2.88 0,-1.53 0.72,-2.835 0.72,-1.305 2.025,-2.25 1.305,-0.945 3.105,-1.44 1.8,-0.54 3.96,-0.54 1.8,0 3.645,0.315 1.845,0.315 3.285,0.9 l 0,-2.115 q 0,-3.105 -1.755,-4.905 -1.755,-1.845 -4.86,-1.845 -1.8,0 -3.69,0.72 -1.89,0.72 -3.825,2.07 l -1.08,-2.025 q 4.545,-3.06 8.82,-3.06 4.41,0 6.93,2.475 2.52,2.475 2.52,6.84 l 0,10.575 q 0,1.26 1.125,1.26 l 0,2.7 q -0.765,0.135 -1.17,0.135 -1.17,0 -1.845,-0.585 -0.63,-0.585 -0.675,-1.62 l -0.09,-1.845 q -1.62,2.115 -4.095,3.24 -2.43,1.125 -5.265,1.125 z m 0.72,-2.34 q 2.385,0 4.365,-0.9 2.025,-0.9 3.06,-2.385 0.405,-0.405 0.585,-0.855 0.225,-0.495 0.225,-0.9 l 0,-3.825 q -1.53,-0.585 -3.195,-0.9 -1.62,-0.315 -3.33,-0.315 -3.24,0 -5.265,1.35 -2.025,1.35 -2.025,3.555 0,1.08 0.405,2.025 0.45,0.945 1.17,1.665 0.765,0.675 1.8,1.08 1.035,0.405 2.205,0.405 z" />
  <path
     inkscape:connector-curvature="0"
     id="path4270"
     style="font-style:normal;font-variant:normal;font-weight:normal;font-stretch:normal;font-size:45px;line-height:150%;font-family:Raleway;-inkscape-font-specification:Raleway;letter-spacing:0px;word-spacing:0px;fill:#e1e1e1;fill-opacity:1;stroke:none;stroke-width:1px;stroke-linecap:butt;stroke-linejoin:miter;stroke-opacity:1"
     d="m 880.15255,581.75248 3.06,0 0,27.54 q 0,1.305 0.72,2.07 0.72,0.72 2.025,0.72 0.495,0 1.17,-0.135 0.675,-0.135 1.26,-0.36 l 0.54,2.475 q -0.855,0.36 -2.115,0.585 -1.215,0.225 -2.115,0.225 -2.115,0 -3.33,-1.17 -1.215,-1.215 -1.215,-3.375 l 0,-28.575 z" />
  <path
     inkscape:connector-curvature="0"
     id="path4272"
     style="font-style:normal;font-variant:normal;font-weight:normal;font-stretch:normal;font-size:45px;line-height:150%;font-family:Raleway;-inkscape-font-specification:Raleway;letter-spacing:0px;word-spacing:0px;fill:#e1e1e1;fill-opacity:1;stroke:none;stroke-width:1px;stroke-linecap:butt;stroke-linejoin:miter;stroke-opacity:1"
     d="m 903.50769,613.47748 q -0.27,0.135 -0.81,0.36 -0.495,0.225 -1.17,0.45 -0.675,0.225 -1.53,0.405 -0.855,0.18 -1.8,0.18 -0.99,0 -1.89,-0.27 -0.9,-0.27 -1.575,-0.81 -0.675,-0.585 -1.08,-1.44 -0.405,-0.855 -0.405,-1.98 l 0,-16.785 -3.24,0 0,-2.43 3.24,0 0,-7.92 3.06,0 0,7.92 5.4,0 0,2.43 -5.4,0 0,15.93 q 0.09,1.305 0.9,1.935 0.855,0.585 1.935,0.585 1.305,0 2.295,-0.405 0.99,-0.45 1.26,-0.63 l 0.81,2.475 z" />
  <path
     inkscape:connector-curvature="0"
     id="path4274"
     style="font-style:normal;font-variant:normal;font-weight:normal;font-stretch:normal;font-size:45px;line-height:150%;font-family:Raleway;-inkscape-font-specification:Raleway;letter-spacing:0px;word-spacing:0px;fill:#e1e1e1;fill-opacity:1;stroke:none;stroke-width:1px;stroke-linecap:butt;stroke-linejoin:miter;stroke-opacity:1"
     d="m 916.87238,615.05248 q -2.565,0 -4.725,-0.945 -2.115,-0.99 -3.69,-2.655 -1.575,-1.71 -2.475,-3.915 -0.855,-2.205 -0.855,-4.725 0,-2.475 0.855,-4.635 0.9,-2.205 2.43,-3.825 1.575,-1.665 3.735,-2.61 2.16,-0.99 4.68,-0.99 2.565,0 4.68,0.99 2.16,0.945 3.69,2.61 1.53,1.665 2.385,3.825 0.855,2.16 0.855,4.59 0,0.36 0,0.72 0,0.36 -0.045,0.495 l -20.07,0 q 0.135,1.89 0.855,3.51 0.765,1.575 1.935,2.745 1.17,1.17 2.655,1.845 1.53,0.63 3.24,0.63 1.125,0 2.25,-0.315 1.125,-0.315 2.07,-0.855 0.945,-0.54 1.71,-1.305 0.765,-0.81 1.17,-1.755 l 2.655,0.72 q -0.54,1.305 -1.53,2.385 -0.99,1.035 -2.295,1.845 -1.305,0.765 -2.88,1.17 -1.575,0.45 -3.285,0.45 z m 8.64,-13.41 q -0.135,-1.89 -0.9,-3.42 -0.72,-1.575 -1.89,-2.7 -1.125,-1.125 -2.655,-1.755 -1.485,-0.63 -3.195,-0.63 -1.71,0 -3.24,0.63 -1.53,0.63 -2.7,1.755 -1.125,1.125 -1.845,2.7 -0.675,1.575 -0.81,3.42 l 17.235,0 z" />
  <path
     inkscape:connector-curvature="0"
     id="path4276"
     style="font-style:normal;font-variant:normal;font-weight:normal;font-stretch:normal;font-size:45px;line-height:150%;font-family:Raleway;-inkscape-font-specification:Raleway;letter-spacing:0px;word-spacing:0px;fill:#e1e1e1;fill-opacity:1;stroke:none;stroke-width:1px;stroke-linecap:butt;stroke-linejoin:miter;stroke-opacity:1"
     d="m 944.86263,593.85748 q -3.105,0.09 -5.4,1.71 -2.295,1.62 -3.24,4.455 l 0,14.58 -3.06,0 0,-23.445 2.88,0 0,5.625 q 1.305,-2.7 3.51,-4.23 2.205,-1.53 4.725,-1.53 0.36,0 0.585,0.045 l 0,2.79 z" />
  <path
     inkscape:connector-curvature="0"
     id="path4278"
     style="font-style:normal;font-variant:normal;font-weight:normal;font-stretch:normal;font-size:45px;line-height:150%;font-family:Raleway;-inkscape-font-specification:Raleway;letter-spacing:0px;word-spacing:0px;fill:#e1e1e1;fill-opacity:1;stroke:none;stroke-width:1px;stroke-linecap:butt;stroke-linejoin:miter;stroke-opacity:1"
     d="m 968.66822,614.60248 -3.06,0 0,-13.095 q 0,-4.185 -1.26,-6.075 -1.215,-1.89 -3.78,-1.89 -1.35,0 -2.7,0.495 -1.35,0.495 -2.52,1.395 -1.125,0.9 -2.025,2.16 -0.9,1.215 -1.305,2.655 l 0,14.355 -3.06,0 0,-23.445 2.79,0 0,5.31 q 1.44,-2.565 4.095,-4.14 2.7,-1.575 5.85,-1.575 1.935,0 3.285,0.72 1.35,0.72 2.16,2.025 0.81,1.305 1.17,3.195 0.36,1.89 0.36,4.185 l 0,13.725 z" />
  <path
     inkscape:connector-curvature="0"
     id="path4280"
     style="font-style:normal;font-variant:normal;font-weight:normal;font-stretch:normal;font-size:45px;line-height:150%;font-family:Raleway;-inkscape-font-specification:Raleway;letter-spacing:0px;word-spacing:0px;fill:#e1e1e1;fill-opacity:1;stroke:none;stroke-width:1px;stroke-linecap:butt;stroke-linejoin:miter;stroke-opacity:1"
     d="m 981.08857,615.05248 q -1.665,0 -3.105,-0.54 -1.395,-0.585 -2.475,-1.575 -1.035,-0.99 -1.62,-2.295 -0.585,-1.35 -0.585,-2.88 0,-1.53 0.72,-2.835 0.72,-1.305 2.025,-2.25 1.305,-0.945 3.105,-1.44 1.8,-0.54 3.96,-0.54 1.8,0 3.645,0.315 1.845,0.315 3.285,0.9 l 0,-2.115 q 0,-3.105 -1.755,-4.905 -1.755,-1.845 -4.86,-1.845 -1.8,0 -3.69,0.72 -1.89,0.72 -3.825,2.07 l -1.08,-2.025 q 4.545,-3.06 8.82,-3.06 4.41,0 6.93,2.475 2.52,2.475 2.52,6.84 l 0,10.575 q 0,1.26 1.125,1.26 l 0,2.7 q -0.765,0.135 -1.17,0.135 -1.17,0 -1.845,-0.585 -0.63,-0.585 -0.675,-1.62 l -0.09,-1.845 q -1.62,2.115 -4.095,3.24 -2.43,1.125 -5.265,1.125 z m 0.72,-2.34 q 2.385,0 4.365,-0.9 2.025,-0.9 3.06,-2.385 0.405,-0.405 0.585,-0.855 0.225,-0.495 0.225,-0.9 l 0,-3.825 q -1.53,-0.585 -3.195,-0.9 -1.62,-0.315 -3.33,-0.315 -3.24,0 -5.265,1.35 -2.025,1.35 -2.025,3.555 0,1.08 0.405,2.025 0.45,0.945 1.17,1.665 0.765,0.675 1.8,1.08 1.035,0.405 2.205,0.405 z" />
  <path
     inkscape:connector-curvature="0"
     id="path4282"
     style="font-style:normal;font-variant:normal;font-weight:normal;font-stretch:normal;font-size:45px;line-height:150%;font-family:Raleway;-inkscape-font-specification:Raleway;letter-spacing:0px;word-spacing:0px;fill:#e1e1e1;fill-opacity:1;stroke:none;stroke-width:1px;stroke-linecap:butt;stroke-linejoin:miter;stroke-opacity:1"
     d="m 1010.7892,613.47748 q -0.27,0.135 -0.81,0.36 -0.495,0.225 -1.17,0.45 -0.675,0.225 -1.53,0.405 -0.855,0.18 -1.8,0.18 -0.99,0 -1.89,-0.27 -0.9,-0.27 -1.575,-0.81 -0.675,-0.585 -1.08,-1.44 -0.405,-0.855 -0.405,-1.98 l 0,-16.785 -3.24002,0 0,-2.43 3.24002,0 0,-7.92 3.06,0 0,7.92 5.4,0 0,2.43 -5.4,0 0,15.93 q 0.09,1.305 0.9,1.935 0.855,0.585 1.935,0.585 1.305,0 2.295,-0.405 0.99,-0.45 1.26,-0.63 l 0.81,2.475 z" />
  <path
     inkscape:connector-curvature="0"
     id="path4284"
     style="font-style:normal;font-variant:normal;font-weight:normal;font-stretch:normal;font-size:45px;line-height:150%;font-family:Raleway;-inkscape-font-specification:Raleway;letter-spacing:0px;word-spacing:0px;fill:#e1e1e1;fill-opacity:1;stroke:none;stroke-width:1px;stroke-linecap:butt;stroke-linejoin:miter;stroke-opacity:1"
     d="m 1014.6138,614.60248 0,-23.445 3.06,0 0,23.445 -3.06,0 z m 0,-28.35 0,-4.5 3.06,0 0,4.5 -3.06,0 z" />
  <path
     inkscape:connector-curvature="0"
     id="path4286"
     style="font-style:normal;font-variant:normal;font-weight:normal;font-stretch:normal;font-size:45px;line-height:150%;font-family:Raleway;-inkscape-font-specification:Raleway;letter-spacing:0px;word-spacing:0px;fill:#e1e1e1;fill-opacity:1;stroke:none;stroke-width:1px;stroke-linecap:butt;stroke-linejoin:miter;stroke-opacity:1"
     d="m 1031.4432,614.60248 -9.54,-23.445 3.15,0 8.055,20.61 8.1,-20.61 2.97,0 -9.54,23.445 -3.195,0 z" />
  <path
     inkscape:connector-curvature="0"
     id="path4288"
     style="font-style:normal;font-variant:normal;font-weight:normal;font-stretch:normal;font-size:45px;line-height:150%;font-family:Raleway;-inkscape-font-specification:Raleway;letter-spacing:0px;word-spacing:0px;fill:#e1e1e1;fill-opacity:1;stroke:none;stroke-width:1px;stroke-linecap:butt;stroke-linejoin:miter;stroke-opacity:1"
     d="m 1053.7178,615.05248 q -1.665,0 -3.105,-0.54 -1.395,-0.585 -2.475,-1.575 -1.035,-0.99 -1.62,-2.295 -0.585,-1.35 -0.585,-2.88 0,-1.53 0.72,-2.835 0.72,-1.305 2.025,-2.25 1.305,-0.945 3.105,-1.44 1.8,-0.54 3.96,-0.54 1.8,0 3.645,0.315 1.845,0.315 3.285,0.9 l 0,-2.115 q 0,-3.105 -1.755,-4.905 -1.755,-1.845 -4.86,-1.845 -1.8,0 -3.69,0.72 -1.89,0.72 -3.825,2.07 l -1.08,-2.025 q 4.545,-3.06 8.82,-3.06 4.41,0 6.93,2.475 2.52,2.475 2.52,6.84 l 0,10.575 q 0,1.26 1.125,1.26 l 0,2.7 q -0.765,0.135 -1.17,0.135 -1.17,0 -1.845,-0.585 -0.63,-0.585 -0.675,-1.62 l -0.09,-1.845 q -1.62,2.115 -4.095,3.24 -2.43,1.125 -5.265,1.125 z m 0.72,-2.34 q 2.385,0 4.365,-0.9 2.025,-0.9 3.06,-2.385 0.405,-0.405 0.585,-0.855 0.225,-0.495 0.225,-0.9 l 0,-3.825 q -1.53,-0.585 -3.195,-0.9 -1.62,-0.315 -3.33,-0.315 -3.24,0 -5.265,1.35 -2.025,1.35 -2.025,3.555 0,1.08 0.405,2.025 0.45,0.945 1.17,1.665 0.765,0.675 1.8,1.08 1.035,0.405 2.205,0.405 z" />
  <path
     inkscape:connector-curvature="0"
     id="path4290"
     style="font-style:normal;font-variant:normal;font-weight:normal;font-stretch:normal;font-size:45px;line-height:150%;font-family:Raleway;-inkscape-font-specification:Raleway;letter-spacing:0px;word-spacing:0px;fill:#e1e1e1;fill-opacity:1;stroke:none;stroke-width:1px;stroke-linecap:butt;stroke-linejoin:miter;stroke-opacity:1"
     d="m 1080.1334,615.05248 q -2.745,0 -5.355,-0.9 -2.61,-0.9 -4.5,-2.61 l 1.395,-2.07 q 1.98,1.62 4.005,2.43 2.07,0.81 4.41,0.81 2.835,0 4.5,-1.125 1.71,-1.17 1.71,-3.285 0,-0.99 -0.45,-1.62 -0.45,-0.675 -1.35,-1.17 -0.855,-0.495 -2.205,-0.855 -1.305,-0.405 -3.06,-0.81 -2.025,-0.495 -3.51,-0.99 -1.485,-0.495 -2.475,-1.125 -0.945,-0.63 -1.44,-1.53 -0.45,-0.945 -0.45,-2.34 0,-1.755 0.675,-3.105 0.72,-1.35 1.89,-2.205 1.215,-0.9 2.79,-1.35 1.62,-0.45 3.42,-0.45 2.7,0 4.905,0.9 2.205,0.855 3.555,2.295 l -1.485,1.8 q -1.305,-1.35 -3.195,-2.025 -1.845,-0.675 -3.87,-0.675 -1.215,0 -2.25,0.27 -1.035,0.225 -1.845,0.765 -0.765,0.54 -1.215,1.395 -0.45,0.81 -0.45,1.935 0,0.945 0.315,1.53 0.315,0.585 1.035,1.035 0.72,0.405 1.8,0.765 1.125,0.315 2.7,0.675 2.25,0.54 3.96,1.08 1.71,0.54 2.835,1.26 1.17,0.72 1.755,1.755 0.585,1.035 0.585,2.52 0,3.24 -2.475,5.13 -2.475,1.89 -6.66,1.89 z" />
  <path
     inkscape:connector-curvature="0"
     id="path4292"
     style="font-style:normal;font-variant:normal;font-weight:normal;font-stretch:normal;font-size:45px;line-height:150%;font-family:Raleway;-inkscape-font-specification:Raleway;letter-spacing:0px;word-spacing:0px;fill:#e1e1e1;fill-opacity:1;stroke:none;stroke-width:1px;stroke-linecap:butt;stroke-linejoin:miter;stroke-opacity:1"
     d="m 1093.8134,614.60248 0,-4.41 2.655,0 0,4.41 -2.655,0 z" />
  <path
     inkscape:connector-curvature="0"
     id="path4294"
     style="font-style:normal;font-variant:normal;font-weight:normal;font-stretch:normal;font-size:45px;line-height:150%;font-family:Raleway;-inkscape-font-specification:Raleway;letter-spacing:0px;word-spacing:0px;fill:#e1e1e1;fill-opacity:1;stroke:none;stroke-width:1px;stroke-linecap:butt;stroke-linejoin:miter;stroke-opacity:1"
     d="m 533.92,650.15248 -21.24,31.95 -3.465,0 21.24,-31.95 3.465,0 z" />
  <path
     inkscape:connector-curvature="0"
     id="path4296"
     style="font-style:normal;font-variant:normal;font-weight:normal;font-stretch:normal;font-size:45px;line-height:150%;font-family:Raleway;-inkscape-font-specification:Raleway;letter-spacing:0px;word-spacing:0px;fill:#e1e1e1;fill-opacity:1;stroke:none;stroke-width:1px;stroke-linecap:butt;stroke-linejoin:miter;stroke-opacity:1"
     d="m 549.98519,650.15248 -21.24,31.95 -3.465,0 21.24,-31.95 3.465,0 z" />
  <path
     inkscape:connector-curvature="0"
     id="path4298"
     style="font-style:normal;font-variant:normal;font-weight:normal;font-stretch:normal;font-size:45px;line-height:150%;font-family:Raleway;-inkscape-font-specification:Raleway;letter-spacing:0px;word-spacing:0px;fill:#e1e1e1;fill-opacity:1;stroke:none;stroke-width:1px;stroke-linecap:butt;stroke-linejoin:miter;stroke-opacity:1"
     d="m 575.23066,650.15248 2.655,0 13.275,31.95 -3.33,0 -4.14,-9.99 -14.355,0 -4.095,9.99 -3.375,0 13.365,-31.95 z m 7.74,19.485 -6.435,-15.795 -6.525,15.795 12.96,0 z" />
  <path
     inkscape:connector-curvature="0"
     id="path4300"
     style="font-style:normal;font-variant:normal;font-weight:normal;font-stretch:normal;font-size:45px;line-height:150%;font-family:Raleway;-inkscape-font-specification:Raleway;letter-spacing:0px;word-spacing:0px;fill:#e1e1e1;fill-opacity:1;stroke:none;stroke-width:1px;stroke-linecap:butt;stroke-linejoin:miter;stroke-opacity:1"
     d="m 605.65048,680.97748 q -0.27,0.135 -0.81,0.36 -0.495,0.225 -1.17,0.45 -0.675,0.225 -1.53,0.405 -0.855,0.18 -1.8,0.18 -0.99,0 -1.89,-0.27 -0.9,-0.27 -1.575,-0.81 -0.675,-0.585 -1.08,-1.44 -0.405,-0.855 -0.405,-1.98 l 0,-16.785 -3.24,0 0,-2.43 3.24,0 0,-7.92 3.06,0 0,7.92 5.4,0 0,2.43 -5.4,0 0,15.93 q 0.09,1.305 0.9,1.935 0.855,0.585 1.935,0.585 1.305,0 2.295,-0.405 0.99,-0.45 1.26,-0.63 l 0.81,2.475 z" />
  <path
     inkscape:connector-curvature="0"
     id="path4302"
     style="font-style:normal;font-variant:normal;font-weight:normal;font-stretch:normal;font-size:45px;line-height:150%;font-family:Raleway;-inkscape-font-specification:Raleway;letter-spacing:0px;word-spacing:0px;fill:#e1e1e1;fill-opacity:1;stroke:none;stroke-width:1px;stroke-linecap:butt;stroke-linejoin:miter;stroke-opacity:1"
     d="m 619.01517,682.55248 q -2.565,0 -4.725,-0.945 -2.115,-0.99 -3.69,-2.655 -1.575,-1.71 -2.475,-3.915 -0.855,-2.205 -0.855,-4.725 0,-2.475 0.855,-4.635 0.9,-2.205 2.43,-3.825 1.575,-1.665 3.735,-2.61 2.16,-0.99 4.68,-0.99 2.565,0 4.68,0.99 2.16,0.945 3.69,2.61 1.53,1.665 2.385,3.825 0.855,2.16 0.855,4.59 0,0.36 0,0.72 0,0.36 -0.045,0.495 l -20.07,0 q 0.135,1.89 0.855,3.51 0.765,1.575 1.935,2.745 1.17,1.17 2.655,1.845 1.53,0.63 3.24,0.63 1.125,0 2.25,-0.315 1.125,-0.315 2.07,-0.855 0.945,-0.54 1.71,-1.305 0.765,-0.81 1.17,-1.755 l 2.655,0.72 q -0.54,1.305 -1.53,2.385 -0.99,1.035 -2.295,1.845 -1.305,0.765 -2.88,1.17 -1.575,0.45 -3.285,0.45 z m 8.64,-13.41 q -0.135,-1.89 -0.9,-3.42 -0.72,-1.575 -1.89,-2.7 -1.125,-1.125 -2.655,-1.755 -1.485,-0.63 -3.195,-0.63 -1.71,0 -3.24,0.63 -1.53,0.63 -2.7,1.755 -1.125,1.125 -1.845,2.7 -0.675,1.575 -0.81,3.42 l 17.235,0 z" />
  <path
     inkscape:connector-curvature="0"
     id="path4304"
     style="font-style:normal;font-variant:normal;font-weight:normal;font-stretch:normal;font-size:45px;line-height:150%;font-family:Raleway;-inkscape-font-specification:Raleway;letter-spacing:0px;word-spacing:0px;fill:#e1e1e1;fill-opacity:1;stroke:none;stroke-width:1px;stroke-linecap:butt;stroke-linejoin:miter;stroke-opacity:1"
     d="m 655.01542,682.10248 -3.06,0 0,-13.095 q 0,-4.185 -1.26,-6.075 -1.215,-1.89 -3.78,-1.89 -1.35,0 -2.7,0.495 -1.35,0.495 -2.52,1.395 -1.125,0.9 -2.025,2.16 -0.9,1.215 -1.305,2.655 l 0,14.355 -3.06,0 0,-23.445 2.79,0 0,5.31 q 1.44,-2.565 4.095,-4.14 2.7,-1.575 5.85,-1.575 1.935,0 3.285,0.72 1.35,0.72 2.16,2.025 0.81,1.305 1.17,3.195 0.36,1.89 0.36,4.185 l 0,13.725 z" />
  <path
     inkscape:connector-curvature="0"
     id="path4306"
     style="font-style:normal;font-variant:normal;font-weight:normal;font-stretch:normal;font-size:45px;line-height:150%;font-family:Raleway;-inkscape-font-specification:Raleway;letter-spacing:0px;word-spacing:0px;fill:#e1e1e1;fill-opacity:1;stroke:none;stroke-width:1px;stroke-linecap:butt;stroke-linejoin:miter;stroke-opacity:1"
     d="m 659.92077,670.31248 q 0,-2.475 0.855,-4.68 0.855,-2.205 2.385,-3.825 1.575,-1.665 3.735,-2.61 2.16,-0.945 4.77,-0.945 3.33,0 5.805,1.53 2.475,1.485 3.735,4.05 l -2.97,0.945 q -0.99,-1.8 -2.79,-2.79 -1.755,-1.035 -3.915,-1.035 -1.8,0 -3.375,0.72 -1.53,0.72 -2.7,1.98 -1.125,1.215 -1.8,2.925 -0.63,1.71 -0.63,3.735 0,1.98 0.675,3.735 0.675,1.755 1.845,3.06 1.17,1.26 2.7,2.025 1.575,0.72 3.33,0.72 1.125,0 2.205,-0.315 1.125,-0.315 2.07,-0.855 0.945,-0.585 1.62,-1.305 0.675,-0.72 0.945,-1.53 l 3.015,0.9 q -0.495,1.26 -1.44,2.34 -0.945,1.035 -2.25,1.845 -1.26,0.765 -2.835,1.17 -1.53,0.45 -3.195,0.45 -2.565,0 -4.725,-0.945 -2.16,-0.99 -3.735,-2.655 -1.575,-1.71 -2.475,-3.915 -0.855,-2.205 -0.855,-4.725 z" />
  <path
     inkscape:connector-curvature="0"
     id="path4308"
     style="font-style:normal;font-variant:normal;font-weight:normal;font-stretch:normal;font-size:45px;line-height:150%;font-family:Raleway;-inkscape-font-specification:Raleway;letter-spacing:0px;word-spacing:0px;fill:#e1e1e1;fill-opacity:1;stroke:none;stroke-width:1px;stroke-linecap:butt;stroke-linejoin:miter;stroke-opacity:1"
     d="m 686.24628,682.10248 0,-23.445 3.06,0 0,23.445 -3.06,0 z m 0,-28.35 0,-4.5 3.06,0 0,4.5 -3.06,0 z" />
  <path
     inkscape:connector-curvature="0"
     id="path4310"
     style="font-style:normal;font-variant:normal;font-weight:normal;font-stretch:normal;font-size:45px;line-height:150%;font-family:Raleway;-inkscape-font-specification:Raleway;letter-spacing:0px;word-spacing:0px;fill:#e1e1e1;fill-opacity:1;stroke:none;stroke-width:1px;stroke-linecap:butt;stroke-linejoin:miter;stroke-opacity:1"
     d="m 706.31569,654.20248 -2.025,-0.765 2.655,-4.185 3.24,0 -3.87,4.95 z m -0.27,28.35 q -2.565,0 -4.68,-0.945 -2.115,-0.99 -3.69,-2.655 -1.53,-1.665 -2.385,-3.87 -0.855,-2.205 -0.855,-4.635 0,-2.475 0.855,-4.68 0.9,-2.205 2.43,-3.87 1.575,-1.665 3.69,-2.655 2.115,-0.99 4.635,-0.99 2.52,0 4.635,0.99 2.16,0.99 3.69,2.655 1.575,1.665 2.43,3.87 0.9,2.205 0.9,4.68 0,2.43 -0.855,4.635 -0.855,2.205 -2.43,3.87 -1.53,1.665 -3.69,2.655 -2.115,0.945 -4.68,0.945 z m -8.505,-12.06 q 0,1.98 0.675,3.69 0.675,1.665 1.8,2.97 1.17,1.26 2.7,1.98 1.575,0.72 3.33,0.72 1.755,0 3.285,-0.72 1.575,-0.765 2.745,-2.025 1.17,-1.305 1.845,-3.015 0.675,-1.71 0.675,-3.69 0,-1.935 -0.675,-3.645 -0.675,-1.755 -1.845,-3.015 -1.17,-1.305 -2.745,-2.025 -1.53,-0.765 -3.285,-0.765 -1.755,0 -3.285,0.765 -1.53,0.72 -2.7,2.025 -1.17,1.305 -1.845,3.06 -0.675,1.71 -0.675,3.69 z" />
  <path
     inkscape:connector-curvature="0"
     id="path4312"
     style="font-style:normal;font-variant:normal;font-weight:normal;font-stretch:normal;font-size:45px;line-height:150%;font-family:Raleway;-inkscape-font-specification:Raleway;letter-spacing:0px;word-spacing:0px;fill:#e1e1e1;fill-opacity:1;stroke:none;stroke-width:1px;stroke-linecap:butt;stroke-linejoin:miter;stroke-opacity:1"
     d="m 742.54075,682.10248 -3.06,0 0,-13.095 q 0,-4.185 -1.26,-6.075 -1.215,-1.89 -3.78,-1.89 -1.35,0 -2.7,0.495 -1.35,0.495 -2.52,1.395 -1.125,0.9 -2.025,2.16 -0.9,1.215 -1.305,2.655 l 0,14.355 -3.06,0 0,-23.445 2.79,0 0,5.31 q 1.44,-2.565 4.095,-4.14 2.7,-1.575 5.85,-1.575 1.935,0 3.285,0.72 1.35,0.72 2.16,2.025 0.81,1.305 1.17,3.195 0.36,1.89 0.36,4.185 l 0,13.725 z" />
  <path
     inkscape:connector-curvature="0"
     id="path4315"
     style="font-style:normal;font-variant:normal;font-weight:normal;font-stretch:normal;font-size:45px;line-height:150%;font-family:Raleway;-inkscape-font-specification:Raleway;letter-spacing:0px;word-spacing:0px;fill:#e1e1e1;fill-opacity:1;stroke:none;stroke-width:1px;stroke-linecap:butt;stroke-linejoin:miter;stroke-opacity:1"
     d="m 766.43632,682.55248 q -1.665,0 -3.105,-0.54 -1.395,-0.585 -2.475,-1.575 -1.035,-0.99 -1.62,-2.295 -0.585,-1.35 -0.585,-2.88 0,-1.53 0.72,-2.835 0.72,-1.305 2.025,-2.25 1.305,-0.945 3.105,-1.44 1.8,-0.54 3.96,-0.54 1.8,0 3.645,0.315 1.845,0.315 3.285,0.9 l 0,-2.115 q 0,-3.105 -1.755,-4.905 -1.755,-1.845 -4.86,-1.845 -1.8,0 -3.69,0.72 -1.89,0.72 -3.825,2.07 l -1.08,-2.025 q 4.545,-3.06 8.82,-3.06 4.41,0 6.93,2.475 2.52,2.475 2.52,6.84 l 0,10.575 q 0,1.26 1.125,1.26 l 0,2.7 q -0.765,0.135 -1.17,0.135 -1.17,0 -1.845,-0.585 -0.63,-0.585 -0.675,-1.62 l -0.09,-1.845 q -1.62,2.115 -4.095,3.24 -2.43,1.125 -5.265,1.125 z m 0.72,-2.34 q 2.385,0 4.365,-0.9 2.025,-0.9 3.06,-2.385 0.405,-0.405 0.585,-0.855 0.225,-0.495 0.225,-0.9 l 0,-3.825 q -1.53,-0.585 -3.195,-0.9 -1.62,-0.315 -3.33,-0.315 -3.24,0 -5.265,1.35 -2.025,1.35 -2.025,3.555 0,1.08 0.405,2.025 0.45,0.945 1.17,1.665 0.765,0.675 1.8,1.08 1.035,0.405 2.205,0.405 z" />
  <path
     inkscape:connector-curvature="0"
     id="path4317"
     style="font-style:normal;font-variant:normal;font-weight:normal;font-stretch:normal;font-size:45px;line-height:150%;font-family:Raleway;-inkscape-font-specification:Raleway;letter-spacing:0px;word-spacing:0px;fill:#e1e1e1;fill-opacity:1;stroke:none;stroke-width:1px;stroke-linecap:butt;stroke-linejoin:miter;stroke-opacity:1"
     d="m 785.20193,649.25248 3.06,0 0,27.54 q 0,1.305 0.72,2.07 0.72,0.72 2.025,0.72 0.495,0 1.17,-0.135 0.675,-0.135 1.26,-0.36 l 0.54,2.475 q -0.855,0.36 -2.115,0.585 -1.215,0.225 -2.115,0.225 -2.115,0 -3.33,-1.17 -1.215,-1.215 -1.215,-3.375 l 0,-28.575 z" />
  <path
     inkscape:connector-curvature="0"
     id="path4319"
     style="font-style:normal;font-variant:normal;font-weight:normal;font-stretch:normal;font-size:45px;line-height:150%;font-family:Raleway;-inkscape-font-specification:Raleway;letter-spacing:0px;word-spacing:0px;fill:#e1e1e1;fill-opacity:1;stroke:none;stroke-width:1px;stroke-linecap:butt;stroke-linejoin:miter;stroke-opacity:1"
     d="m 817.01736,682.55248 q -2.43,0 -4.5,-0.99 -2.07,-1.035 -3.555,-2.7 -1.485,-1.665 -2.34,-3.825 -0.81,-2.205 -0.81,-4.59 0,-2.475 0.81,-4.68 0.81,-2.25 2.205,-3.915 1.44,-1.665 3.375,-2.61 1.98,-0.99 4.32,-0.99 2.97,0 5.265,1.575 2.295,1.53 3.6,3.735 l 0,-14.31 3.06,0 0,28.89 q 0,1.26 1.08,1.26 l 0,2.7 q -0.675,0.135 -1.08,0.135 -1.08,0 -1.89,-0.675 -0.81,-0.72 -0.81,-1.71 l 0,-2.295 q -1.395,2.295 -3.78,3.645 -2.385,1.35 -4.95,1.35 z m 0.675,-2.7 q 1.125,0 2.385,-0.45 1.305,-0.45 2.43,-1.215 1.125,-0.81 1.89,-1.845 0.81,-1.08 0.99,-2.295 l 0,-7.245 q -0.45,-1.215 -1.305,-2.25 -0.855,-1.08 -1.98,-1.89 -1.08,-0.81 -2.34,-1.26 -1.26,-0.45 -2.475,-0.45 -1.89,0 -3.42,0.81 -1.53,0.81 -2.655,2.16 -1.08,1.305 -1.665,3.015 -0.585,1.71 -0.585,3.51 0,1.89 0.675,3.6 0.675,1.71 1.845,3.015 1.17,1.26 2.745,2.025 1.62,0.765 3.465,0.765 z" />
  <path
     inkscape:connector-curvature="0"
     id="path4321"
     style="font-style:normal;font-variant:normal;font-weight:normal;font-stretch:normal;font-size:45px;line-height:150%;font-family:Raleway;-inkscape-font-specification:Raleway;letter-spacing:0px;word-spacing:0px;fill:#e1e1e1;fill-opacity:1;stroke:none;stroke-width:1px;stroke-linecap:butt;stroke-linejoin:miter;stroke-opacity:1"
     d="m 845.50278,682.55248 q -2.565,0 -4.725,-0.945 -2.115,-0.99 -3.69,-2.655 -1.575,-1.71 -2.475,-3.915 -0.855,-2.205 -0.855,-4.725 0,-2.475 0.855,-4.635 0.9,-2.205 2.43,-3.825 1.575,-1.665 3.735,-2.61 2.16,-0.99 4.68,-0.99 2.565,0 4.68,0.99 2.16,0.945 3.69,2.61 1.53,1.665 2.385,3.825 0.855,2.16 0.855,4.59 0,0.36 0,0.72 0,0.36 -0.045,0.495 l -20.07,0 q 0.135,1.89 0.855,3.51 0.765,1.575 1.935,2.745 1.17,1.17 2.655,1.845 1.53,0.63 3.24,0.63 1.125,0 2.25,-0.315 1.125,-0.315 2.07,-0.855 0.945,-0.54 1.71,-1.305 0.765,-0.81 1.17,-1.755 l 2.655,0.72 q -0.54,1.305 -1.53,2.385 -0.99,1.035 -2.295,1.845 -1.305,0.765 -2.88,1.17 -1.575,0.45 -3.285,0.45 z m 8.64,-13.41 q -0.135,-1.89 -0.9,-3.42 -0.72,-1.575 -1.89,-2.7 -1.125,-1.125 -2.655,-1.755 -1.485,-0.63 -3.195,-0.63 -1.71,0 -3.24,0.63 -1.53,0.63 -2.7,1.755 -1.125,1.125 -1.845,2.7 -0.675,1.575 -0.81,3.42 l 17.235,0 z" />
  <path
     inkscape:connector-curvature="0"
     id="path4323"
     style="font-style:normal;font-variant:normal;font-weight:normal;font-stretch:normal;font-size:45px;line-height:150%;font-family:Raleway;-inkscape-font-specification:Raleway;letter-spacing:0px;word-spacing:0px;fill:#e1e1e1;fill-opacity:1;stroke:none;stroke-width:1px;stroke-linecap:butt;stroke-linejoin:miter;stroke-opacity:1"
     d="m 872.86304,680.97748 q -0.27,0.135 -0.81,0.36 -0.495,0.225 -1.17,0.45 -0.675,0.225 -1.53,0.405 -0.855,0.18 -1.8,0.18 -0.99,0 -1.89,-0.27 -0.9,-0.27 -1.575,-0.81 -0.675,-0.585 -1.08,-1.44 -0.405,-0.855 -0.405,-1.98 l 0,-16.785 -3.24,0 0,-2.43 3.24,0 0,-7.92 3.06,0 0,7.92 5.4,0 0,2.43 -5.4,0 0,15.93 q 0.09,1.305 0.9,1.935 0.855,0.585 1.935,0.585 1.305,0 2.295,-0.405 0.99,-0.45 1.26,-0.63 l 0.81,2.475 z" />
  <path
     inkscape:connector-curvature="0"
     id="path4326"
     style="font-style:normal;font-variant:normal;font-weight:normal;font-stretch:normal;font-size:45px;line-height:150%;font-family:Raleway;-inkscape-font-specification:Raleway;letter-spacing:0px;word-spacing:0px;fill:#e1e1e1;fill-opacity:1;stroke:none;stroke-width:1px;stroke-linecap:butt;stroke-linejoin:miter;stroke-opacity:1"
     d="m 882.58265,682.55248 q -1.665,0 -3.105,-0.54 -1.395,-0.585 -2.475,-1.575 -1.035,-0.99 -1.62,-2.295 -0.585,-1.35 -0.585,-2.88 0,-1.53 0.72,-2.835 0.72,-1.305 2.025,-2.25 1.305,-0.945 3.105,-1.44 1.8,-0.54 3.96,-0.54 1.8,0 3.645,0.315 1.845,0.315 3.285,0.9 l 0,-2.115 q 0,-3.105 -1.755,-4.905 -1.755,-1.845 -4.86,-1.845 -1.8,0 -3.69,0.72 -1.89,0.72 -3.825,2.07 l -1.08,-2.025 q 4.545,-3.06 8.82,-3.06 4.41,0 6.93,2.475 2.52,2.475 2.52,6.84 l 0,10.575 q 0,1.26 1.125,1.26 l 0,2.7 q -0.765,0.135 -1.17,0.135 -1.17,0 -1.845,-0.585 -0.63,-0.585 -0.675,-1.62 l -0.09,-1.845 q -1.62,2.115 -4.095,3.24 -2.43,1.125 -5.265,1.125 z m 0.72,-2.34 q 2.385,0 4.365,-0.9 2.025,-0.9 3.06,-2.385 0.405,-0.405 0.585,-0.855 0.225,-0.495 0.225,-0.9 l 0,-3.825 q -1.53,-0.585 -3.195,-0.9 -1.62,-0.315 -3.33,-0.315 -3.24,0 -5.265,1.35 -2.025,1.35 -2.025,3.555 0,1.08 0.405,2.025 0.45,0.945 1.17,1.665 0.765,0.675 1.8,1.08 1.035,0.405 2.205,0.405 z" />
  <path
     inkscape:connector-curvature="0"
     id="path4329"
     style="font-style:normal;font-variant:normal;font-weight:normal;font-stretch:normal;font-size:45px;line-height:150%;font-family:Raleway;-inkscape-font-specification:Raleway;letter-spacing:0px;word-spacing:0px;fill:#e1e1e1;fill-opacity:1;stroke:none;stroke-width:1px;stroke-linecap:butt;stroke-linejoin:miter;stroke-opacity:1"
     d="m 901.34826,649.25248 3.06,0 0,27.54 q 0,1.305 0.72,2.07 0.72,0.72 2.025,0.72 0.495,0 1.17,-0.135 0.675,-0.135 1.26,-0.36 l 0.54,2.475 q -0.855,0.36 -2.115,0.585 -1.215,0.225 -2.115,0.225 -2.115,0 -3.33,-1.17 -1.215,-1.215 -1.215,-3.375 l 0,-28.575 z" />
  <path
     inkscape:connector-curvature="0"
     id="path4331"
     style="font-style:normal;font-variant:normal;font-weight:normal;font-stretch:normal;font-size:45px;line-height:150%;font-family:Raleway;-inkscape-font-specification:Raleway;letter-spacing:0px;word-spacing:0px;fill:#e1e1e1;fill-opacity:1;stroke:none;stroke-width:1px;stroke-linecap:butt;stroke-linejoin:miter;stroke-opacity:1"
     d="m 913.5884,649.25248 3.06,0 0,27.54 q 0,1.305 0.72,2.07 0.72,0.72 2.025,0.72 0.495,0 1.17,-0.135 0.675,-0.135 1.26,-0.36 l 0.54,2.475 q -0.855,0.36 -2.115,0.585 -1.215,0.225 -2.115,0.225 -2.115,0 -3.33,-1.17 -1.215,-1.215 -1.215,-3.375 l 0,-28.575 z" />
  <path
     inkscape:connector-curvature="0"
     id="path4334"
     style="font-style:normal;font-variant:normal;font-weight:normal;font-stretch:normal;font-size:45px;line-height:150%;font-family:Raleway;-inkscape-font-specification:Raleway;letter-spacing:0px;word-spacing:0px;fill:#e1e1e1;fill-opacity:1;stroke:none;stroke-width:1px;stroke-linecap:butt;stroke-linejoin:miter;stroke-opacity:1"
     d="m 935.81854,682.55248 q -2.565,0 -4.725,-0.945 -2.115,-0.99 -3.69,-2.655 -1.575,-1.71 -2.475,-3.915 -0.855,-2.205 -0.855,-4.725 0,-2.475 0.855,-4.635 0.9,-2.205 2.43,-3.825 1.575,-1.665 3.735,-2.61 2.16,-0.99 4.68,-0.99 2.565,0 4.68,0.99 2.16,0.945 3.69,2.61 1.53,1.665 2.385,3.825 0.855,2.16 0.855,4.59 0,0.36 0,0.72 0,0.36 -0.045,0.495 l -20.07,0 q 0.135,1.89 0.855,3.51 0.765,1.575 1.935,2.745 1.17,1.17 2.655,1.845 1.53,0.63 3.24,0.63 1.125,0 2.25,-0.315 1.125,-0.315 2.07,-0.855 0.945,-0.54 1.71,-1.305 0.765,-0.81 1.17,-1.755 l 2.655,0.72 q -0.54,1.305 -1.53,2.385 -0.99,1.035 -2.295,1.845 -1.305,0.765 -2.88,1.17 -1.575,0.45 -3.285,0.45 z m 8.64,-13.41 q -0.135,-1.89 -0.9,-3.42 -0.72,-1.575 -1.89,-2.7 -1.125,-1.125 -2.655,-1.755 -1.485,-0.63 -3.195,-0.63 -1.71,0 -3.24,0.63 -1.53,0.63 -2.7,1.755 -1.125,1.125 -1.845,2.7 -0.675,1.575 -0.81,3.42 l 17.235,0 z" />
  <path
     inkscape:connector-curvature="0"
     id="path4336"
     style="font-style:normal;font-variant:normal;font-weight:normal;font-stretch:normal;font-size:45px;line-height:150%;font-family:Raleway;-inkscape-font-specification:Raleway;letter-spacing:0px;word-spacing:0px;fill:#e1e1e1;fill-opacity:1;stroke:none;stroke-width:1px;stroke-linecap:butt;stroke-linejoin:miter;stroke-opacity:1"
     d="m 952.6038,685.74748 0.765,-3.78 -1.035,0 0,-4.275 2.97,0 0,4.275 -1.125,3.78 -1.575,0 z" />
  <g
     id="g7442"
     transform="translate(177.91855,387.68071)">
    <path
       inkscape:connector-curvature="0"
       style="fill:none;fill-rule:evenodd;stroke:#616161;stroke-width:6;stroke-linecap:butt;stroke-linejoin:miter;stroke-miterlimit:4;stroke-dasharray:none;stroke-opacity:1"
       d="m 1119.0815,336.8193 0,-34"
       id="path4281" />
    <path
       inkscape:connector-curvature="0"
       style="fill:none;fill-rule:evenodd;stroke:#616161;stroke-width:6;stroke-linecap:butt;stroke-linejoin:miter;stroke-miterlimit:4;stroke-dasharray:none;stroke-opacity:1"
       d="m 1285.0815,336.8193 0,-34"
       id="path4283" />
    <path
       inkscape:connector-curvature="0"
       id="path4285"
       style="opacity:1;fill:none;stroke:#616161;stroke-width:6;stroke-miterlimit:4;stroke-dasharray:none;stroke-opacity:1"
       d="m 1222.0815,170.81931 20,0 -18,36 0,36 5,10 66,0 c 17.6574,0 32,14.3428 32,32 l 0,51.99999 -250,0 0,-51.99999 c 0,-17.6572 14.3426,-32 32,-32 l 66,0 5,-10 0,-36 -18,-36 20,0" />
    <path
       inkscape:connector-curvature="0"
       id="path4293"
       d="m 1272.0815,198.81931 c 3.3107,0 6,2.6893 6,6 0,3.3107 -2.6893,6 -6,6 -3.3108,0 -6.0001,-2.6893 -6,-6"
       style="opacity:1;fill:#000000;fill-opacity:0;stroke:#616161;stroke-width:2;stroke-miterlimit:4;stroke-dasharray:none;stroke-opacity:1" />
    <path
       inkscape:connector-curvature="0"
       style="opacity:1;fill:#000000;fill-opacity:0;stroke:#616161;stroke-width:2;stroke-miterlimit:4;stroke-dasharray:none;stroke-opacity:1"
       d="m 1272.0815,176.8193 c 3.3107,0 6,2.6893 6,6.00001 0,3.3107 -2.6893,6 -6,6"
       id="path4297" />
    <path
       inkscape:connector-curvature="0"
       id="path4299"
       d="m 1132.0815,188.81931 c -3.3108,0 -6.0001,-2.6893 -6,-6 0,-3.31071 2.6892,-6.00001 6,-6.00001"
       style="opacity:1;fill:#000000;fill-opacity:0;stroke:#616161;stroke-width:2;stroke-miterlimit:4;stroke-dasharray:none;stroke-opacity:1" />
    <path
       inkscape:connector-curvature="0"
       d="m 1222.0815,170.8193 -4,-4 -8,8 -8,-8 -8,8 -8,-8 -4,4.00001"
       style="opacity:1;fill:none;stroke:#616161;stroke-width:2;stroke-miterlimit:4;stroke-dasharray:none;stroke-opacity:1"
       id="path4314" />
    <path
       inkscape:connector-curvature="0"
       d="m 1136.0816,207.81931 c -6,0 -18.0001,-19.0677 -18,-29.00001 0,-9.9323 6,-19 12,-19 0,-39.72864 32.2708,-72 72,-72 39.729,0 71.9999,32.27136 71.9999,72 6,0 12,9.0677 12,19 0,9.93231 -12,29.00001 -18,29.00001 0,15 -35.9999,34.99999 -36,65 l -60,0 c 10e-5,-30.00001 -35.9999,-50 -35.9999,-65 z"
       style="fill:none;fill-rule:evenodd;stroke:#616161;stroke-width:6;stroke-linecap:butt;stroke-linejoin:miter;stroke-miterlimit:4;stroke-dasharray:none;stroke-opacity:1"
       id="path4316" />
    <path
       inkscape:connector-curvature="0"
       d="m 1179.0815,295.8193 c -3.8626,0 -7.0001,-3.1376 -7,-7 0,-3.86249 3.1374,-7 7,-7 l 46,0 c 3.8625,0 7,3.13751 7,7 0,3.8624 -3.1375,7 -7,7 z"
       style="fill:none;fill-rule:evenodd;stroke:#616161;stroke-width:6;stroke-linecap:butt;stroke-linejoin:miter;stroke-miterlimit:4;stroke-dasharray:none;stroke-opacity:1"
       id="path4325" />
    <path
       inkscape:connector-curvature="0"
       d="m 1202.0815,304.8193 20,0 -8,16 -24,0 -8,-16 20,0"
       style="opacity:1;fill:none;stroke:#616161;stroke-width:6;stroke-miterlimit:4;stroke-dasharray:none;stroke-opacity:1"
       id="path4328" />
    <path
       inkscape:connector-curvature="0"
       id="path4333"
       style="opacity:1;fill:none;stroke:#616161;stroke-width:2;stroke-miterlimit:4;stroke-dasharray:none;stroke-opacity:1"
       d="m 1322.0815,170.8193 -20,1e-5" />
    <path
       inkscape:connector-curvature="0"
       d="m 1102.0815,170.8193 -20,1e-5"
       style="opacity:1;fill:none;stroke:#616161;stroke-width:2;stroke-miterlimit:4;stroke-dasharray:none;stroke-opacity:1"
       id="path4335" />
    <path
       inkscape:connector-curvature="0"
       d="m 1312.0815,110.8193 -20,10.00001"
       style="opacity:1;fill:none;stroke:#616161;stroke-width:2;stroke-miterlimit:4;stroke-dasharray:none;stroke-opacity:1"
       id="path4337" />
    <path
       inkscape:connector-curvature="0"
       id="path4339"
       style="opacity:1;fill:none;stroke:#616161;stroke-width:2;stroke-miterlimit:4;stroke-dasharray:none;stroke-opacity:1"
       d="m 1112.0815,120.8193 -20,-9.99999" />
    <path
       inkscape:connector-curvature="0"
       d="m 1312.0815,230.8193 -20,-9.99999"
       style="opacity:1;fill:none;stroke:#616161;stroke-width:2;stroke-miterlimit:4;stroke-dasharray:none;stroke-opacity:1"
       id="path4341" />
    <path
       inkscape:connector-curvature="0"
       id="path4343"
       style="opacity:1;fill:none;stroke:#616161;stroke-width:2;stroke-miterlimit:4;stroke-dasharray:none;stroke-opacity:1"
       d="m 1112.0815,220.8193 -20,10.00001" />
  </g>
</svg>
