<?xml version="1.0" encoding="UTF-8" standalone="no"?>
<svg
   xmlns:dc="http://purl.org/dc/elements/1.1/"
   xmlns:cc="http://creativecommons.org/ns#"
   xmlns:rdf="http://www.w3.org/1999/02/22-rdf-syntax-ns#"
   xmlns:svg="http://www.w3.org/2000/svg"
   xmlns="http://www.w3.org/2000/svg"
   xmlns:sodipodi="http://sodipodi.sourceforge.net/DTD/sodipodi-0.dtd"
   xmlns:inkscape="http://www.inkscape.org/namespaces/inkscape"
   version="1.1"
   id="svg2"
   viewBox="0 0 1600 1200"
   height="1200"
   width="1600"
   inkscape:version="0.91 r13725"
   sodipodi:docname="9-plain.svg">
  <sodipodi:namedview
     pagecolor="#ffffff"
     bordercolor="#666666"
     borderopacity="1"
     objecttolerance="10"
     gridtolerance="10"
     guidetolerance="10"
     inkscape:pageopacity="0"
     inkscape:pageshadow="2"
     inkscape:window-width="1280"
     inkscape:window-height="756"
     id="namedview30"
     showgrid="false"
     inkscape:zoom="0.19666667"
     inkscape:cx="800"
     inkscape:cy="600"
     inkscape:window-x="0"
     inkscape:window-y="44"
     inkscape:window-maximized="1"
     inkscape:current-layer="svg2" />
  <defs
     id="defs4">
    <clipPath
       id="clipPath5728"
       clipPathUnits="userSpaceOnUse">
      <path
         id="path5730"
         d="m 633,242.36215 a 179.99999,179.99999 0 0 0 -180,180 179.99999,179.99999 0 0 0 180,180.00001 l 220,0 0,-360.00001 -220,0 z"
         style="color:#000000;display:inline;overflow:visible;visibility:visible;opacity:1;fill:#e1e1e1;fill-opacity:1;fill-rule:evenodd;stroke:none;stroke-width:2.00500011;stroke-linecap:butt;stroke-linejoin:round;stroke-miterlimit:4;stroke-dasharray:none;stroke-dashoffset:0;stroke-opacity:1;marker:none;enable-background:accumulate" />
    </clipPath>
  </defs>
  <metadata
     id="metadata7">
    <rdf:RDF>
      <cc:Work
         rdf:about="">
        <dc:format>image/svg+xml</dc:format>
        <dc:type
           rdf:resource="http://purl.org/dc/dcmitype/StillImage" />
        <dc:title />
      </cc:Work>
    </rdf:RDF>
  </metadata>
  <path
     inkscape:connector-curvature="0"
     style="color:#000000;display:inline;overflow:visible;visibility:visible;opacity:1;fill:#2b3233;fill-opacity:1;fill-rule:evenodd;stroke:none;stroke-width:9;stroke-linecap:butt;stroke-linejoin:round;stroke-miterlimit:4;stroke-dasharray:none;stroke-dashoffset:0;stroke-opacity:1;marker:none;enable-background:accumulate"
     d="M 1600,1e-5 0,1e-5 0,1200 l 1600,0 z"
     id="rect4535" />
  <path
     inkscape:connector-curvature="0"
     style="color:#000000;display:inline;overflow:visible;visibility:visible;opacity:1;fill:#aa243b;fill-opacity:1;fill-rule:evenodd;stroke:none;stroke-width:9;stroke-linecap:butt;stroke-linejoin:round;stroke-miterlimit:4;stroke-dasharray:none;stroke-dashoffset:0;stroke-opacity:1;marker:none;enable-background:accumulate"
     d="m 0,0 0,1200 440,0 c -11.0457,0 -20,-8.9543 -20,-20 0,-11.0457 8.9543,-20 20,-20 l 15,0 c 11.04569,0 20,-8.9542 20,-20 0,-11.0457 -8.95431,-20 -20,-20 l -70,0 c -11.04569,0 -20,-8.9543 -20,-20 0,-11.0457 8.95431,-20 20,-20 l 5,0 c 11.04569,0 20,-8.9543 20,-20 0,-11.0457 -8.95431,-20 -20,-20 l -20,0 c -11.04569,0 -20,-8.9543 -20,-20 0,-11.0457 8.95431,-20 20,-20 l 45,0 c 11.04569,0 20,-8.95428 20,-20 0,-11.0457 -8.95431,-20 -20,-20 l -35,0 c -11.04569,0 -20,-8.95431 -20,-20 0,-11.0457 8.95431,-20 20,-20 11.0457,0 20,-8.95428 20,-20 0,-11.0457 -8.9543,-20 -20,-20 l -30,0 c -11.0457,0 -20,-8.95431 -20,-20 0,-11.0457 8.9543,-20 20,-20 l 10,0 c 11.04569,0 20,-8.95428 20,-20 0,-11.0457 -8.95431,-20 -20,-20 l -90,0 c -11.04569,0 -20,-8.95431 -20,-20 0,-11.04569 20,-20 20,-20 l 10,0 c 0,0 20,-8.95428 20,-20 0,-11.04569 -8.95431,-20 -20,-20 -11.04569,0 -20,-8.95431 -20,-20 0,-11.04569 8.95431,-20 20,-20 l 30,0 c 11.04569,0 20,-8.95429 20,-20 0,-11.0457 -8.95431,-20 -20,-20 l -45,0 c -11.0457,0 -20,-8.95431 -20,-20 0,-11.04569 8.9543,-20 20,-20 l 40,0 c 11.04569,0 20,-8.95428 20,-20 0,-11.0457 -8.95431,-20 -20,-20 l -100,0 c -11.04569,0 -20,-8.95431 -20,-20 0,-11.04569 8.95431,-20 20,-20 l 5,0 c 11.04569,0 20,-8.95428 20,-20 0,-11.0457 -8.95431,-20 -20,-20 l -20,0 c -11.04569,0 -20,-8.9543 -20,-20 0,-11.04569 8.95431,-20 20,-20 l 75,0 c 11.04569,0 20,-8.95428 20,-20 0,-11.0457 -8.95431,-20 -20,-20 l -35,0 c -11.04569,0 -20,-8.95431 -20,-20 0,-11.0457 8.95431,-20 20,-20 11.0457,0 20,-8.95428 20,-20 0,-11.0457 -8.9543,-20 -20,-20 l -30,0 c -11.0457,0 -20,-8.95431 -20,-20 0,-11.0457 8.9543,-20 20,-20 l 50,0 c 11.04569,0 20,-8.95428 20,-20 0,-11.0457 -8.95431,-20 -20,-20 l -30,0 c -11.04569,0 -20,-8.95431 -20,-20 0,-11.04569 8.95431,-20 20,-20 l 40,0 c 11.04569,0 20,-8.95428 20,-20 0,-11.04569 -8.95431,-20 -20,-20 -11.04569,0 -20,-8.95431 -20,-20 0,-11.04569 8.95431,-20 20,-20 l 30,0 c 11.04569,0 20,-8.95429 20,-20 0,-11.0457 -8.95431,-20 -20,-20 l -15,0 c -11.0457,0 -20,-8.95431 -20,-20 0,-11.04569 8.9543,-20 20,-20 l 5,0 c 11.04569,0 20,-8.9543 20,-20 C 300,8.9543 291.04569,0 280,0 Z"
     id="path4827" />
  <g
     transform="matrix(2.9268293,0,0,2.9268293,1048.811,-2086.4635)"
     id="layer1-2"
     style="fill:#681e2d;fill-opacity:1">
    <path
       inkscape:connector-curvature="0"
       id="rect4159"
       transform="translate(-337.84375,1020.375)"
       d="m 0,0 0,38 20,-10 14,7 28,-14 0,20 12,6 8,-4 0,-43 z m 50,30 -2,1 0,19 -12,6 0,-19 -2,1 0,19 L 22,63 22,43 8,36 0,40 0,82 82,82 82,45 62,55 50,49 Z"
       style="color:#000000;display:inline;overflow:visible;visibility:visible;opacity:1;fill:#681e2d;fill-opacity:1;fill-rule:evenodd;stroke:none;stroke-width:4;stroke-linecap:butt;stroke-linejoin:miter;stroke-miterlimit:4;stroke-dasharray:none;stroke-dashoffset:0;stroke-opacity:1;marker:none;enable-background:accumulate" />
  </g>
  <path
     inkscape:connector-curvature="0"
     id="path4181"
     style="font-style:normal;font-variant:normal;font-weight:300;font-stretch:normal;font-size:90px;line-height:125%;font-family:Raleway;-inkscape-font-specification:'Raleway Light';text-align:end;letter-spacing:0px;word-spacing:0px;text-anchor:end;fill:#681e2d;fill-opacity:1;stroke:none;stroke-width:1px;stroke-linecap:butt;stroke-linejoin:miter;stroke-opacity:1"
     d="m 125.7,551.22019 -63.900003,0 0,-21.24 q 0,-7.56 2.52,-13.23 2.52,-5.76 6.84,-9.54 4.32,-3.78 10.17,-5.67 5.76,-1.89 12.33,-1.89 7.290003,0 13.230003,2.16 5.85,2.07 10.08,6.03 4.14,3.96 6.48,9.63 2.25,5.58 2.25,12.51 l 0,21.24 z m -32.040003,-46.98 q -6.03,0 -11.07,1.71 -5.13,1.71 -8.82,5.04 -3.69,3.24 -5.76,8.01 -2.07,4.77 -2.07,10.98 l 0,16.65 55.620003,0 0,-16.65 q 0,-6.3 -2.07,-11.07 -2.16,-4.86 -5.94,-8.1 -3.78,-3.24 -8.82,-4.86 -5.130003,-1.71 -11.070003,-1.71 z" />
  <path
     inkscape:connector-curvature="0"
     id="path4183"
     style="font-style:normal;font-variant:normal;font-weight:300;font-stretch:normal;font-size:90px;line-height:125%;font-family:Raleway;-inkscape-font-specification:'Raleway Light';text-align:end;letter-spacing:0px;word-spacing:0px;text-anchor:end;fill:#681e2d;fill-opacity:1;stroke:none;stroke-width:1px;stroke-linecap:butt;stroke-linejoin:miter;stroke-opacity:1"
     d="m 126.6,468.50904 q 0,4.95 -1.89,9.18 -1.98,4.23 -5.31,7.38 -3.42,3.06 -7.83,4.86 -4.41,1.71 -9.45,1.71 -4.950003,0 -9.270003,-1.71 -4.41,-1.8 -7.65,-4.86 -3.33,-3.06 -5.22,-7.2 -1.89,-4.23 -1.89,-9.09 0,-4.95 1.98,-9.18 1.89,-4.23 5.22,-7.29 3.24,-3.06 7.65,-4.77 4.32,-1.71 9.180003,-1.71 0.45,0 1.17,0 0.63,0 0.81,0.09 l 0,41.04 q 4.05,-0.27 7.56,-1.89 3.42,-1.62 5.94,-4.05 2.52,-2.52 3.96,-5.76 1.44,-3.24 1.44,-6.93 0,-2.43 -0.63,-4.77 -0.72,-2.34 -1.89,-4.32 -1.17,-2.07 -2.79,-3.6 -1.71,-1.62 -3.69,-2.52 l 1.08,-3.96 q 2.52,0.99 4.68,2.97 2.07,1.89 3.6,4.5 1.53,2.52 2.34,5.58 0.9,3.06 0.9,6.3 z m -26.1,-18.36 q -4.140003,0.27 -7.560003,1.89 -3.42,1.53 -5.85,4.05 -2.52,2.43 -3.87,5.67 -1.44,3.24 -1.44,6.93 0,3.69 1.44,6.93 1.35,3.24 3.87,5.76 2.43,2.43 5.94,3.96 3.42,1.44 7.470003,1.71 l 0,-36.9 z" />
  <path
     inkscape:connector-curvature="0"
     id="path4185"
     style="font-style:normal;font-variant:normal;font-weight:300;font-stretch:normal;font-size:90px;line-height:125%;font-family:Raleway;-inkscape-font-specification:'Raleway Light';text-align:end;letter-spacing:0px;word-spacing:0px;text-anchor:end;fill:#681e2d;fill-opacity:1;stroke:none;stroke-width:1px;stroke-linecap:butt;stroke-linejoin:miter;stroke-opacity:1"
     d="m 126.6,414.05834 q 0,5.49 -2.88,10.26 -2.88,4.77 -7.38,7.47 l 9.36,0 0,4.14 -65.700003,0 0,-4.5 29.07,0 q -4.86,-3.33 -7.92,-7.83 -3.06,-4.59 -3.06,-10.53 0,-4.95 2.16,-8.91 2.07,-4.05 5.58,-6.75 3.42,-2.79 7.83,-4.23 4.32,-1.53 8.820003,-1.53 4.86,0 9.27,1.71 4.32,1.71 7.65,4.77 3.24,2.97 5.22,7.11 1.98,4.05 1.98,8.82 z m -4.05,0.9 q 0,-4.14 -1.71,-7.56 -1.71,-3.42 -4.5,-5.85 -2.88,-2.52 -6.48,-3.87 -3.6,-1.44 -7.38,-1.44 -3.960003,0 -7.560003,1.35 -3.69,1.26 -6.48,3.69 -2.88,2.34 -4.59,5.67 -1.71,3.24 -1.71,7.2 0,2.97 1.08,5.58 0.99,2.61 2.7,4.86 1.71,2.16 3.96,3.96 2.25,1.71 4.68,2.88 l 15.480003,0 q 2.61,-0.27 4.95,-1.98 2.25,-1.71 3.96,-4.05 1.62,-2.43 2.61,-5.22 0.99,-2.79 0.99,-5.22 z" />
  <path
     inkscape:connector-curvature="0"
     id="path4187"
     style="font-style:normal;font-variant:normal;font-weight:300;font-stretch:normal;font-size:90px;line-height:125%;font-family:Raleway;-inkscape-font-specification:'Raleway Light';text-align:end;letter-spacing:0px;word-spacing:0px;text-anchor:end;fill:#681e2d;fill-opacity:1;stroke:none;stroke-width:1px;stroke-linecap:butt;stroke-linejoin:miter;stroke-opacity:1"
     d="m 125.7,380.84839 -46.800003,0 0,-4.5 46.800003,0 0,4.5 z m -57.420003,0 -8.28,0 0,-4.5 8.28,0 0,4.5 z" />
  <path
     inkscape:connector-curvature="0"
     id="path4189"
     style="font-style:normal;font-variant:normal;font-weight:300;font-stretch:normal;font-size:90px;line-height:125%;font-family:Raleway;-inkscape-font-specification:'Raleway Light';text-align:end;letter-spacing:0px;word-spacing:0px;text-anchor:end;fill:#681e2d;fill-opacity:1;stroke:none;stroke-width:1px;stroke-linecap:butt;stroke-linejoin:miter;stroke-opacity:1"
     d="m 59.999997,361.85832 0,-4.59 56.430003,0 q 2.61,0 4.14,-1.44 1.53,-1.53 1.53,-4.14 0,-0.99 -0.18,-2.34 -0.27,-1.44 -0.72,-2.61 l 3.6,-0.9 q 0.63,1.53 0.99,3.78 0.45,2.25 0.45,3.87 0,3.78 -2.25,6.12 -2.34,2.25 -6.21,2.25 l -57.780003,0 z" />
  <path
     inkscape:connector-curvature="0"
     id="path4191"
     style="font-style:normal;font-variant:normal;font-weight:300;font-stretch:normal;font-size:90px;line-height:125%;font-family:Raleway;-inkscape-font-specification:'Raleway Light';text-align:end;letter-spacing:0px;word-spacing:0px;text-anchor:end;fill:#681e2d;fill-opacity:1;stroke:none;stroke-width:1px;stroke-linecap:butt;stroke-linejoin:miter;stroke-opacity:1"
     d="m 125.7,338.90808 -46.800003,0 0,-4.5 46.800003,0 0,4.5 z m -57.420003,0 -8.28,0 0,-4.5 8.28,0 0,4.5 z" />
  <path
     inkscape:connector-curvature="0"
     id="path4193"
     style="font-style:normal;font-variant:normal;font-weight:300;font-stretch:normal;font-size:90px;line-height:125%;font-family:Raleway;-inkscape-font-specification:'Raleway Light';text-align:end;letter-spacing:0px;word-spacing:0px;text-anchor:end;fill:#681e2d;fill-opacity:1;stroke:none;stroke-width:1px;stroke-linecap:butt;stroke-linejoin:miter;stroke-opacity:1"
     d="m 126.6,301.01801 q 0,4.86 -1.98,9 -2.07,4.14 -5.4,7.2 -3.42,2.97 -7.74,4.68 -4.41,1.62 -9.09,1.62 -4.860003,0 -9.270003,-1.62 -4.41,-1.62 -7.74,-4.5 -3.33,-2.88 -5.31,-6.75 -1.98,-3.96 -1.98,-8.64 0,-3.06 0.9,-5.76 0.9,-2.7 2.43,-5.04 1.44,-2.34 3.42,-4.23 1.98,-1.89 4.23,-3.24 l -29.07,0 0,-4.5 59.400003,0 q 2.25,0 2.25,-1.89 l 4.05,0 q 0.09,0.54 0.09,0.9 0.09,0.36 0.09,0.72 0,1.8 -1.35,3.06 -1.44,1.26 -2.97,1.26 l -5.22,0 q 4.68,2.88 7.47,7.74 2.79,4.77 2.79,9.99 z m -4.05,-0.81 q 0,-2.43 -0.99,-5.22 -0.99,-2.79 -2.7,-5.13 -1.8,-2.43 -4.05,-4.14 -2.25,-1.71 -4.86,-1.98 l -15.390003,0 q -2.52,0.99 -4.77,2.88 -2.34,1.8 -3.96,4.14 -1.71,2.34 -2.7,5.04 -0.99,2.7 -0.99,5.22 0,4.05 1.8,7.38 1.71,3.33 4.59,5.67 2.79,2.34 6.48,3.6 3.6,1.26 7.470003,1.26 4.05,0 7.65,-1.44 3.6,-1.44 6.39,-3.96 2.79,-2.61 4.41,-5.94 1.62,-3.42 1.62,-7.38 z" />
  <path
     inkscape:connector-curvature="0"
     id="path4195"
     style="font-style:normal;font-variant:normal;font-weight:300;font-stretch:normal;font-size:90px;line-height:125%;font-family:Raleway;-inkscape-font-specification:'Raleway Light';text-align:end;letter-spacing:0px;word-spacing:0px;text-anchor:end;fill:#681e2d;fill-opacity:1;stroke:none;stroke-width:1px;stroke-linecap:butt;stroke-linejoin:miter;stroke-opacity:1"
     d="m 126.6,253.40889 q 0,3.24 -1.08,6.03 -1.17,2.79 -3.06,4.95 -1.98,2.07 -4.59,3.24 -2.7,1.17 -5.76,1.17 -3.06,0 -5.58,-1.44 -2.52,-1.44 -4.32,-3.96 -1.89,-2.61 -2.880003,-6.21 -1.08,-3.6 -1.08,-7.92 0,-3.78 0.72,-7.56 0.63,-3.87 1.800003,-6.93 l -4.590003,0 q -6.66,0 -10.53,3.78 -3.96,3.78 -3.96,10.26 0,3.42 1.44,7.29 1.44,3.78 4.14,7.74 l -3.06,1.71 q -6.12,-9 -6.12,-17.1 0,-8.46 4.95,-13.32 4.86,-4.86 13.5,-4.86 l 22.860003,0 q 2.25,0 2.25,-1.98 l 4.05,0 q 0.09,0.45 0.09,0.99 0.09,0.45 0.09,0.81 0,1.8 -1.17,2.88 -1.26,1.08 -2.97,1.26 l -3.87,0 q 4.23,3.24 6.48,8.28 2.25,5.04 2.25,10.89 z m -3.6,-0.9 q 0,-5.22 -1.98,-9.54 -1.98,-4.41 -5.22,-6.75 -1.89,-1.44 -3.6,-1.44 l -8.28,0 q -1.26,3.24 -1.89,6.75 -0.63,3.51 -0.63,7.29 0,3.51 0.81,6.39 0.72,2.88 2.07,4.95 1.35,2.07 3.33,3.24 1.89,1.08 4.23,1.08 2.34,0 4.41,-0.9 2.07,-0.9 3.6,-2.52 1.44,-1.62 2.34,-3.78 0.81,-2.25 0.81,-4.77 z" />
  <path
     inkscape:connector-curvature="0"
     id="path4197"
     style="font-style:normal;font-variant:normal;font-weight:300;font-stretch:normal;font-size:90px;line-height:125%;font-family:Raleway;-inkscape-font-specification:'Raleway Light';text-align:end;letter-spacing:0px;word-spacing:0px;text-anchor:end;fill:#681e2d;fill-opacity:1;stroke:none;stroke-width:1px;stroke-linecap:butt;stroke-linejoin:miter;stroke-opacity:1"
     d="m 126.6,197.34003 q 0,4.86 -1.98,9 -2.07,4.14 -5.4,7.2 -3.42,2.97 -7.74,4.68 -4.41,1.62 -9.09,1.62 -4.860003,0 -9.270003,-1.62 -4.41,-1.62 -7.74,-4.5 -3.33,-2.88 -5.31,-6.75 -1.98,-3.96 -1.98,-8.64 0,-3.06 0.9,-5.76 0.9,-2.7 2.43,-5.04 1.44,-2.34 3.42,-4.23 1.98,-1.89 4.23,-3.24 l -29.07,0 0,-4.5 59.400003,0 q 2.25,0 2.25,-1.89 l 4.05,0 q 0.09,0.54 0.09,0.9 0.09,0.36 0.09,0.72 0,1.8 -1.35,3.06 -1.44,1.26 -2.97,1.26 l -5.22,0 q 4.68,2.88 7.47,7.74 2.79,4.77 2.79,9.99 z m -4.05,-0.81 q 0,-2.43 -0.99,-5.22 -0.99,-2.79 -2.7,-5.13 -1.8,-2.43 -4.05,-4.14 -2.25,-1.71 -4.86,-1.98 l -15.390003,0 q -2.52,0.99 -4.77,2.88 -2.34,1.8 -3.96,4.14 -1.71,2.34 -2.7,5.04 -0.99,2.7 -0.99,5.22 0,4.05 1.8,7.38 1.71,3.33 4.59,5.67 2.79,2.34 6.48,3.6 3.6,1.26 7.470003,1.26 4.05,0 7.65,-1.44 3.6,-1.44 6.39,-3.96 2.79,-2.61 4.41,-5.94 1.62,-3.42 1.62,-7.38 z" />
  <path
     inkscape:connector-curvature="0"
     id="path4199"
     style="font-style:normal;font-variant:normal;font-weight:300;font-stretch:normal;font-size:90px;line-height:125%;font-family:Raleway;-inkscape-font-specification:'Raleway Light';text-align:end;letter-spacing:0px;word-spacing:0px;text-anchor:end;fill:#681e2d;fill-opacity:1;stroke:none;stroke-width:1px;stroke-linecap:butt;stroke-linejoin:miter;stroke-opacity:1"
     d="m 126.6,141.36091 q 0,4.95 -1.89,9.18 -1.98,4.23 -5.31,7.38 -3.42,3.06 -7.83,4.86 -4.41,1.71 -9.45,1.71 -4.950003,0 -9.270003,-1.71 -4.41,-1.8 -7.65,-4.86 -3.33,-3.06 -5.22,-7.2 -1.89,-4.23 -1.89,-9.09 0,-4.95 1.98,-9.18 1.89,-4.23 5.22,-7.29 3.24,-3.06 7.65,-4.77 4.32,-1.71 9.180003,-1.71 0.45,0 1.17,0 0.63,0 0.81,0.09 l 0,41.04 q 4.05,-0.27 7.56,-1.89 3.42,-1.62 5.94,-4.05 2.52,-2.52 3.96,-5.76 1.44,-3.24 1.44,-6.93 0,-2.43 -0.63,-4.77 -0.72,-2.34 -1.89,-4.32 -1.17,-2.07 -2.79,-3.6 -1.71,-1.62 -3.69,-2.52 l 1.08,-3.96 q 2.52,0.99 4.68,2.97 2.07,1.89 3.6,4.5 1.53,2.52 2.34,5.58 0.9,3.06 0.9,6.3 z m -26.1,-18.36 q -4.140003,0.27 -7.560003,1.89 -3.42,1.53 -5.85,4.05 -2.52,2.43 -3.87,5.67 -1.44,3.24 -1.44,6.93 0,3.69 1.44,6.93 1.35,3.24 3.87,5.76 2.43,2.43 5.94,3.96 3.42,1.44 7.470003,1.71 l 0,-36.9 z" />
  <path
     inkscape:connector-curvature="0"
     id="path4201"
     style="font-style:normal;font-variant:normal;font-weight:300;font-stretch:normal;font-size:90px;line-height:125%;font-family:Raleway;-inkscape-font-specification:'Raleway Light';text-align:end;letter-spacing:0px;word-spacing:0px;text-anchor:end;fill:#681e2d;fill-opacity:1;stroke:none;stroke-width:1px;stroke-linecap:butt;stroke-linejoin:miter;stroke-opacity:1"
     d="m 126.6,93.930209 q 0,5.4 -1.8,10.350001 -1.8,4.95 -5.4,8.64 l -3.06,-2.25 q 3.42,-3.78 5.04,-7.83 1.62,-4.050001 1.62,-8.910001 0,-6.12 -2.52,-9.81 -2.61,-3.78 -7.2,-3.78 -2.16,0 -3.6,0.99 -1.53,0.9 -2.52,2.79 -1.08,1.89 -1.89,4.68 -0.81,2.79 -1.71,6.48 -0.9,3.96 -1.8,6.930001 -0.9,2.88 -2.160003,4.77 -1.26,1.89 -3.06,2.88 -1.8,0.9 -4.59,0.9 -3.51,0 -6.12,-1.35 -2.61,-1.35 -4.32,-3.69 -1.71,-2.43 -2.52,-5.49 -0.9,-3.150001 -0.9,-6.660001 0,-5.49 1.89,-9.72 1.8,-4.23 4.68,-6.57 l 2.43,2.52 q -2.7,2.34 -4.05,6.12 -1.35,3.69 -1.35,7.92 0,2.61 0.54,4.95 0.54,2.250001 1.71,3.960001 1.17,1.71 3.06,2.7 1.8,0.99 4.32,0.99 2.07,0 3.33,-0.63 1.26,-0.72 2.16,-2.16 0.9,-1.53 1.62,-3.870001 0.63,-2.34 1.44,-5.58 1.080003,-4.41 2.070003,-7.83 0.99,-3.42 2.43,-5.67 1.44,-2.34 3.42,-3.51 1.98,-1.26 5.04,-1.26 6.3,0 10.08,4.95 3.69,4.86 3.69,13.05 z" />
  <path
     inkscape:connector-curvature="0"
     id="path4203"
     style="font-style:normal;font-variant:normal;font-weight:300;font-stretch:normal;font-size:90px;line-height:125%;font-family:Raleway;-inkscape-font-specification:'Raleway Light';text-align:end;letter-spacing:0px;word-spacing:0px;text-anchor:end;fill:#681e2d;fill-opacity:1;stroke:none;stroke-width:1px;stroke-linecap:butt;stroke-linejoin:miter;stroke-opacity:1"
     d="m 125.7,66.48133 -7.65,0 0,-3.96 7.65,0 0,3.96 z" />
  <path
     inkscape:connector-curvature="0"
     style="color:#000000;display:inline;overflow:visible;visibility:visible;opacity:1;fill:#e1e1e1;fill-opacity:1;fill-rule:evenodd;stroke:none;stroke-width:2.00500011;stroke-linecap:butt;stroke-linejoin:round;stroke-miterlimit:4;stroke-dasharray:none;stroke-dashoffset:0;stroke-opacity:1;marker:none;enable-background:accumulate"
     d="M 1560.0001,600.00002 A 179.99999,179.99999 0 0 1 1380,780.00001 179.99999,179.99999 0 0 1 1200,600.00002 179.99999,179.99999 0 0 1 1380,420.00001 179.99999,179.99999 0 0 1 1560.0001,600.00002 Z"
     id="path5505" />
  <path
     inkscape:connector-curvature="0"
     style="color:#000000;display:inline;overflow:visible;visibility:visible;opacity:1;fill:#e1e1e1;fill-opacity:1;fill-rule:evenodd;stroke:none;stroke-width:2.00500011;stroke-linecap:butt;stroke-linejoin:round;stroke-miterlimit:4;stroke-dasharray:none;stroke-dashoffset:0;stroke-opacity:1;marker:none;enable-background:accumulate"
     d="m 1380,419.99999 220,0 0,360.00002 -220,0 z"
     id="rect5679" />
  <path
     inkscape:connector-curvature="0"
     id="path4206"
     style="font-style:normal;font-variant:normal;font-weight:normal;font-stretch:normal;font-size:45px;line-height:150%;font-family:Raleway;-inkscape-font-specification:Raleway;letter-spacing:0px;word-spacing:0px;fill:#e1e1e1;fill-opacity:1;stroke:none;stroke-width:1px;stroke-linecap:butt;stroke-linejoin:miter;stroke-opacity:1"
     d="m 533.92,550.50001 -21.24,31.95 -3.465,0 21.24,-31.95 3.465,0 z" />
  <path
     inkscape:connector-curvature="0"
     id="path4208"
     style="font-style:normal;font-variant:normal;font-weight:normal;font-stretch:normal;font-size:45px;line-height:150%;font-family:Raleway;-inkscape-font-specification:Raleway;letter-spacing:0px;word-spacing:0px;fill:#e1e1e1;fill-opacity:1;stroke:none;stroke-width:1px;stroke-linecap:butt;stroke-linejoin:miter;stroke-opacity:1"
     d="m 549.98519,550.50001 -21.24,31.95 -3.465,0 21.24,-31.95 3.465,0 z" />
  <path
     inkscape:connector-curvature="0"
     id="path4210"
     style="font-style:normal;font-variant:normal;font-weight:normal;font-stretch:normal;font-size:45px;line-height:150%;font-family:Raleway;-inkscape-font-specification:Raleway;letter-spacing:0px;word-spacing:0px;fill:#e1e1e1;fill-opacity:1;stroke:none;stroke-width:1px;stroke-linecap:butt;stroke-linejoin:miter;stroke-opacity:1"
     d="m 595.03058,582.45001 0,-26.235 -11.655,20.295 -1.845,0 -11.655,-20.295 0,26.235 -3.15,0 0,-31.95 3.24,0 12.465,21.87 12.555,-21.87 3.195,0 0,31.95 -3.15,0 z" />
  <path
     inkscape:connector-curvature="0"
     id="path4212"
     style="font-style:normal;font-variant:normal;font-weight:normal;font-stretch:normal;font-size:45px;line-height:150%;font-family:Raleway;-inkscape-font-specification:Raleway;letter-spacing:0px;word-spacing:0px;fill:#e1e1e1;fill-opacity:1;stroke:none;stroke-width:1px;stroke-linecap:butt;stroke-linejoin:miter;stroke-opacity:1"
     d="m 611.23126,582.90001 q -1.665,0 -3.105,-0.54 -1.395,-0.585 -2.475,-1.575 -1.035,-0.99 -1.62,-2.295 -0.585,-1.35 -0.585,-2.88 0,-1.53 0.72,-2.835 0.72,-1.305 2.025,-2.25 1.305,-0.945 3.105,-1.44 1.8,-0.54 3.96,-0.54 1.8,0 3.645,0.315 1.845,0.315 3.285,0.9 l 0,-2.115 q 0,-3.105 -1.755,-4.905 -1.755,-1.845 -4.86,-1.845 -1.8,0 -3.69,0.72 -1.89,0.72 -3.825,2.07 l -1.08,-2.025 q 4.545,-3.06 8.82,-3.06 4.41,0 6.93,2.475 2.52,2.475 2.52,6.84 l 0,10.575 q 0,1.26 1.125,1.26 l 0,2.7 q -0.765,0.135 -1.17,0.135 -1.17,0 -1.845,-0.585 -0.63,-0.585 -0.675,-1.62 l -0.09,-1.845 q -1.62,2.115 -4.095,3.24 -2.43,1.125 -5.265,1.125 z m 0.72,-2.34 q 2.385,0 4.365,-0.9 2.025,-0.9 3.06,-2.385 0.405,-0.405 0.585,-0.855 0.225,-0.495 0.225,-0.9 l 0,-3.825 q -1.53,-0.585 -3.195,-0.9 -1.62,-0.315 -3.33,-0.315 -3.24,0 -5.265,1.35 -2.025,1.35 -2.025,3.555 0,1.08 0.405,2.025 0.45,0.945 1.17,1.665 0.765,0.675 1.8,1.08 1.035,0.405 2.205,0.405 z" />
  <path
     inkscape:connector-curvature="0"
     id="path4214"
     style="font-style:normal;font-variant:normal;font-weight:normal;font-stretch:normal;font-size:45px;line-height:150%;font-family:Raleway;-inkscape-font-specification:Raleway;letter-spacing:0px;word-spacing:0px;fill:#e1e1e1;fill-opacity:1;stroke:none;stroke-width:1px;stroke-linecap:butt;stroke-linejoin:miter;stroke-opacity:1"
     d="m 629.99686,549.60001 3.06,0 0,27.54 q 0,1.305 0.72,2.07 0.72,0.72 2.025,0.72 0.495,0 1.17,-0.135 0.675,-0.135 1.26,-0.36 l 0.54,2.475 q -0.855,0.36 -2.115,0.585 -1.215,0.225 -2.115,0.225 -2.115,0 -3.33,-1.17 -1.215,-1.215 -1.215,-3.375 l 0,-28.575 z" />
  <path
     inkscape:connector-curvature="0"
     id="path4216"
     style="font-style:normal;font-variant:normal;font-weight:normal;font-stretch:normal;font-size:45px;line-height:150%;font-family:Raleway;-inkscape-font-specification:Raleway;letter-spacing:0px;word-spacing:0px;fill:#e1e1e1;fill-opacity:1;stroke:none;stroke-width:1px;stroke-linecap:butt;stroke-linejoin:miter;stroke-opacity:1"
     d="m 647.99701,582.90001 q -1.665,0 -3.105,-0.54 -1.395,-0.585 -2.475,-1.575 -1.035,-0.99 -1.62,-2.295 -0.585,-1.35 -0.585,-2.88 0,-1.53 0.72,-2.835 0.72,-1.305 2.025,-2.25 1.305,-0.945 3.105,-1.44 1.8,-0.54 3.96,-0.54 1.8,0 3.645,0.315 1.845,0.315 3.285,0.9 l 0,-2.115 q 0,-3.105 -1.755,-4.905 -1.755,-1.845 -4.86,-1.845 -1.8,0 -3.69,0.72 -1.89,0.72 -3.825,2.07 l -1.08,-2.025 q 4.545,-3.06 8.82,-3.06 4.41,0 6.93,2.475 2.52,2.475 2.52,6.84 l 0,10.575 q 0,1.26 1.125,1.26 l 0,2.7 q -0.765,0.135 -1.17,0.135 -1.17,0 -1.845,-0.585 -0.63,-0.585 -0.675,-1.62 l -0.09,-1.845 q -1.62,2.115 -4.095,3.24 -2.43,1.125 -5.265,1.125 z m 0.72,-2.34 q 2.385,0 4.365,-0.9 2.025,-0.9 3.06,-2.385 0.405,-0.405 0.585,-0.855 0.225,-0.495 0.225,-0.9 l 0,-3.825 q -1.53,-0.585 -3.195,-0.9 -1.62,-0.315 -3.33,-0.315 -3.24,0 -5.265,1.35 -2.025,1.35 -2.025,3.555 0,1.08 0.405,2.025 0.45,0.945 1.17,1.665 0.765,0.675 1.8,1.08 1.035,0.405 2.205,0.405 z" />
  <path
     inkscape:connector-curvature="0"
     id="path4218"
     style="font-style:normal;font-variant:normal;font-weight:normal;font-stretch:normal;font-size:45px;line-height:150%;font-family:Raleway;-inkscape-font-specification:Raleway;letter-spacing:0px;word-spacing:0px;fill:#e1e1e1;fill-opacity:1;stroke:none;stroke-width:1px;stroke-linecap:butt;stroke-linejoin:miter;stroke-opacity:1"
     d="m 712.97783,582.45001 -3.06,0 0,-13.095 q 0,-4.095 -1.305,-6.03 -1.305,-1.935 -3.87,-1.935 -1.35,0 -2.565,0.495 -1.17,0.495 -2.205,1.395 -0.99,0.9 -1.755,2.16 -0.765,1.215 -1.17,2.7 l 0,14.31 -3.06,0 0,-13.095 q 0,-4.185 -1.26,-6.075 -1.26,-1.89 -3.87,-1.89 -2.655,0 -4.725,1.845 -2.07,1.845 -2.97,4.86 l 0,14.355 -3.06,0 0,-23.445 2.79,0 0,5.31 q 1.44,-2.7 3.78,-4.185 2.34,-1.53 5.175,-1.53 2.97,0 4.725,1.665 1.8,1.665 2.205,4.365 3.285,-6.03 9.045,-6.03 1.98,0 3.33,0.72 1.395,0.72 2.205,2.07 0.855,1.305 1.215,3.195 0.405,1.845 0.405,4.14 l 0,13.725 z" />
  <path
     inkscape:connector-curvature="0"
     id="path4220"
     style="font-style:normal;font-variant:normal;font-weight:normal;font-stretch:normal;font-size:45px;line-height:150%;font-family:Raleway;-inkscape-font-specification:Raleway;letter-spacing:0px;word-spacing:0px;fill:#e1e1e1;fill-opacity:1;stroke:none;stroke-width:1px;stroke-linecap:butt;stroke-linejoin:miter;stroke-opacity:1"
     d="m 729.58311,582.90001 q -2.565,0 -4.725,-0.945 -2.115,-0.99 -3.69,-2.655 -1.575,-1.71 -2.475,-3.915 -0.855,-2.205 -0.855,-4.725 0,-2.475 0.855,-4.635 0.9,-2.205 2.43,-3.825 1.575,-1.665 3.735,-2.61 2.16,-0.99 4.68,-0.99 2.565,0 4.68,0.99 2.16,0.945 3.69,2.61 1.53,1.665 2.385,3.825 0.855,2.16 0.855,4.59 0,0.36 0,0.72 0,0.36 -0.045,0.495 l -20.07,0 q 0.135,1.89 0.855,3.51 0.765,1.575 1.935,2.745 1.17,1.17 2.655,1.845 1.53,0.63 3.24,0.63 1.125,0 2.25,-0.315 1.125,-0.315 2.07,-0.855 0.945,-0.54 1.71,-1.305 0.765,-0.81 1.17,-1.755 l 2.655,0.72 q -0.54,1.305 -1.53,2.385 -0.99,1.035 -2.295,1.845 -1.305,0.765 -2.88,1.17 -1.575,0.45 -3.285,0.45 z m 8.64,-13.41 q -0.135,-1.89 -0.9,-3.42 -0.72,-1.575 -1.89,-2.7 -1.125,-1.125 -2.655,-1.755 -1.485,-0.63 -3.195,-0.63 -1.71,0 -3.24,0.63 -1.53,0.63 -2.7,1.755 -1.125,1.125 -1.845,2.7 -0.675,1.575 -0.81,3.42 l 17.235,0 z" />
  <path
     inkscape:connector-curvature="0"
     id="path4222"
     style="font-style:normal;font-variant:normal;font-weight:normal;font-stretch:normal;font-size:45px;line-height:150%;font-family:Raleway;-inkscape-font-specification:Raleway;letter-spacing:0px;word-spacing:0px;fill:#e1e1e1;fill-opacity:1;stroke:none;stroke-width:1px;stroke-linecap:butt;stroke-linejoin:miter;stroke-opacity:1"
     d="m 780.74837,582.45001 -3.06,0 0,-13.095 q 0,-4.095 -1.305,-6.03 -1.305,-1.935 -3.87,-1.935 -1.35,0 -2.565,0.495 -1.17,0.495 -2.205,1.395 -0.99,0.9 -1.755,2.16 -0.765,1.215 -1.17,2.7 l 0,14.31 -3.06,0 0,-13.095 q 0,-4.185 -1.26,-6.075 -1.26,-1.89 -3.87,-1.89 -2.655,0 -4.725,1.845 -2.07,1.845 -2.97,4.86 l 0,14.355 -3.06,0 0,-23.445 2.79,0 0,5.31 q 1.44,-2.7 3.78,-4.185 2.34,-1.53 5.175,-1.53 2.97,0 4.725,1.665 1.8,1.665 2.205,4.365 3.285,-6.03 9.045,-6.03 1.98,0 3.33,0.72 1.395,0.72 2.205,2.07 0.855,1.305 1.215,3.195 0.405,1.845 0.405,4.14 l 0,13.725 z" />
  <path
     inkscape:connector-curvature="0"
     id="path4224"
     style="font-style:normal;font-variant:normal;font-weight:normal;font-stretch:normal;font-size:45px;line-height:150%;font-family:Raleway;-inkscape-font-specification:Raleway;letter-spacing:0px;word-spacing:0px;fill:#e1e1e1;fill-opacity:1;stroke:none;stroke-width:1px;stroke-linecap:butt;stroke-linejoin:miter;stroke-opacity:1"
     d="m 797.21867,582.90001 q -2.565,0 -4.68,-0.945 -2.115,-0.99 -3.69,-2.655 -1.53,-1.665 -2.385,-3.87 -0.855,-2.205 -0.855,-4.635 0,-2.475 0.855,-4.68 0.9,-2.205 2.43,-3.87 1.575,-1.665 3.69,-2.655 2.115,-0.99 4.635,-0.99 2.52,0 4.635,0.99 2.16,0.99 3.69,2.655 1.575,1.665 2.43,3.87 0.9,2.205 0.9,4.68 0,2.43 -0.855,4.635 -0.855,2.205 -2.43,3.87 -1.53,1.665 -3.69,2.655 -2.115,0.945 -4.68,0.945 z m -8.505,-12.06 q 0,1.98 0.675,3.69 0.675,1.665 1.8,2.97 1.17,1.26 2.7,1.98 1.575,0.72 3.33,0.72 1.755,0 3.285,-0.72 1.575,-0.765 2.745,-2.025 1.17,-1.305 1.845,-3.015 0.675,-1.71 0.675,-3.69 0,-1.935 -0.675,-3.645 -0.675,-1.755 -1.845,-3.015 -1.17,-1.305 -2.745,-2.025 -1.53,-0.765 -3.285,-0.765 -1.755,0 -3.285,0.765 -1.53,0.72 -2.7,2.025 -1.17,1.305 -1.845,3.06 -0.675,1.71 -0.675,3.69 z" />
  <path
     inkscape:connector-curvature="0"
     id="path4226"
     style="font-style:normal;font-variant:normal;font-weight:normal;font-stretch:normal;font-size:45px;line-height:150%;font-family:Raleway;-inkscape-font-specification:Raleway;letter-spacing:0px;word-spacing:0px;fill:#e1e1e1;fill-opacity:1;stroke:none;stroke-width:1px;stroke-linecap:butt;stroke-linejoin:miter;stroke-opacity:1"
     d="m 825.70372,561.70501 q -3.105,0.09 -5.4,1.71 -2.295,1.62 -3.24,4.455 l 0,14.58 -3.06,0 0,-23.445 2.88,0 0,5.625 q 1.305,-2.7 3.51,-4.23 2.205,-1.53 4.725,-1.53 0.36,0 0.585,0.045 l 0,2.79 z" />
  <path
     inkscape:connector-curvature="0"
     id="path4228"
     style="font-style:normal;font-variant:normal;font-weight:normal;font-stretch:normal;font-size:45px;line-height:150%;font-family:Raleway;-inkscape-font-specification:Raleway;letter-spacing:0px;word-spacing:0px;fill:#e1e1e1;fill-opacity:1;stroke:none;stroke-width:1px;stroke-linecap:butt;stroke-linejoin:miter;stroke-opacity:1"
     d="m 829.79932,582.45001 0,-23.445 3.06,0 0,23.445 -3.06,0 z m 0,-28.35 0,-4.5 3.06,0 0,4.5 -3.06,0 z" />
  <path
     inkscape:connector-curvature="0"
     id="path4230"
     style="font-style:normal;font-variant:normal;font-weight:normal;font-stretch:normal;font-size:45px;line-height:150%;font-family:Raleway;-inkscape-font-specification:Raleway;letter-spacing:0px;word-spacing:0px;fill:#e1e1e1;fill-opacity:1;stroke:none;stroke-width:1px;stroke-linecap:butt;stroke-linejoin:miter;stroke-opacity:1"
     d="m 845.50373,582.90001 q -1.665,0 -3.105,-0.54 -1.395,-0.585 -2.475,-1.575 -1.035,-0.99 -1.62,-2.295 -0.585,-1.35 -0.585,-2.88 0,-1.53 0.72,-2.835 0.72,-1.305 2.025,-2.25 1.305,-0.945 3.105,-1.44 1.8,-0.54 3.96,-0.54 1.8,0 3.645,0.315 1.845,0.315 3.285,0.9 l 0,-2.115 q 0,-3.105 -1.755,-4.905 -1.755,-1.845 -4.86,-1.845 -1.8,0 -3.69,0.72 -1.89,0.72 -3.825,2.07 l -1.08,-2.025 q 4.545,-3.06 8.82,-3.06 4.41,0 6.93,2.475 2.52,2.475 2.52,6.84 l 0,10.575 q 0,1.26 1.125,1.26 l 0,2.7 q -0.765,0.135 -1.17,0.135 -1.17,0 -1.845,-0.585 -0.63,-0.585 -0.675,-1.62 l -0.09,-1.845 q -1.62,2.115 -4.095,3.24 -2.43,1.125 -5.265,1.125 z m 0.72,-2.34 q 2.385,0 4.365,-0.9 2.025,-0.9 3.06,-2.385 0.405,-0.405 0.585,-0.855 0.225,-0.495 0.225,-0.9 l 0,-3.825 q -1.53,-0.585 -3.195,-0.9 -1.62,-0.315 -3.33,-0.315 -3.24,0 -5.265,1.35 -2.025,1.35 -2.025,3.555 0,1.08 0.405,2.025 0.45,0.945 1.17,1.665 0.765,0.675 1.8,1.08 1.035,0.405 2.205,0.405 z" />
  <path
     inkscape:connector-curvature="0"
     id="path4232"
     style="font-style:normal;font-variant:normal;font-weight:normal;font-stretch:normal;font-size:45px;line-height:150%;font-family:Raleway;-inkscape-font-specification:Raleway;letter-spacing:0px;word-spacing:0px;fill:#e1e1e1;fill-opacity:1;stroke:none;stroke-width:1px;stroke-linecap:butt;stroke-linejoin:miter;stroke-opacity:1"
     d="m 863.68434,582.45001 0,-4.41 2.655,0 0,4.41 -2.655,0 z" />
  <path
     inkscape:connector-curvature="0"
     id="path4234"
     style="font-style:normal;font-variant:normal;font-weight:normal;font-stretch:normal;font-size:45px;line-height:150%;font-family:Raleway;-inkscape-font-specification:Raleway;letter-spacing:0px;word-spacing:0px;fill:#e1e1e1;fill-opacity:1;stroke:none;stroke-width:1px;stroke-linecap:butt;stroke-linejoin:miter;stroke-opacity:1"
     d="m 533.92,618.00001 -21.24,31.95 -3.465,0 21.24,-31.95 3.465,0 z" />
  <path
     inkscape:connector-curvature="0"
     id="path4236"
     style="font-style:normal;font-variant:normal;font-weight:normal;font-stretch:normal;font-size:45px;line-height:150%;font-family:Raleway;-inkscape-font-specification:Raleway;letter-spacing:0px;word-spacing:0px;fill:#e1e1e1;fill-opacity:1;stroke:none;stroke-width:1px;stroke-linecap:butt;stroke-linejoin:miter;stroke-opacity:1"
     d="m 549.98519,618.00001 -21.24,31.95 -3.465,0 21.24,-31.95 3.465,0 z" />
  <path
     inkscape:connector-curvature="0"
     id="path4238"
     style="font-style:normal;font-variant:normal;font-weight:normal;font-stretch:normal;font-size:45px;line-height:150%;font-family:Raleway;-inkscape-font-specification:Raleway;letter-spacing:0px;word-spacing:0px;fill:#e1e1e1;fill-opacity:1;stroke:none;stroke-width:1px;stroke-linecap:butt;stroke-linejoin:miter;stroke-opacity:1"
     d="m 564.47564,626.46001 0,-8.73 2.655,0 0,8.73 -2.655,0 z m 4.275,0 0,-8.73 2.655,0 0,8.73 -2.655,0 z" />
  <path
     inkscape:connector-curvature="0"
     id="path4240"
     style="font-style:normal;font-variant:normal;font-weight:normal;font-stretch:normal;font-size:45px;line-height:150%;font-family:Raleway;-inkscape-font-specification:Raleway;letter-spacing:0px;word-spacing:0px;fill:#e1e1e1;fill-opacity:1;stroke:none;stroke-width:1px;stroke-linecap:butt;stroke-linejoin:miter;stroke-opacity:1"
     d="m 599.98028,647.16001 0,2.79 -21.465,0 0,-31.95 21.06,0 0,2.79 -17.91,0 0,11.52 15.615,0 0,2.655 -15.615,0 0,12.195 18.315,0 z" />
  <path
     inkscape:connector-curvature="0"
     id="path4242"
     style="font-style:normal;font-variant:normal;font-weight:normal;font-stretch:normal;font-size:45px;line-height:150%;font-family:Raleway;-inkscape-font-specification:Raleway;letter-spacing:0px;word-spacing:0px;fill:#e1e1e1;fill-opacity:1;stroke:none;stroke-width:1px;stroke-linecap:butt;stroke-linejoin:miter;stroke-opacity:1"
     d="m 624.73074,649.95001 -3.06,0 0,-13.095 q 0,-4.185 -1.26,-6.075 -1.215,-1.89 -3.78,-1.89 -1.35,0 -2.7,0.495 -1.35,0.495 -2.52,1.395 -1.125,0.9 -2.025,2.16 -0.9,1.215 -1.305,2.655 l 0,14.355 -3.06,0 0,-23.445 2.79,0 0,5.31 q 1.44,-2.565 4.095,-4.14 2.7,-1.575 5.85,-1.575 1.935,0 3.285,0.72 1.35,0.72 2.16,2.025 0.81,1.305 1.17,3.195 0.36,1.89 0.36,4.185 l 0,13.725 z" />
  <path
     inkscape:connector-curvature="0"
     id="path4244"
     style="font-style:normal;font-variant:normal;font-weight:normal;font-stretch:normal;font-size:45px;line-height:150%;font-family:Raleway;-inkscape-font-specification:Raleway;letter-spacing:0px;word-spacing:0px;fill:#e1e1e1;fill-opacity:1;stroke:none;stroke-width:1px;stroke-linecap:butt;stroke-linejoin:miter;stroke-opacity:1"
     d="m 639.0411,650.40001 q -2.745,0 -5.355,-0.9 -2.61,-0.9 -4.5,-2.61 l 1.395,-2.07 q 1.98,1.62 4.005,2.43 2.07,0.81 4.41,0.81 2.835,0 4.5,-1.125 1.71,-1.17 1.71,-3.285 0,-0.99 -0.45,-1.62 -0.45,-0.675 -1.35,-1.17 -0.855,-0.495 -2.205,-0.855 -1.305,-0.405 -3.06,-0.81 -2.025,-0.495 -3.51,-0.99 -1.485,-0.495 -2.475,-1.125 -0.945,-0.63 -1.44,-1.53 -0.45,-0.945 -0.45,-2.34 0,-1.755 0.675,-3.105 0.72,-1.35 1.89,-2.205 1.215,-0.9 2.79,-1.35 1.62,-0.45 3.42,-0.45 2.7,0 4.905,0.9 2.205,0.855 3.555,2.295 l -1.485,1.8 q -1.305,-1.35 -3.195,-2.025 -1.845,-0.675 -3.87,-0.675 -1.215,0 -2.25,0.27 -1.035,0.225 -1.845,0.765 -0.765,0.54 -1.215,1.395 -0.45,0.81 -0.45,1.935 0,0.945 0.315,1.53 0.315,0.585 1.035,1.035 0.72,0.405 1.8,0.765 1.125,0.315 2.7,0.675 2.25,0.54 3.96,1.08 1.71,0.54 2.835,1.26 1.17,0.72 1.755,1.755 0.585,1.035 0.585,2.52 0,3.24 -2.475,5.13 -2.475,1.89 -6.66,1.89 z" />
  <path
     inkscape:connector-curvature="0"
     id="path4246"
     style="font-style:normal;font-variant:normal;font-weight:normal;font-stretch:normal;font-size:45px;line-height:150%;font-family:Raleway;-inkscape-font-specification:Raleway;letter-spacing:0px;word-spacing:0px;fill:#e1e1e1;fill-opacity:1;stroke:none;stroke-width:1px;stroke-linecap:butt;stroke-linejoin:miter;stroke-opacity:1"
     d="m 653.17108,649.95001 0,-23.445 3.06,0 0,23.445 -3.06,0 z m 0,-28.35 0,-4.5 3.06,0 0,4.5 -3.06,0 z" />
  <path
     inkscape:connector-curvature="0"
     id="path4248"
     style="font-style:normal;font-variant:normal;font-weight:normal;font-stretch:normal;font-size:45px;line-height:150%;font-family:Raleway;-inkscape-font-specification:Raleway;letter-spacing:0px;word-spacing:0px;fill:#e1e1e1;fill-opacity:1;stroke:none;stroke-width:1px;stroke-linecap:butt;stroke-linejoin:miter;stroke-opacity:1"
     d="m 697.8555,649.95001 -3.06,0 0,-13.095 q 0,-4.095 -1.305,-6.03 -1.305,-1.935 -3.87,-1.935 -1.35,0 -2.565,0.495 -1.17,0.495 -2.205,1.395 -0.99,0.9 -1.755,2.16 -0.765,1.215 -1.17,2.7 l 0,14.31 -3.06,0 0,-13.095 q 0,-4.185 -1.26,-6.075 -1.26,-1.89 -3.87,-1.89 -2.655,0 -4.725,1.845 -2.07,1.845 -2.97,4.86 l 0,14.355 -3.06,0 0,-23.445 2.79,0 0,5.31 q 1.44,-2.7 3.78,-4.185 2.34,-1.53 5.175,-1.53 2.97,0 4.725,1.665 1.8,1.665 2.205,4.365 3.285,-6.03 9.045,-6.03 1.98,0 3.33,0.72 1.395,0.72 2.205,2.07 0.855,1.305 1.215,3.195 0.405,1.845 0.405,4.14 l 0,13.725 z" />
  <path
     inkscape:connector-curvature="0"
     id="path4250"
     style="font-style:normal;font-variant:normal;font-weight:normal;font-stretch:normal;font-size:45px;line-height:150%;font-family:Raleway;-inkscape-font-specification:Raleway;letter-spacing:0px;word-spacing:0px;fill:#e1e1e1;fill-opacity:1;stroke:none;stroke-width:1px;stroke-linecap:butt;stroke-linejoin:miter;stroke-opacity:1"
     d="m 704.33578,649.95001 0,-23.445 3.06,0 0,23.445 -3.06,0 z m 0,-28.35 0,-4.5 3.06,0 0,4.5 -3.06,0 z" />
  <path
     inkscape:connector-curvature="0"
     id="path4252"
     style="font-style:normal;font-variant:normal;font-weight:normal;font-stretch:normal;font-size:45px;line-height:150%;font-family:Raleway;-inkscape-font-specification:Raleway;letter-spacing:0px;word-spacing:0px;fill:#e1e1e1;fill-opacity:1;stroke:none;stroke-width:1px;stroke-linecap:butt;stroke-linejoin:miter;stroke-opacity:1"
     d="m 721.9302,650.40001 q -2.745,0 -5.355,-0.9 -2.61,-0.9 -4.5,-2.61 l 1.395,-2.07 q 1.98,1.62 4.005,2.43 2.07,0.81 4.41,0.81 2.835,0 4.5,-1.125 1.71,-1.17 1.71,-3.285 0,-0.99 -0.45,-1.62 -0.45,-0.675 -1.35,-1.17 -0.855,-0.495 -2.205,-0.855 -1.305,-0.405 -3.06,-0.81 -2.025,-0.495 -3.51,-0.99 -1.485,-0.495 -2.475,-1.125 -0.945,-0.63 -1.44,-1.53 -0.45,-0.945 -0.45,-2.34 0,-1.755 0.675,-3.105 0.72,-1.35 1.89,-2.205 1.215,-0.9 2.79,-1.35 1.62,-0.45 3.42,-0.45 2.7,0 4.905,0.9 2.205,0.855 3.555,2.295 l -1.485,1.8 q -1.305,-1.35 -3.195,-2.025 -1.845,-0.675 -3.87,-0.675 -1.215,0 -2.25,0.27 -1.035,0.225 -1.845,0.765 -0.765,0.54 -1.215,1.395 -0.45,0.81 -0.45,1.935 0,0.945 0.315,1.53 0.315,0.585 1.035,1.035 0.72,0.405 1.8,0.765 1.125,0.315 2.7,0.675 2.25,0.54 3.96,1.08 1.71,0.54 2.835,1.26 1.17,0.72 1.755,1.755 0.585,1.035 0.585,2.52 0,3.24 -2.475,5.13 -2.475,1.89 -6.66,1.89 z" />
  <path
     inkscape:connector-curvature="0"
     id="path4254"
     style="font-style:normal;font-variant:normal;font-weight:normal;font-stretch:normal;font-size:45px;line-height:150%;font-family:Raleway;-inkscape-font-specification:Raleway;letter-spacing:0px;word-spacing:0px;fill:#e1e1e1;fill-opacity:1;stroke:none;stroke-width:1px;stroke-linecap:butt;stroke-linejoin:miter;stroke-opacity:1"
     d="m 770.93518,649.95001 -3.06,0 0,-13.095 q 0,-4.095 -1.305,-6.03 -1.305,-1.935 -3.87,-1.935 -1.35,0 -2.565,0.495 -1.17,0.495 -2.205,1.395 -0.99,0.9 -1.755,2.16 -0.765,1.215 -1.17,2.7 l 0,14.31 -3.06,0 0,-13.095 q 0,-4.185 -1.26,-6.075 -1.26,-1.89 -3.87,-1.89 -2.655,0 -4.725,1.845 -2.07,1.845 -2.97,4.86 l 0,14.355 -3.06,0 0,-23.445 2.79,0 0,5.31 q 1.44,-2.7 3.78,-4.185 2.34,-1.53 5.175,-1.53 2.97,0 4.725,1.665 1.8,1.665 2.205,4.365 3.285,-6.03 9.045,-6.03 1.98,0 3.33,0.72 1.395,0.72 2.205,2.07 0.855,1.305 1.215,3.195 0.405,1.845 0.405,4.14 l 0,13.725 z" />
  <path
     inkscape:connector-curvature="0"
     id="path4256"
     style="font-style:normal;font-variant:normal;font-weight:normal;font-stretch:normal;font-size:45px;line-height:150%;font-family:Raleway;-inkscape-font-specification:Raleway;letter-spacing:0px;word-spacing:0px;fill:#e1e1e1;fill-opacity:1;stroke:none;stroke-width:1px;stroke-linecap:butt;stroke-linejoin:miter;stroke-opacity:1"
     d="m 783.31047,650.40001 q -1.665,0 -3.105,-0.54 -1.395,-0.585 -2.475,-1.575 -1.035,-0.99 -1.62,-2.295 -0.585,-1.35 -0.585,-2.88 0,-1.53 0.72,-2.835 0.72,-1.305 2.025,-2.25 1.305,-0.945 3.105,-1.44 1.8,-0.54 3.96,-0.54 1.8,0 3.645,0.315 1.845,0.315 3.285,0.9 l 0,-2.115 q 0,-3.105 -1.755,-4.905 -1.755,-1.845 -4.86,-1.845 -1.8,0 -3.69,0.72 -1.89,0.72 -3.825,2.07 l -1.08,-2.025 q 4.545,-3.06 8.82,-3.06 4.41,0 6.93,2.475 2.52,2.475 2.52,6.84 l 0,10.575 q 0,1.26 1.125,1.26 l 0,2.7 q -0.765,0.135 -1.17,0.135 -1.17,0 -1.845,-0.585 -0.63,-0.585 -0.675,-1.62 l -0.09,-1.845 q -1.62,2.115 -4.095,3.24 -2.43,1.125 -5.265,1.125 z m 0.72,-2.34 q 2.385,0 4.365,-0.9 2.025,-0.9 3.06,-2.385 0.405,-0.405 0.585,-0.855 0.225,-0.495 0.225,-0.9 l 0,-3.825 q -1.53,-0.585 -3.195,-0.9 -1.62,-0.315 -3.33,-0.315 -3.24,0 -5.265,1.35 -2.025,1.35 -2.025,3.555 0,1.08 0.405,2.025 0.45,0.945 1.17,1.665 0.765,0.675 1.8,1.08 1.035,0.405 2.205,0.405 z" />
  <path
     inkscape:connector-curvature="0"
     id="path4258"
     style="font-style:normal;font-variant:normal;font-weight:normal;font-stretch:normal;font-size:45px;line-height:150%;font-family:Raleway;-inkscape-font-specification:Raleway;letter-spacing:0px;word-spacing:0px;fill:#e1e1e1;fill-opacity:1;stroke:none;stroke-width:1px;stroke-linecap:butt;stroke-linejoin:miter;stroke-opacity:1"
     d="m 836.81607,649.95001 -3.06,0 0,-13.095 q 0,-4.095 -1.305,-6.03 -1.305,-1.935 -3.87,-1.935 -1.35,0 -2.565,0.495 -1.17,0.495 -2.205,1.395 -0.99,0.9 -1.755,2.16 -0.765,1.215 -1.17,2.7 l 0,14.31 -3.06,0 0,-13.095 q 0,-4.185 -1.26,-6.075 -1.26,-1.89 -3.87,-1.89 -2.655,0 -4.725,1.845 -2.07,1.845 -2.97,4.86 l 0,14.355 -3.06,0 0,-23.445 2.79,0 0,5.31 q 1.44,-2.7 3.78,-4.185 2.34,-1.53 5.175,-1.53 2.97,0 4.725,1.665 1.8,1.665 2.205,4.365 3.285,-6.03 9.045,-6.03 1.98,0 3.33,0.72 1.395,0.72 2.205,2.07 0.855,1.305 1.215,3.195 0.405,1.845 0.405,4.14 l 0,13.725 z" />
  <path
     inkscape:connector-curvature="0"
     id="path4260"
     style="font-style:normal;font-variant:normal;font-weight:normal;font-stretch:normal;font-size:45px;line-height:150%;font-family:Raleway;-inkscape-font-specification:Raleway;letter-spacing:0px;word-spacing:0px;fill:#e1e1e1;fill-opacity:1;stroke:none;stroke-width:1px;stroke-linecap:butt;stroke-linejoin:miter;stroke-opacity:1"
     d="m 843.29636,649.95001 0,-23.445 3.06,0 0,23.445 -3.06,0 z m 0,-28.35 0,-4.5 3.06,0 0,4.5 -3.06,0 z" />
  <path
     inkscape:connector-curvature="0"
     id="path4262"
     style="font-style:normal;font-variant:normal;font-weight:normal;font-stretch:normal;font-size:45px;line-height:150%;font-family:Raleway;-inkscape-font-specification:Raleway;letter-spacing:0px;word-spacing:0px;fill:#e1e1e1;fill-opacity:1;stroke:none;stroke-width:1px;stroke-linecap:butt;stroke-linejoin:miter;stroke-opacity:1"
     d="m 863.23077,650.40001 q -2.565,0 -4.725,-0.945 -2.115,-0.99 -3.69,-2.655 -1.575,-1.71 -2.475,-3.915 -0.855,-2.205 -0.855,-4.725 0,-2.475 0.855,-4.635 0.9,-2.205 2.43,-3.825 1.575,-1.665 3.735,-2.61 2.16,-0.99 4.68,-0.99 2.565,0 4.68,0.99 2.16,0.945 3.69,2.61 1.53,1.665 2.385,3.825 0.855,2.16 0.855,4.59 0,0.36 0,0.72 0,0.36 -0.045,0.495 l -20.07,0 q 0.135,1.89 0.855,3.51 0.765,1.575 1.935,2.745 1.17,1.17 2.655,1.845 1.53,0.63 3.24,0.63 1.125,0 2.25,-0.315 1.125,-0.315 2.07,-0.855 0.945,-0.54 1.71,-1.305 0.765,-0.81 1.17,-1.755 l 2.655,0.72 q -0.54,1.305 -1.53,2.385 -0.99,1.035 -2.295,1.845 -1.305,0.765 -2.88,1.17 -1.575,0.45 -3.285,0.45 z m 8.64,-13.41 q -0.135,-1.89 -0.9,-3.42 -0.72,-1.575 -1.89,-2.7 -1.125,-1.125 -2.655,-1.755 -1.485,-0.63 -3.195,-0.63 -1.71,0 -3.24,0.63 -1.53,0.63 -2.7,1.755 -1.125,1.125 -1.845,2.7 -0.675,1.575 -0.81,3.42 l 17.235,0 z" />
  <path
     inkscape:connector-curvature="0"
     id="path4264"
     style="font-style:normal;font-variant:normal;font-weight:normal;font-stretch:normal;font-size:45px;line-height:150%;font-family:Raleway;-inkscape-font-specification:Raleway;letter-spacing:0px;word-spacing:0px;fill:#e1e1e1;fill-opacity:1;stroke:none;stroke-width:1px;stroke-linecap:butt;stroke-linejoin:miter;stroke-opacity:1"
     d="m 899.23103,649.95001 -3.06,0 0,-13.095 q 0,-4.185 -1.26,-6.075 -1.215,-1.89 -3.78,-1.89 -1.35,0 -2.7,0.495 -1.35,0.495 -2.52,1.395 -1.125,0.9 -2.025,2.16 -0.9,1.215 -1.305,2.655 l 0,14.355 -3.06,0 0,-23.445 2.79,0 0,5.31 q 1.44,-2.565 4.095,-4.14 2.7,-1.575 5.85,-1.575 1.935,0 3.285,0.72 1.35,0.72 2.16,2.025 0.81,1.305 1.17,3.195 0.36,1.89 0.36,4.185 l 0,13.725 z" />
  <path
     inkscape:connector-curvature="0"
     id="path4266"
     style="font-style:normal;font-variant:normal;font-weight:normal;font-stretch:normal;font-size:45px;line-height:150%;font-family:Raleway;-inkscape-font-specification:Raleway;letter-spacing:0px;word-spacing:0px;fill:#e1e1e1;fill-opacity:1;stroke:none;stroke-width:1px;stroke-linecap:butt;stroke-linejoin:miter;stroke-opacity:1"
     d="m 916.7814,648.82501 q -0.27,0.135 -0.81,0.36 -0.495,0.225 -1.17,0.45 -0.675,0.225 -1.53,0.405 -0.855,0.18 -1.8,0.18 -0.99,0 -1.89,-0.27 -0.9,-0.27 -1.575,-0.81 -0.675,-0.585 -1.08,-1.44 -0.405,-0.855 -0.405,-1.98 l 0,-16.785 -3.24,0 0,-2.43 3.24,0 0,-7.92 3.06,0 0,7.92 5.4,0 0,2.43 -5.4,0 0,15.93 q 0.09,1.305 0.9,1.935 0.855,0.585 1.935,0.585 1.305,0 2.295,-0.405 0.99,-0.45 1.26,-0.63 l 0.81,2.475 z" />
  <path
     inkscape:connector-curvature="0"
     id="path4268"
     style="font-style:normal;font-variant:normal;font-weight:normal;font-stretch:normal;font-size:45px;line-height:150%;font-family:Raleway;-inkscape-font-specification:Raleway;letter-spacing:0px;word-spacing:0px;fill:#e1e1e1;fill-opacity:1;stroke:none;stroke-width:1px;stroke-linecap:butt;stroke-linejoin:miter;stroke-opacity:1"
     d="m 930.01109,650.40001 q -2.565,0 -4.68,-0.945 -2.115,-0.99 -3.69,-2.655 -1.53,-1.665 -2.385,-3.87 -0.855,-2.205 -0.855,-4.635 0,-2.475 0.855,-4.68 0.9,-2.205 2.43,-3.87 1.575,-1.665 3.69,-2.655 2.115,-0.99 4.635,-0.99 2.52,0 4.635,0.99 2.16,0.99 3.69,2.655 1.575,1.665 2.43,3.87 0.9,2.205 0.9,4.68 0,2.43 -0.855,4.635 -0.855,2.205 -2.43,3.87 -1.53,1.665 -3.69,2.655 -2.115,0.945 -4.68,0.945 z m -8.505,-12.06 q 0,1.98 0.675,3.69 0.675,1.665 1.8,2.97 1.17,1.26 2.7,1.98 1.575,0.72 3.33,0.72 1.755,0 3.285,-0.72 1.575,-0.765 2.745,-2.025 1.17,-1.305 1.845,-3.015 0.675,-1.71 0.675,-3.69 0,-1.935 -0.675,-3.645 -0.675,-1.755 -1.845,-3.015 -1.17,-1.305 -2.745,-2.025 -1.53,-0.765 -3.285,-0.765 -1.755,0 -3.285,0.765 -1.53,0.72 -2.7,2.025 -1.17,1.305 -1.845,3.06 -0.675,1.71 -0.675,3.69 z" />
  <path
     inkscape:connector-curvature="0"
     id="path4270"
     style="font-style:normal;font-variant:normal;font-weight:normal;font-stretch:normal;font-size:45px;line-height:150%;font-family:Raleway;-inkscape-font-specification:Raleway;letter-spacing:0px;word-spacing:0px;fill:#e1e1e1;fill-opacity:1;stroke:none;stroke-width:1px;stroke-linecap:butt;stroke-linejoin:miter;stroke-opacity:1"
     d="m 945.76122,626.46001 0,-8.73 2.655,0 0,8.73 -2.655,0 z m 4.275,0 0,-8.73 2.655,0 0,8.73 -2.655,0 z" />
  <path
     inkscape:connector-curvature="0"
     id="path4272"
     style="font-style:normal;font-variant:normal;font-weight:normal;font-stretch:normal;font-size:45px;line-height:150%;font-family:Raleway;-inkscape-font-specification:Raleway;letter-spacing:0px;word-spacing:0px;fill:#e1e1e1;fill-opacity:1;stroke:none;stroke-width:1px;stroke-linecap:butt;stroke-linejoin:miter;stroke-opacity:1"
     d="m 955.16594,649.95001 0,-4.41 2.655,0 0,4.41 -2.655,0 z" />
  <path
     inkscape:connector-curvature="0"
     id="path4281"
     d="m 1297.0001,724.50001 0,-34"
     style="fill:none;fill-rule:evenodd;stroke:#616161;stroke-width:6;stroke-linecap:butt;stroke-linejoin:miter;stroke-miterlimit:4;stroke-dasharray:none;stroke-opacity:1" />
  <path
     inkscape:connector-curvature="0"
     id="path4283"
     d="m 1463.0001,724.50001 0,-34"
     style="fill:none;fill-rule:evenodd;stroke:#616161;stroke-width:6;stroke-linecap:butt;stroke-linejoin:miter;stroke-miterlimit:4;stroke-dasharray:none;stroke-opacity:1" />
  <path
     inkscape:connector-curvature="0"
     d="m 1400.0001,558.50002 20,0 -18,36 0,36 5,10 66,0 c 17.6574,0 32,14.3428 32,32 l 0,51.99999 -250,0 0,-51.99999 c 0,-17.6572 14.3426,-32 32,-32 l 66,0 5,-10 0,-36 -18,-36 20,0"
     style="opacity:1;fill:none;stroke:#616161;stroke-width:6;stroke-miterlimit:4;stroke-dasharray:none;stroke-opacity:1"
     id="path4285" />
  <path
     inkscape:connector-curvature="0"
     style="opacity:1;fill:#000000;fill-opacity:0;stroke:#616161;stroke-width:2;stroke-miterlimit:4;stroke-dasharray:none;stroke-opacity:1"
     d="m 1450.0001,586.50002 c 3.3107,0 6,2.6893 6,6 0,3.3107 -2.6893,6 -6,6 -3.3108,0 -6.0001,-2.6893 -6,-6"
     id="path4293" />
  <path
     inkscape:connector-curvature="0"
     id="path4297"
     d="m 1450.0001,564.50001 c 3.3107,0 6,2.6893 6,6.00001 0,3.3107 -2.6893,6 -6,6"
     style="opacity:1;fill:#000000;fill-opacity:0;stroke:#616161;stroke-width:2;stroke-miterlimit:4;stroke-dasharray:none;stroke-opacity:1" />
  <path
     inkscape:connector-curvature="0"
     style="opacity:1;fill:#000000;fill-opacity:0;stroke:#616161;stroke-width:2;stroke-miterlimit:4;stroke-dasharray:none;stroke-opacity:1"
     d="m 1310.0001,576.50002 c -3.3108,0 -6.0001,-2.6893 -6,-6 0,-3.31071 2.6892,-6.00001 6,-6.00001"
     id="path4299" />
  <path
     inkscape:connector-curvature="0"
     id="path4316"
     style="fill:none;fill-rule:evenodd;stroke:#616161;stroke-width:6;stroke-linecap:butt;stroke-linejoin:miter;stroke-miterlimit:4;stroke-dasharray:none;stroke-opacity:1"
     d="m 1314.0002,595.50002 c -6,0 -18.0001,-19.0677 -18,-29.00001 0,-9.9323 6,-19 12,-19 0,-39.72864 32.2708,-72 72,-72 39.729,0 71.9999,32.27136 71.9999,72 6,0 12,9.0677 12,19 0,9.93231 -12,29.00001 -18,29.00001 0,15 -35.9999,34.99999 -36,65 l -60,0 c 10e-5,-30.00001 -35.9999,-50 -35.9999,-65 z" />
  <path
     inkscape:connector-curvature="0"
     id="path4325"
     style="fill:none;fill-rule:evenodd;stroke:#616161;stroke-width:6;stroke-linecap:butt;stroke-linejoin:miter;stroke-miterlimit:4;stroke-dasharray:none;stroke-opacity:1"
     d="m 1357.0001,683.50001 c -3.8626,0 -7.0001,-3.1376 -7,-7 0,-3.86249 3.1374,-7 7,-7 l 46,0 c 3.8625,0 7,3.13751 7,7 0,3.8624 -3.1375,7 -7,7 z" />
  <path
     inkscape:connector-curvature="0"
     id="path4328"
     style="opacity:1;fill:none;stroke:#616161;stroke-width:6;stroke-miterlimit:4;stroke-dasharray:none;stroke-opacity:1"
     d="m 1380.0001,692.50001 20,0 -8,16 -24,0 -8,-16 20,0" />
  <path
     inkscape:connector-curvature="0"
     id="path7508"
     style="opacity:1;fill:#000000;fill-opacity:0;stroke:#616161;stroke-width:2;stroke-miterlimit:4;stroke-dasharray:none;stroke-opacity:1"
     d="m 1378.0001,576.50002 0,-21 c 9.9321,0 18,-8.0679 18,-18 0,-9.9321 -8.0679,-18 -18,-18 -9.9324,0 -18.0003,8.0679 -18,18" />
  <path
     inkscape:connector-curvature="0"
     d="m 1378.0001,591.50002 0,-6"
     style="opacity:1;fill:#000000;fill-opacity:0;stroke:#616161;stroke-width:2;stroke-miterlimit:4;stroke-dasharray:none;stroke-opacity:1"
     id="path7511" />
</svg>
