<?xml version="1.0" encoding="UTF-8" standalone="no"?>
<!-- Created with Inkscape (http://www.inkscape.org/) -->

<svg
   xmlns:dc="http://purl.org/dc/elements/1.1/"
   xmlns:cc="http://creativecommons.org/ns#"
   xmlns:rdf="http://www.w3.org/1999/02/22-rdf-syntax-ns#"
   xmlns:svg="http://www.w3.org/2000/svg"
   xmlns="http://www.w3.org/2000/svg"
   xmlns:sodipodi="http://sodipodi.sourceforge.net/DTD/sodipodi-0.dtd"
   xmlns:inkscape="http://www.inkscape.org/namespaces/inkscape"
   width="134.05556mm"
   height="338.66666mm"
   viewBox="0 0 475.00001 1200"
   id="svg4157"
   version="1.1"
   inkscape:version="0.91 r13725"
   sodipodi:docname="background.svg">
  <defs
     id="defs4159" />
  <sodipodi:namedview
     id="base"
     pagecolor="#ffffff"
     bordercolor="#666666"
     borderopacity="1.0"
     inkscape:pageopacity="0.0"
     inkscape:pageshadow="2"
     inkscape:zoom="0.35"
     inkscape:cx="-235"
     inkscape:cy="520"
     inkscape:document-units="px"
     inkscape:current-layer="layer1"
     showgrid="false"
     fit-margin-top="0"
     fit-margin-left="0"
     fit-margin-right="0"
     fit-margin-bottom="0"
     inkscape:window-width="1280"
     inkscape:window-height="756"
     inkscape:window-x="0"
     inkscape:window-y="44"
     inkscape:window-maximized="1" />
  <metadata
     id="metadata4162">
    <rdf:RDF>
      <cc:Work
         rdf:about="">
        <dc:format>image/svg+xml</dc:format>
        <dc:type
           rdf:resource="http://purl.org/dc/dcmitype/StillImage" />
        <dc:title></dc:title>
      </cc:Work>
    </rdf:RDF>
  </metadata>
  <g
     inkscape:label="Capa 1"
     inkscape:groupmode="layer"
     id="layer1"
     transform="translate(0,147.6378)">
    <path
       inkscape:connector-curvature="0"
       id="path4827"
       d="m 0,-147.6378 0,1200 440,0 c -11.0457,0 -20,-8.9543 -20,-20 0,-11.0457 8.9543,-20 20,-20 l 15,0 c 11.04569,0 20,-8.9542 20,-20 0,-11.0457 -8.95431,-20 -20,-20 l -70,0 c -11.04569,0 -20,-8.9543 -20,-20 0,-11.0457 8.95431,-20 20,-20 l 5,0 c 11.04569,0 20,-8.9543 20,-20 0,-11.0457 -8.95431,-20 -20,-20 l -20,0 c -11.04569,0 -20,-8.9543 -20,-20 0,-11.0457 8.95431,-20 20,-20 l 45,0 c 11.04569,0 20,-8.95428 20,-20 0,-11.0457 -8.95431,-20 -20,-20 l -35,0 c -11.04569,0 -20,-8.95431 -20,-20 0,-11.0457 8.95431,-20 20,-20 11.0457,0 20,-8.95428 20,-20 0,-11.0457 -8.9543,-20 -20,-20 l -30,0 c -11.0457,0 -20,-8.95431 -20,-20 0,-11.0457 8.9543,-20 20,-20 l 10,0 c 11.04569,0 20,-8.95428 20,-20 0,-11.0457 -8.95431,-20 -20,-20 l -110,0 c -11.04569,0 -20,-8.95431 -20,-20 0,-11.04569 8.95431,-20 20,-20 l 10,0 c 11.04569,0 20,-8.95428 20,-20 0,-11.04569 -8.95431,-20 -20,-20 -11.04569,0 -20,-8.95431 -20,-20 0,-11.04569 8.95431,-20 20,-20 l 30,0 c 11.04569,0 20,-8.95429 20,-20 0,-11.0457 -8.95431,-20 -20,-20 l -45,0 c -11.0457,0 -20,-8.95431 -20,-20 0,-11.04569 8.9543,-20 20,-20 l 40,0 c 11.04569,0 20,-8.95428 20,-20 0,-11.0457 -8.95431,-20 -20,-20 l -100,0 c -11.04569,0 -20,-8.95431 -20,-20 0,-11.04569 8.95431,-20 20,-20 l 5,0 c 11.04569,0 20,-8.95428 20,-20 0,-11.0457 -8.95431,-20 -20,-20 l -20,0 c -11.04569,0 -20,-8.9543 -20,-20 0,-11.04569 8.95431,-20 20,-20 l 75,0 c 11.04569,0 20,-8.95428 20,-20 0,-11.0457 -8.95431,-20 -20,-20 l -35,0 c -11.04569,0 -20,-8.95431 -20,-20 0,-11.0457 8.95431,-20 20,-20 11.0457,0 20,-8.95428 20,-20 0,-11.0457 -8.9543,-20 -20,-20 l -30,0 c -11.0457,0 -20,-8.95431 -20,-20 0,-11.0457 8.9543,-20 20,-20 l 50,0 c 11.04569,0 20,-8.95428 20,-20 0,-11.0457 -8.95431,-19.999995 -20,-19.999995 l -30,0 c -11.04569,0 -20,-8.95431 -20,-20 0,-11.04569 8.95431,-20 20,-20 l 40,0 c 11.04569,0 20,-8.95428 20,-20 0,-11.04569 -8.95431,-20 -20,-20 -11.04569,0 -20,-8.9543103 -20,-20.0000003 0,-11.0456897 8.95431,-19.9999997 20,-19.9999997 l 30,0 c 11.04569,0 20,-8.95429 20,-20 0,-11.0457 -8.95431,-20 -20,-20 l -15,0 c -11.0457,0 -20,-8.95431 -20,-20 0,-11.04569 8.9543,-20.000005 20,-20.000005 l 5,0 c 11.04569,0 20,-8.9543 20,-20 0,-11.0457 -8.95431,-20 -20,-20 z"
       style="color:#000000;display:inline;overflow:visible;visibility:visible;opacity:1;fill:#aa243b;fill-opacity:1;fill-rule:evenodd;stroke:none;stroke-width:9;stroke-linecap:butt;stroke-linejoin:round;stroke-miterlimit:4;stroke-dasharray:none;stroke-dashoffset:0;stroke-opacity:1;marker:none;enable-background:accumulate" />
    <path
       inkscape:connector-curvature="0"
       id="rect4159"
       d="m 60.000014,752.36215 0,111.21955 58.536586,-29.26833 40.97561,20.48783 81.95122,-40.97563 0,58.53663 35.12195,17.5609 23.41464,-11.7073 0,-125.85365 z m 146.341466,87.80488 -5.85366,2.92683 0,55.60974 -35.12195,17.561 0,-55.6098 -5.85366,2.9269 0,55.6097 -35.12195,17.561 0,-58.5366 -40.975612,-20.4878 -23.414634,11.7073 0,122.9269 240.000006,0 0,-108.2927 -58.53659,29.2683 -35.12195,-17.561 z"
       style="color:#000000;display:inline;overflow:visible;visibility:visible;opacity:1;fill:#681e2d;fill-opacity:1;fill-rule:evenodd;stroke:none;stroke-width:4;stroke-linecap:butt;stroke-linejoin:miter;stroke-miterlimit:4;stroke-dasharray:none;stroke-dashoffset:0;stroke-opacity:1;marker:none;enable-background:accumulate" />
  </g>
</svg>
