<?xml version="1.0" encoding="UTF-8" standalone="no"?>
<!-- Created with Inkscape (http://www.inkscape.org/) -->

<svg
   xmlns:dc="http://purl.org/dc/elements/1.1/"
   xmlns:cc="http://creativecommons.org/ns#"
   xmlns:rdf="http://www.w3.org/1999/02/22-rdf-syntax-ns#"
   xmlns:svg="http://www.w3.org/2000/svg"
   xmlns="http://www.w3.org/2000/svg"
   xmlns:sodipodi="http://sodipodi.sourceforge.net/DTD/sodipodi-0.dtd"
   xmlns:inkscape="http://www.inkscape.org/namespaces/inkscape"
   width="112.88889mm"
   height="101.60001mm"
   viewBox="0 0 399.99999 360.00002"
   id="svg4401"
   version="1.1"
   inkscape:version="0.91 r13725"
   sodipodi:docname="bg-item-2.svg">
  <defs
     id="defs4403" />
  <sodipodi:namedview
     id="base"
     pagecolor="#ffffff"
     bordercolor="#666666"
     borderopacity="1.0"
     inkscape:pageopacity="0.0"
     inkscape:pageshadow="2"
     inkscape:zoom="0.49497475"
     inkscape:cx="-6.2325551"
     inkscape:cy="163.82375"
     inkscape:document-units="px"
     inkscape:current-layer="layer1"
     showgrid="false"
     fit-margin-top="0"
     fit-margin-left="0"
     fit-margin-right="0"
     fit-margin-bottom="0"
     inkscape:window-width="1280"
     inkscape:window-height="756"
     inkscape:window-x="0"
     inkscape:window-y="44"
     inkscape:window-maximized="1" />
  <metadata
     id="metadata4406">
    <rdf:RDF>
      <cc:Work
         rdf:about="">
        <dc:format>image/svg+xml</dc:format>
        <dc:type
           rdf:resource="http://purl.org/dc/dcmitype/StillImage" />
        <dc:title></dc:title>
      </cc:Work>
    </rdf:RDF>
  </metadata>
  <g
     inkscape:label="Capa 1"
     inkscape:groupmode="layer"
     id="layer1"
     transform="translate(-1200,-272.36219)">
    <path
       inkscape:connector-curvature="0"
       id="path5505"
       d="M 1560.0001,452.36222 A 179.99999,179.99999 0 0 1 1380,632.36221 179.99999,179.99999 0 0 1 1200,452.36222 179.99999,179.99999 0 0 1 1380,272.36221 179.99999,179.99999 0 0 1 1560.0001,452.36222 Z"
       style="color:#000000;display:inline;overflow:visible;visibility:visible;opacity:1;fill:#e1e1e1;fill-opacity:1;fill-rule:evenodd;stroke:none;stroke-width:2.00500011;stroke-linecap:butt;stroke-linejoin:round;stroke-miterlimit:4;stroke-dasharray:none;stroke-dashoffset:0;stroke-opacity:1;marker:none;enable-background:accumulate" />
    <path
       inkscape:connector-curvature="0"
       id="rect5679"
       d="m 1380,272.36219 220,0 0,360.00002 -220,0 z"
       style="color:#000000;display:inline;overflow:visible;visibility:visible;opacity:1;fill:#e1e1e1;fill-opacity:1;fill-rule:evenodd;stroke:none;stroke-width:2.00500011;stroke-linecap:butt;stroke-linejoin:round;stroke-miterlimit:4;stroke-dasharray:none;stroke-dashoffset:0;stroke-opacity:1;marker:none;enable-background:accumulate" />
    <g
       transform="translate(482.93323,-147.6378)"
       id="g4200">
      <path
         inkscape:connector-curvature="0"
         style="fill:none;fill-rule:evenodd;stroke:#616161;stroke-width:6;stroke-linecap:butt;stroke-linejoin:miter;stroke-miterlimit:4;stroke-dasharray:none;stroke-opacity:1"
         d="m 814.06684,713.77211 0,-34"
         id="path4457-8" />
      <path
         inkscape:connector-curvature="0"
         style="fill:none;fill-rule:evenodd;stroke:#616161;stroke-width:6;stroke-linecap:butt;stroke-linejoin:miter;stroke-miterlimit:4;stroke-dasharray:none;stroke-opacity:1"
         d="m 980.0668,713.77211 0,-34"
         id="path4459-2" />
      <path
         inkscape:connector-curvature="0"
         id="path4461-3"
         style="opacity:1;fill:none;stroke:#616161;stroke-width:6;stroke-miterlimit:4;stroke-dasharray:none;stroke-opacity:1"
         d="m 899.06684,576.77211 c 23.99996,0 29.99996,7.1711 29.99996,16 l 0,36 5,10 56,0 c 17.6574,0 32,14.3428 32,32 l 0,43 -249.99996,0 0,-43 c 0,-17.6572 14.3426,-32 32,-32 l 56,0 5,-10 0,-36 c 0,-8.8289 6,-16 30,-16" />
      <path
         inkscape:connector-curvature="0"
         id="path4465-2"
         d="m 897.06684,635.77211 0,-35"
         style="fill:none;fill-rule:evenodd;stroke:#616161;stroke-width:2;stroke-linecap:butt;stroke-linejoin:miter;stroke-miterlimit:4;stroke-dasharray:none;stroke-opacity:1" />
      <path
         inkscape:connector-curvature="0"
         style="opacity:1;fill:none;stroke:#616161;stroke-width:2;stroke-miterlimit:4;stroke-dasharray:none;stroke-opacity:1"
         d="m 915.06684,595.77211 c 0,0 -8,5 -18,5 -10,0 -18,-5 -18,-5"
         id="path4467-5" />
      <path
         inkscape:connector-curvature="0"
         id="path4473-9"
         style="opacity:1;fill:none;stroke:#616161;stroke-width:6;stroke-miterlimit:4;stroke-dasharray:none;stroke-opacity:1"
         d="m 897.06684,463.7721 c 39.72907,0 71.99996,32.27136 71.99996,72 6,0 12,9.0677 12,19 0,9.93231 -12,29.00001 -18,29.00001 0,15 -36,52 -65.99996,52 -30,0 -66,-37 -66,-52 -6,0 -18.0001,-19.0677 -18,-29.00001 0,-9.9323 6,-19 12,-19 0,-39.72864 32.2708,-72 72,-72 z" />
      <path
         inkscape:connector-curvature="0"
         id="path4475-0"
         d="m 967.06684,574.77211 c 3.3107,0 6,2.6893 6,6 0,3.3107 -2.6893,6 -6,6 -3.3108,0 -6.0001,-2.6893 -6,-6"
         style="opacity:1;fill:#000000;fill-opacity:0;stroke:#616161;stroke-width:2;stroke-miterlimit:4;stroke-dasharray:none;stroke-opacity:1" />
      <path
         inkscape:connector-curvature="0"
         style="opacity:1;fill:none;fill-opacity:1;stroke:#616161;stroke-width:6;stroke-miterlimit:4;stroke-dasharray:none;stroke-opacity:1"
         d="m 939.0668,638.77211 c 1e-5,17.657 -24.34296,22 -41.99996,22 -17.6571,0 -42.0001,-4.343 -42,-22"
         id="path4524-7" />
      <path
         inkscape:connector-curvature="0"
         style="opacity:1;fill:#000000;fill-opacity:0;stroke:#616161;stroke-width:2;stroke-miterlimit:4;stroke-dasharray:none;stroke-opacity:1"
         d="m 967.06684,552.7721 c 3.3107,0 6,2.6893 6,6.00001 0,3.3107 -2.6893,6 -6,6"
         id="path4222-5" />
      <path
         inkscape:connector-curvature="0"
         id="path4224-6"
         d="m 827.06684,564.77211 c -3.3108,0 -6.0001,-2.6893 -6,-6 0,-3.31071 2.6892,-6.00001 6,-6.00001"
         style="opacity:1;fill:#000000;fill-opacity:0;stroke:#616161;stroke-width:2;stroke-miterlimit:4;stroke-dasharray:none;stroke-opacity:1" />
      <path
         inkscape:connector-curvature="0"
         id="path4212-6"
         d="m 887.06684,521.7721 -36,0"
         style="opacity:1;fill:none;stroke:#616161;stroke-width:6;stroke-miterlimit:4;stroke-dasharray:none;stroke-opacity:1" />
      <path
         inkscape:connector-curvature="0"
         style="opacity:1;fill:none;stroke:#616161;stroke-width:6;stroke-miterlimit:4;stroke-dasharray:none;stroke-opacity:1"
         d="m 943.06684,521.7721 -36,0"
         id="path4214-1" />
      <path
         inkscape:connector-curvature="0"
         style="opacity:1;fill:none;fill-opacity:1;stroke:#616161;stroke-width:2;stroke-miterlimit:4;stroke-dasharray:none;stroke-opacity:1"
         d="m 909.06684,547.7721 c 0,-8.82854 7.1712,-16 16,-16 8.8285,0 16,7.17146 16,16 0,8.82851 -7.1715,16.00001 -16,16.00001"
         id="path4220-9" />
      <path
         inkscape:connector-curvature="0"
         id="path4223-6"
         d="m 869.06684,563.77211 c -8.8288,0 -16.0003,-7.1715 -16,-16.00001 0,-8.82854 7.1712,-16 16,-16 8.8285,0 16,7.17146 16,16"
         style="opacity:1;fill:none;fill-opacity:1;stroke:#616161;stroke-width:2;stroke-miterlimit:4;stroke-dasharray:none;stroke-opacity:1" />
      <path
         inkscape:connector-curvature="0"
         id="path4229-0"
         style="opacity:1;fill:#2f2e2b;fill-opacity:1;stroke:#616161;stroke-width:6;stroke-miterlimit:4;stroke-dasharray:none;stroke-opacity:1"
         d="m 874.06684,543.7721 c 2.2071,0 4,1.79285 4,4 0,2.2071 -1.7929,4 -4,4 -2.2072,0 -4.0001,-1.7929 -4,-4 0,-2.20715 1.7928,-4 4,-4 z" />
      <path
         inkscape:connector-curvature="0"
         id="path4231-5"
         style="opacity:1;fill:#2f2e2b;fill-opacity:1;stroke:#616161;stroke-width:6;stroke-miterlimit:4;stroke-dasharray:none;stroke-opacity:1"
         d="m 920.0668,551.7721 c -2.20716,0 -4.00006,-1.7929 -3.99996,-4 0,-2.20715 1.7928,-4 3.99996,-4 2.20715,0 4,1.79285 4,4 1e-5,2.2071 -1.79285,4 -4,4 z" />
    </g>
  </g>
</svg>
