<?xml version="1.0" encoding="UTF-8" standalone="no"?>
<!-- Created with Inkscape (http://www.inkscape.org/) -->

<svg
   xmlns:dc="http://purl.org/dc/elements/1.1/"
   xmlns:cc="http://creativecommons.org/ns#"
   xmlns:rdf="http://www.w3.org/1999/02/22-rdf-syntax-ns#"
   xmlns:svg="http://www.w3.org/2000/svg"
   xmlns="http://www.w3.org/2000/svg"
   xmlns:sodipodi="http://sodipodi.sourceforge.net/DTD/sodipodi-0.dtd"
   xmlns:inkscape="http://www.inkscape.org/namespaces/inkscape"
   width="112.88889mm"
   height="101.60001mm"
   viewBox="0 0 399.99999 360.00002"
   id="svg4250"
   version="1.1"
   inkscape:version="0.91 r13725"
   sodipodi:docname="bg-item-4.svg">
  <defs
     id="defs4252" />
  <sodipodi:namedview
     id="base"
     pagecolor="#ffffff"
     bordercolor="#666666"
     borderopacity="1.0"
     inkscape:pageopacity="0.0"
     inkscape:pageshadow="2"
     inkscape:zoom="1"
     inkscape:cx="200.00001"
     inkscape:cy="180.00002"
     inkscape:document-units="px"
     inkscape:current-layer="layer1"
     showgrid="false"
     fit-margin-top="0"
     fit-margin-left="0"
     fit-margin-right="0"
     fit-margin-bottom="0"
     inkscape:window-width="1280"
     inkscape:window-height="756"
     inkscape:window-x="0"
     inkscape:window-y="44"
     inkscape:window-maximized="1" />
  <metadata
     id="metadata4255">
    <rdf:RDF>
      <cc:Work
         rdf:about="">
        <dc:format>image/svg+xml</dc:format>
        <dc:type
           rdf:resource="http://purl.org/dc/dcmitype/StillImage" />
        <dc:title></dc:title>
      </cc:Work>
    </rdf:RDF>
  </metadata>
  <g
     inkscape:label="Capa 1"
     inkscape:groupmode="layer"
     id="layer1"
     transform="translate(-1200,-272.36219)">
    <path
       inkscape:connector-curvature="0"
       id="path5505"
       d="M 1560.0001,452.36222 A 179.99999,179.99999 0 0 1 1380,632.36221 179.99999,179.99999 0 0 1 1200,452.36222 179.99999,179.99999 0 0 1 1380,272.36221 179.99999,179.99999 0 0 1 1560.0001,452.36222 Z"
       style="color:#000000;display:inline;overflow:visible;visibility:visible;opacity:1;fill:#e1e1e1;fill-opacity:1;fill-rule:evenodd;stroke:none;stroke-width:2.00500011;stroke-linecap:butt;stroke-linejoin:round;stroke-miterlimit:4;stroke-dasharray:none;stroke-dashoffset:0;stroke-opacity:1;marker:none;enable-background:accumulate" />
    <path
       inkscape:connector-curvature="0"
       id="rect5679"
       d="m 1380,272.36219 220,0 0,360.00002 -220,0 z"
       style="color:#000000;display:inline;overflow:visible;visibility:visible;opacity:1;fill:#e1e1e1;fill-opacity:1;fill-rule:evenodd;stroke:none;stroke-width:2.00500011;stroke-linecap:butt;stroke-linejoin:round;stroke-miterlimit:4;stroke-dasharray:none;stroke-dashoffset:0;stroke-opacity:1;marker:none;enable-background:accumulate" />
    <path
       inkscape:connector-curvature="0"
       d="m 1380.0001,352.36221 c 55.1799,0 100,44.82198 100,100 0,55.17799 -44.8201,100 -100,100 -55.18,0 -100.0001,-44.82201 -100,-100 0,-55.17802 44.82,-100 100,-100 z"
       style="opacity:1;fill:none;fill-opacity:1;stroke:#616161;stroke-width:6;stroke-miterlimit:4;stroke-dasharray:none;stroke-opacity:1"
       id="path4229" />
    <path
       inkscape:connector-curvature="0"
       id="path4222"
       d="m 1486.0001,446.3622 c 3.3107,0 6,2.6893 6,6.00001 0,3.3107 -2.6893,6 -6,6"
       style="opacity:1;fill:#000000;fill-opacity:0;stroke:#616161;stroke-width:2;stroke-miterlimit:4;stroke-dasharray:none;stroke-opacity:1" />
    <path
       inkscape:connector-curvature="0"
       style="opacity:1;fill:#000000;fill-opacity:0;stroke:#616161;stroke-width:2;stroke-miterlimit:4;stroke-dasharray:none;stroke-opacity:1"
       d="m 1274.0001,458.36221 c -3.3108,0 -6.0001,-2.6893 -6,-6 0,-3.31071 2.6892,-6.00001 6,-6.00001"
       id="path4224" />
    <path
       inkscape:connector-curvature="0"
       style="opacity:1;fill:none;stroke:#616161;stroke-width:6;stroke-miterlimit:4;stroke-dasharray:none;stroke-opacity:1"
       d="m 1398.0001,535.3622 -36,0"
       id="path4212" />
    <path
       inkscape:connector-curvature="0"
       id="path3814"
       style="opacity:1;fill:none;fill-opacity:1;stroke:#616161;stroke-width:2;stroke-miterlimit:4;stroke-dasharray:none;stroke-opacity:1"
       d="m 1380.0001,412.36221 c 22.0719,0 40,17.92878 40,40 0,22.07119 -17.9281,40 -40,40 -22.072,0 -40.0001,-17.92881 -40,-40 0,-22.07122 17.928,-40 40,-40 z" />
    <path
       inkscape:connector-curvature="0"
       id="path4616"
       style="opacity:1;fill:none;fill-opacity:1;stroke:#616161;stroke-width:2;stroke-miterlimit:4;stroke-dasharray:none;stroke-opacity:1"
       d="m 1380.0001,346.36221 c 58.4907,0 106,47.5113 106,106 0,58.48867 -47.5093,106 -106,106 -58.4908,0 -106.0001,-47.51133 -106,-106 0,-58.4887 47.5092,-106 106,-106 z" />
    <path
       inkscape:connector-curvature="0"
       style="opacity:1;fill:#000000;fill-opacity:0;stroke:#616161;stroke-width:2;stroke-miterlimit:4;stroke-dasharray:none;stroke-opacity:1"
       d="m 1374.0001,346.3622 c 0,-3.3107 2.6893,-6 6,-6 3.3107,0 6,2.6893 6,6"
       id="path4618" />
    <path
       inkscape:connector-curvature="0"
       id="path4620"
       d="m 1386.0001,558.3622 c 0,3.3108 -2.6893,6.0001 -6,6 -3.3107,0 -6,-2.6892 -6,-6"
       style="opacity:1;fill:#000000;fill-opacity:0;stroke:#616161;stroke-width:2;stroke-miterlimit:4;stroke-dasharray:none;stroke-opacity:1" />
    <path
       inkscape:connector-curvature="0"
       id="path4622"
       d="m 1300.8041,381.65152 c -2.341,-2.34102 -2.341,-6.14426 0,-8.48528 2.3411,-2.34102 6.1443,-2.34102 8.4853,0"
       style="opacity:1;fill:#000000;fill-opacity:0;stroke:#616161;stroke-width:2;stroke-miterlimit:4;stroke-dasharray:none;stroke-opacity:1" />
    <path
       inkscape:connector-curvature="0"
       style="opacity:1;fill:#000000;fill-opacity:0;stroke:#616161;stroke-width:2;stroke-miterlimit:4;stroke-dasharray:none;stroke-opacity:1"
       d="m 1459.1961,523.07288 c 2.341,2.34109 2.341,6.14433 0,8.48528 -2.3411,2.34102 -6.1442,2.34109 -8.4853,0"
       id="path4624" />
    <path
       inkscape:connector-curvature="0"
       style="opacity:1;fill:#000000;fill-opacity:0;stroke:#616161;stroke-width:2;stroke-miterlimit:4;stroke-dasharray:none;stroke-opacity:1"
       d="m 1309.2894,531.55821 c -2.341,2.341 -6.1442,2.341 -8.4853,0 -2.341,-2.3411 -2.341,-6.1443 0,-8.4853"
       id="path4626" />
    <path
       inkscape:connector-curvature="0"
       id="path4628"
       d="m 1450.7108,373.16621 c 2.3411,-2.341 6.1443,-2.341 8.4853,0 2.341,2.3411 2.341,6.1442 0,8.4853"
       style="opacity:1;fill:#000000;fill-opacity:0;stroke:#616161;stroke-width:2;stroke-miterlimit:4;stroke-dasharray:none;stroke-opacity:1" />
  </g>
</svg>
