<?xml version="1.0" encoding="UTF-8" standalone="no"?>
<svg
   xmlns:dc="http://purl.org/dc/elements/1.1/"
   xmlns:cc="http://creativecommons.org/ns#"
   xmlns:rdf="http://www.w3.org/1999/02/22-rdf-syntax-ns#"
   xmlns:svg="http://www.w3.org/2000/svg"
   xmlns="http://www.w3.org/2000/svg"
   version="1.1"
   id="svg10229"
   viewBox="0 0 399.99999 360.00002"
   height="101.60001mm"
   width="112.88889mm">
  <defs
     id="defs10231" />
  <metadata
     id="metadata10234">
    <rdf:RDF>
      <cc:Work
         rdf:about="">
        <dc:format>image/svg+xml</dc:format>
        <dc:type
           rdf:resource="http://purl.org/dc/dcmitype/StillImage" />
        <dc:title></dc:title>
      </cc:Work>
    </rdf:RDF>
  </metadata>
  <g
     transform="translate(-1200,-272.36219)"
     id="layer1">
    <path
       id="path5505"
       d="M 1560.0001,452.36222 A 179.99999,179.99999 0 0 1 1380,632.36221 179.99999,179.99999 0 0 1 1200,452.36222 179.99999,179.99999 0 0 1 1380,272.36221 179.99999,179.99999 0 0 1 1560.0001,452.36222 Z"
       style="color:#000000;display:inline;overflow:visible;visibility:visible;opacity:1;fill:#e1e1e1;fill-opacity:1;fill-rule:evenodd;stroke:none;stroke-width:2.00500011;stroke-linecap:butt;stroke-linejoin:round;stroke-miterlimit:4;stroke-dasharray:none;stroke-dashoffset:0;stroke-opacity:1;marker:none;enable-background:accumulate" />
    <path
       id="rect5679"
       d="m 1380,272.36219 220,0 0,360.00002 -220,0 z"
       style="color:#000000;display:inline;overflow:visible;visibility:visible;opacity:1;fill:#e1e1e1;fill-opacity:1;fill-rule:evenodd;stroke:none;stroke-width:2.00500011;stroke-linecap:butt;stroke-linejoin:round;stroke-miterlimit:4;stroke-dasharray:none;stroke-dashoffset:0;stroke-opacity:1;marker:none;enable-background:accumulate" />
    <g
       transform="translate(177.9186,240.04291)"
       id="g7442">
      <path
         id="path4281"
         d="m 1119.0815,336.8193 0,-34"
         style="fill:none;fill-rule:evenodd;stroke:#616161;stroke-width:6;stroke-linecap:butt;stroke-linejoin:miter;stroke-miterlimit:4;stroke-dasharray:none;stroke-opacity:1" />
      <path
         id="path4283"
         d="m 1285.0815,336.8193 0,-34"
         style="fill:none;fill-rule:evenodd;stroke:#616161;stroke-width:6;stroke-linecap:butt;stroke-linejoin:miter;stroke-miterlimit:4;stroke-dasharray:none;stroke-opacity:1" />
      <path
         d="m 1222.0815,170.81931 20,0 -18,36 0,36 5,10 66,0 c 17.6574,0 32,14.3428 32,32 l 0,51.99999 -250,0 0,-51.99999 c 0,-17.6572 14.3426,-32 32,-32 l 66,0 5,-10 0,-36 -18,-36 20,0"
         style="opacity:1;fill:none;stroke:#616161;stroke-width:6;stroke-miterlimit:4;stroke-dasharray:none;stroke-opacity:1"
         id="path4285" />
      <path
         style="opacity:1;fill:#000000;fill-opacity:0;stroke:#616161;stroke-width:2;stroke-miterlimit:4;stroke-dasharray:none;stroke-opacity:1"
         d="m 1272.0815,198.81931 c 3.3107,0 6,2.6893 6,6 0,3.3107 -2.6893,6 -6,6 -3.3108,0 -6.0001,-2.6893 -6,-6"
         id="path4293" />
      <path
         id="path4297"
         d="m 1272.0815,176.8193 c 3.3107,0 6,2.6893 6,6.00001 0,3.3107 -2.6893,6 -6,6"
         style="opacity:1;fill:#000000;fill-opacity:0;stroke:#616161;stroke-width:2;stroke-miterlimit:4;stroke-dasharray:none;stroke-opacity:1" />
      <path
         style="opacity:1;fill:#000000;fill-opacity:0;stroke:#616161;stroke-width:2;stroke-miterlimit:4;stroke-dasharray:none;stroke-opacity:1"
         d="m 1132.0815,188.81931 c -3.3108,0 -6.0001,-2.6893 -6,-6 0,-3.31071 2.6892,-6.00001 6,-6.00001"
         id="path4299" />
      <path
         id="path4314"
         style="opacity:1;fill:none;stroke:#616161;stroke-width:2;stroke-miterlimit:4;stroke-dasharray:none;stroke-opacity:1"
         d="m 1222.0815,170.8193 -4,-4 -8,8 -8,-8 -8,8 -8,-8 -4,4.00001" />
      <path
         id="path4316"
         style="fill:none;fill-rule:evenodd;stroke:#616161;stroke-width:6;stroke-linecap:butt;stroke-linejoin:miter;stroke-miterlimit:4;stroke-dasharray:none;stroke-opacity:1"
         d="m 1136.0816,207.81931 c -6,0 -18.0001,-19.0677 -18,-29.00001 0,-9.9323 6,-19 12,-19 0,-39.72864 32.2708,-72 72,-72 39.729,0 71.9999,32.27136 71.9999,72 6,0 12,9.0677 12,19 0,9.93231 -12,29.00001 -18,29.00001 0,15 -35.9999,34.99999 -36,65 l -60,0 c 10e-5,-30.00001 -35.9999,-50 -35.9999,-65 z" />
      <path
         id="path4325"
         style="fill:none;fill-rule:evenodd;stroke:#616161;stroke-width:6;stroke-linecap:butt;stroke-linejoin:miter;stroke-miterlimit:4;stroke-dasharray:none;stroke-opacity:1"
         d="m 1179.0815,295.8193 c -3.8626,0 -7.0001,-3.1376 -7,-7 0,-3.86249 3.1374,-7 7,-7 l 46,0 c 3.8625,0 7,3.13751 7,7 0,3.8624 -3.1375,7 -7,7 z" />
      <path
         id="path4328"
         style="opacity:1;fill:none;stroke:#616161;stroke-width:6;stroke-miterlimit:4;stroke-dasharray:none;stroke-opacity:1"
         d="m 1202.0815,304.8193 20,0 -8,16 -24,0 -8,-16 20,0" />
      <path
         d="m 1322.0815,170.8193 -20,1e-5"
         style="opacity:1;fill:none;stroke:#616161;stroke-width:2;stroke-miterlimit:4;stroke-dasharray:none;stroke-opacity:1"
         id="path4333" />
      <path
         id="path4335"
         style="opacity:1;fill:none;stroke:#616161;stroke-width:2;stroke-miterlimit:4;stroke-dasharray:none;stroke-opacity:1"
         d="m 1102.0815,170.8193 -20,1e-5" />
      <path
         id="path4337"
         style="opacity:1;fill:none;stroke:#616161;stroke-width:2;stroke-miterlimit:4;stroke-dasharray:none;stroke-opacity:1"
         d="m 1312.0815,110.8193 -20,10.00001" />
      <path
         d="m 1112.0815,120.8193 -20,-9.99999"
         style="opacity:1;fill:none;stroke:#616161;stroke-width:2;stroke-miterlimit:4;stroke-dasharray:none;stroke-opacity:1"
         id="path4339" />
      <path
         id="path4341"
         style="opacity:1;fill:none;stroke:#616161;stroke-width:2;stroke-miterlimit:4;stroke-dasharray:none;stroke-opacity:1"
         d="m 1312.0815,230.8193 -20,-9.99999" />
      <path
         d="m 1112.0815,220.8193 -20,10.00001"
         style="opacity:1;fill:none;stroke:#616161;stroke-width:2;stroke-miterlimit:4;stroke-dasharray:none;stroke-opacity:1"
         id="path4343" />
    </g>
  </g>
</svg>
