<?xml version="1.0" encoding="UTF-8" standalone="no"?>
<svg
   xmlns:dc="http://purl.org/dc/elements/1.1/"
   xmlns:cc="http://creativecommons.org/ns#"
   xmlns:rdf="http://www.w3.org/1999/02/22-rdf-syntax-ns#"
   xmlns:svg="http://www.w3.org/2000/svg"
   xmlns="http://www.w3.org/2000/svg"
   version="1.1"
   id="svg8509"
   viewBox="0 0 399.99999 360.00002"
   height="101.60001mm"
   width="112.88889mm">
  <defs
     id="defs8511" />
  <metadata
     id="metadata8514">
    <rdf:RDF>
      <cc:Work
         rdf:about="">
        <dc:format>image/svg+xml</dc:format>
        <dc:type
           rdf:resource="http://purl.org/dc/dcmitype/StillImage" />
        <dc:title></dc:title>
      </cc:Work>
    </rdf:RDF>
  </metadata>
  <g
     transform="translate(-1200,-272.36219)"
     id="layer1">
    <path
       style="color:#000000;display:inline;overflow:visible;visibility:visible;opacity:1;fill:#e1e1e1;fill-opacity:1;fill-rule:evenodd;stroke:none;stroke-width:2.00500011;stroke-linecap:butt;stroke-linejoin:round;stroke-miterlimit:4;stroke-dasharray:none;stroke-dashoffset:0;stroke-opacity:1;marker:none;enable-background:accumulate"
       d="M 1560.0001,452.36222 A 179.99999,179.99999 0 0 1 1380,632.36221 179.99999,179.99999 0 0 1 1200,452.36222 179.99999,179.99999 0 0 1 1380,272.36221 179.99999,179.99999 0 0 1 1560.0001,452.36222 Z"
       id="path5505" />
    <path
       style="color:#000000;display:inline;overflow:visible;visibility:visible;opacity:1;fill:#e1e1e1;fill-opacity:1;fill-rule:evenodd;stroke:none;stroke-width:2.00500011;stroke-linecap:butt;stroke-linejoin:round;stroke-miterlimit:4;stroke-dasharray:none;stroke-dashoffset:0;stroke-opacity:1;marker:none;enable-background:accumulate"
       d="m 1380,272.36219 220,0 0,360.00002 -220,0 z"
       id="rect5679" />
    <path
       style="opacity:1;fill:none;stroke:#616161;stroke-width:2;stroke-miterlimit:4;stroke-dasharray:none;stroke-opacity:1"
       d="m 1505.0001,479.3622 -250,0"
       id="path4213" />
    <path
       id="path4251"
       style="opacity:1;fill:none;stroke:#616161;stroke-width:6;stroke-miterlimit:4;stroke-dasharray:none;stroke-opacity:1"
       d="m 1271.0001,489.36221 0,87.99999 18,0 0,-58 182,0 0,58 18,0 0,-87.99999" />
    <path
       d="m 1301.0001,519.36221 0,39.99999 18,0 0,-39.99999"
       style="opacity:1;fill:none;stroke:#616161;stroke-width:6;stroke-miterlimit:4;stroke-dasharray:none;stroke-opacity:1"
       id="path4254" />
    <path
       id="path4256"
       style="opacity:1;fill:none;stroke:#616161;stroke-width:6;stroke-miterlimit:4;stroke-dasharray:none;stroke-opacity:1"
       d="m 1441.0001,519.36221 0,39.99999 18,0 0,-39.99999" />
    <path
       d="m 1305.0001,429.36221 0,-102 150,0 0,102 z"
       style="opacity:1;fill:none;stroke:#616161;stroke-width:6;stroke-miterlimit:4;stroke-dasharray:none;stroke-opacity:1"
       id="path4259" />
    <path
       d="m 1315.0001,409.36221 0,-72 130,0 0,72 z"
       style="opacity:1;fill:none;stroke:#616161;stroke-width:2;stroke-miterlimit:4;stroke-dasharray:none;stroke-opacity:1"
       id="path4261" />
    <path
       id="path4265"
       style="opacity:1;fill:none;stroke:#616161;stroke-width:2;stroke-miterlimit:4;stroke-dasharray:none;stroke-opacity:1"
       d="m 1355.0001,455.36221 0,-8 50,0 0,8 z" />
    <path
       d="m 1371.0001,447.36221 0,-18 18,0 0,18 z"
       style="opacity:1;fill:none;stroke:#616161;stroke-width:2;stroke-miterlimit:4;stroke-dasharray:none;stroke-opacity:1"
       id="path4267" />
    <path
       id="path4271"
       style="opacity:1;fill:none;stroke:#616161;stroke-width:2;stroke-miterlimit:4;stroke-dasharray:none;stroke-opacity:1"
       d="m 1445.0001,460.36221 10,10 0,4 -150,0 0,-4 10,-10 z" />
    <path
       d="m 1455.0001,470.36221 -150,0"
       style="opacity:1;fill:none;stroke:#616161;stroke-width:2;stroke-miterlimit:4;stroke-dasharray:none;stroke-opacity:1"
       id="path4274" />
    <path
       id="path4276"
       style="opacity:1;fill:none;stroke:#616161;stroke-width:6;stroke-miterlimit:4;stroke-dasharray:none;stroke-opacity:1"
       d="m 1355.0001,449.36221 -70,0 -30,30 0,10 250,0 0,-10 -30,-30 -70,0" />
  </g>
</svg>
